{
.appVersion = "3108";
DisplayStrings = (
"/ubar",
"/ucaron",
"/udieresisacute/udieresiscaron rororoetetet/udieresisgrave/udieresismacron",
"/KaiSymbol",
"a/c_t sNNANMaMaMainervrvrvAIAMAMTT.TT.TTAts-tstso/ncaron/ncaron/ncaron/ellipsis æ/pi ø/circumflex ¥/dagger ¥¨/circumflex/circumflex/notequal/endash ºª/bullet ÷/greaterequal/lessequal µ/tilde/integral/radical ç/approxequal/Omega ¸/ogonek Ç/lozenge/idotless/tilde Â¯¯/breve ¿ÆÚÒ/uniF8FF ÔÓ/hungarumlaut ÏÎÍÅ/OE/quotedblbase ´/perthousand/caron Á/caron/caron eÁ/caron Îd¨Ø/circumflex/product oiu834oiutut/e_x/c_h/e_i",
"/dottedCircle",
"/apostrophemod",
"/commareversedmod",
M,
O,
"Î",
"Ì",
"Iy//neNeNeNeNyNyXLZPZVIVILILILILVIPZPXLXLNyNNMerererNMNMMyNerveMyNerveYM",
"/Kcaron",
"/Hcircumflex",
"/Sacute",
"/Rstroke",
"N/Nhookleft",
"/Ocaron",
"/Utilde",
"/Ygrave",
"/fl.liga",
"/esh",
N,
Y,
"/Y.alt2",
"/Y.alt1 VLYVVVLYL",
"/emptyset",
"Å",
"Æ/AEacute",
"/OE",
"/lozenge",
"/lowernumeral-greek",
"/summation",
"/product",
"/perthousand",
"¬",
$,
"o/tildecomb õ",
"õ",
"ø",
"a/acaron",
"/ecaron",
"/dcaron",
"/eogonek",
"/ezhcaron",
"/glottalstopsmall",
"/icaron",
"/imacron",
"/lcaron",
"/lcircumflexbelow",
"/ncircumflexbelow",
"/rcaron",
"/rcommaaccent",
"/rdotbelowmacron",
"/rmacronbelow",
"/rfishhook",
"/qhooktail",
"/edotbelow/istroke/tcaron/tcommaaccent/tdotbelow/y.alt1/yhook/r_o/omega/iotadieresistonos",
"/yhook",
"/iotadieresis",
"/iotadieresistonos",
"/lcommaaccent.loclMAH",
"/Omega",
"/Epsilontonos",
"/Omicrontonos",
"/Iotatonos",
"/Etatonos",
"/Alphatonos",
"/Upsilon",
"/Omicron",
"/Omegatonos",
"/Iotadieresis",
"/Upsilondieresis",
a,
"/acircumflexdotbelow",
"è",
"/r_o",
"/m.alt2",
"/Mu",
"/space",
"/.null",
"\015",
"/nbspace",
"/j.alt1",
"«",
"»",
"/quotedblleft.001",
"/quotedblright.001",
"1",
"/one.alt2",
"/one.alt1",
"/six.alt1",
"6",
"/six.alt2",
"/seven.alt2",
"7",
"/seven.alt1",
"¼",
"½",
"¾",
"/zero.alt1",
"0",
"/zero.alt2",
"/strokeshort",
"/napostrophe",
"/Cacute",
"/Aringacute",
"/aringacute",

glyphs = (
{
glyphname = .notdef;
lastChange = "2021-12-07 03:39:09 +0000";
layers = (
{
layerId = "D6A4831D-747C-4592-93C0-305F4CD57904";
paths = (
{
closed = 1;
nodes = (
"247 4 OFFCURVE",
"271 2 OFFCURVE",
"363 -5 CURVE SMOOTH",
"426 -10 OFFCURVE",
"426 -12 OFFCURVE",
"432 53 CURVE SMOOTH",
"445 210 OFFCURVE",
"425 480 OFFCURVE",
"398 635 CURVE SMOOTH",
"391 678 OFFCURVE",
"361 699 OFFCURVE",
"316 691 CURVE SMOOTH",
"281 684 OFFCURVE",
"269 672 OFFCURVE",
"233 667 CURVE SMOOTH",
"212 665 OFFCURVE",
"191 689 OFFCURVE",
"193 705 CURVE SMOOTH",
"193 715 OFFCURVE",
"207 731 OFFCURVE",
"216 733 CURVE SMOOTH",
"267 744 OFFCURVE",
"339 754 OFFCURVE",
"434 757 CURVE SMOOTH",
"475 759 OFFCURVE",
"473 717 OFFCURVE",
"476 688 CURVE SMOOTH",
"481 647 OFFCURVE",
"483 604 OFFCURVE",
"484 563 CURVE SMOOTH",
"491 426 OFFCURVE",
"503 176 OFFCURVE",
"509 40 CURVE SMOOTH",
"510 25 OFFCURVE",
"507 10 OFFCURVE",
"508 -5 CURVE SMOOTH",
"510 -83 OFFCURVE",
"497 -91 OFFCURVE",
"419 -75 CURVE SMOOTH",
"352 -62 OFFCURVE",
"300 -58 OFFCURVE",
"276 -62 CURVE SMOOTH",
"255 -65 OFFCURVE",
"227 -66 OFFCURVE",
"192 -74 CURVE SMOOTH",
"110 -92 OFFCURVE",
"81 -90 OFFCURVE",
"77 -5 CURVE SMOOTH",
"69 154 OFFCURVE",
"63 250 OFFCURVE",
"57 410 CURVE SMOOTH",
"55 475 OFFCURVE",
"55 539 OFFCURVE",
"50 604 CURVE SMOOTH",
"48 633 OFFCURVE",
"59 657 OFFCURVE",
"85 652 CURVE SMOOTH",
"105 647 OFFCURVE",
"135 619 OFFCURVE",
"135 601 CURVE SMOOTH",
"135 446 OFFCURVE",
"128 356 OFFCURVE",
"128 202 CURVE SMOOTH",
"129 132 OFFCURVE",
"142 64 OFFCURVE",
"148 10 CURVE"
);
}
);
userData = {
assembly = "NPUSHB[ ]	/* 54 values pushed */
49 41 22 3 0 2 1 76 0 4 3 4 133 0 1 3 2 3 1 2 128 0 0 2 0 134 0 3 1 2 3 89 0 3 3 2 95 0 2 3 2 79 70 68 66 65 61 58 33 31 25 5 6 23 
CALL[ ]	/* CallFunction */";
};
width = 559;
}
);
leftMetricsKey = H;
note = ".notdef";
rightMetricsKey = H;
},
{
glyphname = exclam;
lastChange = "2022-02-01 21:43:20 +0000";
layers = (
{
layerId = "D6A4831D-747C-4592-93C0-305F4CD57904";
paths = (
{
closed = 1;
nodes = (
"114 111 OFFCURVE",
"108 126 OFFCURVE",
"102 136 CURVE SMOOTH",
"101 138 OFFCURVE",
"102 143 OFFCURVE",
"102 146 CURVE",
"134 338 OFFCURVE",
"111 529 OFFCURVE",
"98 720 CURVE SMOOTH",
"98 727 OFFCURVE",
"95 735 OFFCURVE",
"97 742 CURVE",
"102 752 OFFCURVE",
"107 767 OFFCURVE",
"116 770 CURVE SMOOTH",
"125 774 OFFCURVE",
"143 769 OFFCURVE",
"149 762 CURVE SMOOTH",
"160 748 OFFCURVE",
"169 731 OFFCURVE",
"171 714 CURVE SMOOTH",
"178 612 OFFCURVE",
"183 510 OFFCURVE",
"188 414 CURVE",
"182 339 OFFCURVE",
"178 271 OFFCURVE",
"171 204 CURVE SMOOTH",
"168 177 OFFCURVE",
"160 151 OFFCURVE",
"150 126 CURVE SMOOTH",
"147 117 OFFCURVE",
"130 106 OFFCURVE",
"123 108 CURVE SMOOTH"
);
},
{
closed = 1;
nodes = (
"146 -97 OFFCURVE",
"166 -71 OFFCURVE",
"165 -45 CURVE SMOOTH",
"164 -13 OFFCURVE",
"145 5 OFFCURVE",
"114 4 CURVE SMOOTH",
"86 4 OFFCURVE",
"68 -16 OFFCURVE",
"70 -45 CURVE SMOOTH",
"71 -68 OFFCURVE",
"102 -99 OFFCURVE",
"123 -98 CURVE SMOOTH"
);
},
{
closed = 1;
nodes = (
"146 -97 OFFCURVE",
"166 -71 OFFCURVE",
"165 -45 CURVE SMOOTH",
"164 -13 OFFCURVE",
"145 5 OFFCURVE",
"114 4 CURVE SMOOTH",
"86 4 OFFCURVE",
"68 -16 OFFCURVE",
"70 -45 CURVE SMOOTH",
"71 -68 OFFCURVE",
"102 -99 OFFCURVE",
"123 -98 CURVE SMOOTH"
);
}
);
userData = {
assembly = "NPUSHB[ ]	/* 10 values pushed */
15 1 0 1 32 1 2 0 2 76 
MPPEM[ ]	/* MeasurePixelPerEm */
PUSHB[ ]	/* 1 value pushed */
21 
LT[ ]	/* LessThan */
IF[ ]	/* If */
NPUSHB[ ]	/* 19 values pushed */
0 0 1 2 1 0 2 128 0 1 1 36 77 0 2 2 31 2 78 
ELSE[ ]	/* Else */
MPPEM[ ]	/* MeasurePixelPerEm */
PUSHB[ ]	/* 1 value pushed */
31 
LT[ ]	/* LessThan */
IF[ ]	/* If */
NPUSHB[ ]	/* 16 values pushed */
0 1 0 1 133 0 0 2 0 133 0 2 2 31 2 78 
ELSE[ ]	/* Else */
NPUSHB[ ]	/* 14 values pushed */
0 1 0 1 133 0 0 2 0 133 0 2 2 118 
EIF[ ]	/* EndIf */
EIF[ ]	/* EndIf */
PUSHB[ ]	/* 7 values pushed */
44 42 44 25 3 8 24 
CALL[ ]	/* CallFunction */";
};
width = 278;
}
);
note = exclam;
unicode = 0021;
},
{
glyphname = quotedbl;
lastChange = "2021-12-13 10:43:05 +0000";
layers = (
{
layerId = "D6A4831D-747C-4592-93C0-305F4CD57904";
paths = (
{
closed = 1;
nodes = (
"117 406 OFFCURVE",
"119 410 OFFCURVE",
"118 435 CURVE SMOOTH",
"113 537 OFFCURVE",
"116 589 OFFCURVE",
"140 689 CURVE SMOOTH",
"146 714 OFFCURVE",
"139 730 OFFCURVE",
"117 739 CURVE SMOOTH",
"103 744 OFFCURVE",
"87 744 OFFCURVE",
"70 746 CURVE",
"63 633 LINE SMOOTH",
"58 563 OFFCURVE",
"53 543 OFFCURVE",
"50 473 CURVE SMOOTH",
"48 439 OFFCURVE",
"53 406 OFFCURVE",
"87 387 CURVE"
);
},
{
closed = 1;
nodes = (
"252 404 OFFCURVE",
"263 415 OFFCURVE",
"266 424 CURVE SMOOTH",
"269 435 OFFCURVE",
"268 449 OFFCURVE",
"267 462 CURVE SMOOTH",
"265 523 OFFCURVE",
"262 585 OFFCURVE",
"279 646 CURVE SMOOTH",
"280 650 OFFCURVE",
"281 655 OFFCURVE",
"281 660 CURVE SMOOTH",
"282 688 OFFCURVE",
"266 709 OFFCURVE",
"238 714 CURVE SMOOTH",
"217 718 OFFCURVE",
"206 708 OFFCURVE",
"208 685 CURVE SMOOTH",
"210 669 OFFCURVE",
"212 654 OFFCURVE",
"211 638 CURVE SMOOTH",
"208 599 OFFCURVE",
"201 559 OFFCURVE",
"198 520 CURVE",
"203 472 OFFCURVE",
"204 429 OFFCURVE",
"214 417 CURVE SMOOTH",
"220 409 OFFCURVE",
"234 403 OFFCURVE",
"244 404 CURVE SMOOTH"
);
}
);
userData = {
assembly = "MPPEM[ ]	/* MeasurePixelPerEm */
PUSHB[ ]	/* 1 value pushed */
34 
LT[ ]	/* LessThan */
IF[ ]	/* If */
PUSHB[ ]	/* 7 values pushed */
48 29 25 22 4 0 73 
ELSE[ ]	/* Else */
PUSHB[ ]	/* 7 values pushed */
48 29 25 22 4 1 73 
EIF[ ]	/* EndIf */
MPPEM[ ]	/* MeasurePixelPerEm */
PUSHB[ ]	/* 1 value pushed */
21 
LT[ ]	/* LessThan */
IF[ ]	/* If */
PUSHB[ ]	/* 7 values pushed */
1 1 0 0 36 0 78 
ELSE[ ]	/* Else */
MPPEM[ ]	/* MeasurePixelPerEm */
PUSHB[ ]	/* 1 value pushed */
34 
LT[ ]	/* LessThan */
IF[ ]	/* If */
PUSHB[ ]	/* 5 values pushed */
1 1 0 0 118 
ELSE[ ]	/* Else */
NPUSHB[ ]	/* 9 values pushed */
0 0 1 0 133 0 1 1 118 
EIF[ ]	/* EndIf */
EIF[ ]	/* EndIf */
PUSHB[ ]	/* 6 values pushed */
53 52 33 2 8 23 
CALL[ ]	/* CallFunction */";
};
width = 331;
}
);
leftMetricsKey = H;
note = quotedbl;
rightMetricsKey = H;
unicode = 0022;
},
{
glyphname = numbersign;
lastChange = "2021-04-24 07:28:15 +0000";
layers = (
{
layerId = "D6A4831D-747C-4592-93C0-305F4CD57904";
paths = (
{
closed = 1;
nodes = (
"540 178 OFFCURVE",
"543 258 OFFCURVE",
"538 339 CURVE SMOOTH",
"537 369 OFFCURVE",
"544 382 OFFCURVE",
"572 385 CURVE",
"599 392 OFFCURVE",
"619 394 OFFCURVE",
"683 403 CURVE SMOOTH",
"699 406 OFFCURVE",
"714 420 OFFCURVE",
"730 428 CURVE",
"714 440 OFFCURVE",
"699 454 OFFCURVE",
"682 464 CURVE SMOOTH",
"676 468 OFFCURVE",
"664 464 OFFCURVE",
"656 463 CURVE SMOOTH",
"590 456 OFFCURVE",
"570 454 OFFCURVE",
"537 448 CURVE",
"528 565 LINE SMOOTH",
"526 593 OFFCURVE",
"537 608 OFFCURVE",
"569 605 CURVE SMOOTH",
"589 604 OFFCURVE",
"611 610 OFFCURVE",
"638 613 CURVE",
"619 656 OFFCURVE",
"589 659 OFFCURVE",
"560 667 CURVE SMOOTH",
"546 672 OFFCURVE",
"527 689 OFFCURVE",
"525 702 CURVE SMOOTH",
"516 742 OFFCURVE",
"516 784 OFFCURVE",
"509 825 CURVE",
"508 838 OFFCURVE",
"495 849 OFFCURVE",
"486 861 CURVE",
"479 846 OFFCURVE",
"466 833 OFFCURVE",
"465 817 CURVE SMOOTH",
"462 775 OFFCURVE",
"466 732 OFFCURVE",
"464 689 CURVE SMOOTH",
"463 678 OFFCURVE",
"456 660 OFFCURVE",
"447 658 CURVE",
"408 644 OFFCURVE",
"368 634 OFFCURVE",
"324 622 CURVE",
"319 655 OFFCURVE",
"318 683 OFFCURVE",
"312 710 CURVE SMOOTH",
"309 723 OFFCURVE",
"298 734 OFFCURVE",
"290 746 CURVE",
"281 734 OFFCURVE",
"266 723 OFFCURVE",
"263 710 CURVE SMOOTH",
"259 686 OFFCURVE",
"261 661 OFFCURVE",
"261 637 CURVE SMOOTH",
"261 616 OFFCURVE",
"260 599 OFFCURVE",
"232 593 CURVE SMOOTH",
"170 579 OFFCURVE",
"110 561 OFFCURVE",
"48 542 CURVE SMOOTH",
"36 539 OFFCURVE",
"27 527 OFFCURVE",
"17 519 CURVE",
"31 512 OFFCURVE",
"43 502 OFFCURVE",
"58 501 CURVE SMOOTH",
"72 499 OFFCURVE",
"88 507 OFFCURVE",
"102 510 CURVE SMOOTH",
"157 521 OFFCURVE",
"211 531 OFFCURVE",
"267 541 CURVE",
"271 491 OFFCURVE",
"276 450 OFFCURVE",
"276 408 CURVE SMOOTH",
"276 393 OFFCURVE",
"270 370 OFFCURVE",
"258 362 CURVE SMOOTH",
"234 347 OFFCURVE",
"204 342 OFFCURVE",
"178 330 CURVE SMOOTH",
"165 325 OFFCURVE",
"155 315 OFFCURVE",
"143 307 CURVE",
"157 302 OFFCURVE",
"171 290 OFFCURVE",
"185 292 CURVE SMOOTH",
"215 295 OFFCURVE",
"243 304 OFFCURVE",
"278 313 CURVE",
"282 274 OFFCURVE",
"283 239 OFFCURVE",
"289 205 CURVE SMOOTH",
"293 189 OFFCURVE",
"305 161 OFFCURVE",
"313 160 CURVE SMOOTH",
"340 159 OFFCURVE",
"353 178 OFFCURVE",
"351 206 CURVE SMOOTH",
"349 236 OFFCURVE",
"347 268 OFFCURVE",
"350 298 CURVE SMOOTH",
"352 312 OFFCURVE",
"364 332 OFFCURVE",
"376 338 CURVE SMOOTH",
"405 350 OFFCURVE",
"437 355 OFFCURVE",
"477 365 CURVE",
"480 286 OFFCURVE",
"485 212 OFFCURVE",
"486 139 CURVE SMOOTH",
"487 89 OFFCURVE",
"489 86 OFFCURVE",
"540 97 CURVE"
);
},
{
closed = 1;
nodes = (
"338 443 OFFCURVE",
"332 491 OFFCURVE",
"329 540 CURVE SMOOTH",
"329 548 OFFCURVE",
"336 563 OFFCURVE",
"343 565 CURVE SMOOTH",
"383 577 OFFCURVE",
"424 586 OFFCURVE",
"474 599 CURVE",
"474 543 OFFCURVE",
"476 496 OFFCURVE",
"474 449 CURVE SMOOTH",
"473 439 OFFCURVE",
"461 425 OFFCURVE",
"451 421 CURVE SMOOTH",
"418 407 OFFCURVE",
"384 399 OFFCURVE",
"343 385 CURVE"
);
}
);
userData = {
assembly = "NPUSHB[ ]	/* 25 values pushed */
128 100 85 64 53 5 3 5 118 1 7 6 132 36 19 3 2 7 30 15 2 0 2 4 76 
MPPEM[ ]	/* MeasurePixelPerEm */
PUSHB[ ]	/* 1 value pushed */
21 
LT[ ]	/* LessThan */
IF[ ]	/* If */
NPUSHB[ ]	/* 48 values pushed */
0 5 4 3 4 5 3 128 0 3 6 4 3 6 126 0 6 7 4 6 7 126 0 7 2 4 7 2 126 0 2 0 4 2 0 126 0 4 4 36 77 1 1 0 0 40 0 78 
ELSE[ ]	/* Else */
MPPEM[ ]	/* MeasurePixelPerEm */
PUSHB[ ]	/* 1 value pushed */
44 
LT[ ]	/* LessThan */
IF[ ]	/* If */
NPUSHB[ ]	/* 37 values pushed */
0 4 5 4 133 0 5 3 5 133 0 3 6 3 133 0 6 7 6 133 0 7 2 7 133 0 2 0 2 133 1 1 0 0 40 0 78 
ELSE[ ]	/* Else */
NPUSHB[ ]	/* 35 values pushed */
0 4 5 4 133 0 5 3 5 133 0 3 6 3 133 0 6 7 6 133 0 7 2 7 133 0 2 0 2 133 1 1 0 0 118 
EIF[ ]	/* EndIf */
EIF[ ]	/* EndIf */
NPUSHB[ ]	/* 16 values pushed */
134 133 121 119 104 102 75 73 60 58 44 28 44 8 8 25 
CALL[ ]	/* CallFunction */";
};
width = 740;
}
);
note = numbersign;
unicode = 0023;
},
{
glyphname = dollar;
lastChange = "2022-01-24 07:29:52 +0000";
layers = (
{
layerId = "D6A4831D-747C-4592-93C0-305F4CD57904";
paths = (
{
closed = 1;
nodes = (
"282 -54 OFFCURVE",
"275 -5 OFFCURVE",
"269 43 CURVE SMOOTH",
"265 75 OFFCURVE",
"273 89 OFFCURVE",
"311 94 CURVE SMOOTH",
"364 100 OFFCURVE",
"417 115 OFFCURVE",
"465 136 CURVE SMOOTH",
"520 159 OFFCURVE",
"534 211 OFFCURVE",
"528 268 CURVE SMOOTH",
"522 322 OFFCURVE",
"494 356 OFFCURVE",
"445 373 CURVE SMOOTH",
"399 388 OFFCURVE",
"351 400 OFFCURVE",
"299 415 CURVE",
"306 467 OFFCURVE",
"313 521 OFFCURVE",
"318 574 CURVE SMOOTH",
"324 632 OFFCURVE",
"332 640 OFFCURVE",
"391 642 CURVE SMOOTH",
"403 642 OFFCURVE",
"416 637 OFFCURVE",
"429 637 CURVE SMOOTH",
"449 635 OFFCURVE",
"476 621 OFFCURVE",
"480 657 CURVE SMOOTH",
"484 691 OFFCURVE",
"460 698 OFFCURVE",
"436 701 CURVE SMOOTH",
"405 705 OFFCURVE",
"365 702 OFFCURVE",
"336 702 CURVE",
"336 735 OFFCURVE",
"329 783 OFFCURVE",
"303 783 CURVE SMOOTH",
"282 783 OFFCURVE",
"265 750 OFFCURVE",
"263 721 CURVE SMOOTH",
"260 670 OFFCURVE",
"251 675 OFFCURVE",
"222 660 CURVE SMOOTH",
"183 640 OFFCURVE",
"147 613 OFFCURVE",
"114 585 CURVE SMOOTH",
"80 556 OFFCURVE",
"72 486 OFFCURVE",
"102 448 CURVE SMOOTH",
"124 420 OFFCURVE",
"153 410 OFFCURVE",
"173 397 CURVE SMOOTH",
"193 384 OFFCURVE",
"216 381 OFFCURVE",
"216 373 CURVE SMOOTH",
"214 304 OFFCURVE",
"209 228 OFFCURVE",
"206 155 CURVE",
"169 166 OFFCURVE",
"133 163 OFFCURVE",
"121 206 CURVE SMOOTH",
"119 216 OFFCURVE",
"96 229 OFFCURVE",
"84 227 CURVE SMOOTH",
"72 225 OFFCURVE",
"56 208 OFFCURVE",
"54 195 CURVE SMOOTH",
"52 184 OFFCURVE",
"64 166 OFFCURVE",
"75 159 CURVE SMOOTH",
"102 143 OFFCURVE",
"138 119 OFFCURVE",
"168 109 CURVE SMOOTH",
"211 96 OFFCURVE",
"212 100 OFFCURVE",
"215 35 CURVE SMOOTH",
"217 -3 OFFCURVE",
"229 -42 OFFCURVE",
"237 -80 CURVE SMOOTH",
"244 -110 OFFCURVE",
"261 -115 OFFCURVE",
"288 -103 CURVE"
);
},
{
closed = 1;
nodes = (
"299 147 OFFCURVE",
"268 135 OFFCURVE",
"272 182 CURVE SMOOTH",
"277 239 OFFCURVE",
"282 292 OFFCURVE",
"292 358 CURVE",
"338 342 OFFCURVE",
"385 339 OFFCURVE",
"422 321 CURVE SMOOTH",
"474 297 OFFCURVE",
"473 212 OFFCURVE",
"417 181 CURVE SMOOTH",
"385 163 OFFCURVE",
"346 154 OFFCURVE",
"310 149 CURVE SMOOTH"
);
},
{
closed = 1;
nodes = (
"182 447 OFFCURVE",
"148 459 OFFCURVE",
"146 505 CURVE SMOOTH",
"145 543 OFFCURVE",
"192 593 OFFCURVE",
"251 606 CURVE",
"247 556 OFFCURVE",
"229 487 OFFCURVE",
"224 437 CURVE"
);
}
);
width = 589;
}
);
leftMetricsKey = S;
rightMetricsKey = S;
unicode = 0024;
},
{
glyphname = percent;
lastChange = "2022-02-01 21:43:50 +0000";
layers = (
{
layerId = "D6A4831D-747C-4592-93C0-305F4CD57904";
paths = (
{
closed = 1;
nodes = (
"76 -91 OFFCURVE",
"135 -64 OFFCURVE",
"164 -23 CURVE SMOOTH",
"183 6 OFFCURVE",
"197 39 OFFCURVE",
"217 66 CURVE SMOOTH",
"299 179 OFFCURVE",
"376 295 OFFCURVE",
"464 403 CURVE SMOOTH",
"545 502 OFFCURVE",
"637 592 OFFCURVE",
"722 687 CURVE SMOOTH",
"730 696 OFFCURVE",
"727 732 OFFCURVE",
"714 732 CURVE",
"699 731 OFFCURVE",
"677 736 OFFCURVE",
"670 728 CURVE SMOOTH",
"557 602 OFFCURVE",
"441 478 OFFCURVE",
"334 346 CURVE SMOOTH",
"243 236 OFFCURVE",
"164 116 OFFCURVE",
"81 1 CURVE SMOOTH",
"72 -12 OFFCURVE",
"68 -32 OFFCURVE",
"71 -47 CURVE SMOOTH"
);
},
{
closed = 1;
nodes = (
"426 198 OFFCURVE",
"520 257 OFFCURVE",
"570 256 CURVE",
"599 164 OFFCURVE",
"546 84 OFFCURVE",
"452 90 CURVE"
);
},
{
closed = 1;
nodes = (
"597 76 OFFCURVE",
"639 144 OFFCURVE",
"640 228 CURVE",
"644 271 OFFCURVE",
"620 296 OFFCURVE",
"573 306 CURVE SMOOTH",
"514 317 OFFCURVE",
"418 249 OFFCURVE",
"397 182 CURVE SMOOTH",
"383 138 OFFCURVE",
"388 99 OFFCURVE",
"423 67 CURVE SMOOTH",
"458 35 OFFCURVE",
"497 39 OFFCURVE",
"536 53 CURVE SMOOTH"
);
},
{
closed = 1;
nodes = (
"334 425 OFFCURVE",
"363 484 OFFCURVE",
"372 550 CURVE SMOOTH",
"378 600 OFFCURVE",
"338 646 OFFCURVE",
"282 638 CURVE SMOOTH",
"253 634 OFFCURVE",
"228 629 OFFCURVE",
"201 620 CURVE SMOOTH",
"137 601 OFFCURVE",
"118 561 OFFCURVE",
"105 492 CURVE",
"117 434 OFFCURVE",
"142 414 OFFCURVE",
"171 397 CURVE SMOOTH",
"201 381 OFFCURVE",
"249 382 OFFCURVE",
"277 395 CURVE SMOOTH"
);
},
{
closed = 1;
nodes = (
"226 427 OFFCURVE",
"210 433 OFFCURVE",
"191 446 CURVE",
"154 481 OFFCURVE",
"173 517 OFFCURVE",
"190 537 CURVE SMOOTH",
"216 570 OFFCURVE",
"295 597 OFFCURVE",
"308 584 CURVE",
"338 543 OFFCURVE",
"310 458 OFFCURVE",
"237 424 CURVE"
);
}
);
userData = {
assembly = "NPUSHB[ ]	/* 15 values pushed */
25 1 4 2 94 1 6 0 110 105 2 5 6 3 76 
MPPEM[ ]	/* MeasurePixelPerEm */
PUSHB[ ]	/* 1 value pushed */
21 
LT[ ]	/* LessThan */
IF[ ]	/* If */
NPUSHB[ ]	/* 31 values pushed */
0 1 0 2 4 1 2 105 0 3 7 1 0 6 3 0 105 8 1 6 0 5 6 5 101 0 4 4 36 4 78 
ELSE[ ]	/* Else */
NPUSHB[ ]	/* 43 values pushed */
0 4 2 3 2 4 3 128 0 1 0 2 4 1 2 105 0 3 7 1 0 6 3 0 105 8 1 6 5 5 6 89 8 1 6 6 5 97 0 5 6 5 81 
EIF[ ]	/* EndIf */
NPUSHB[ ]	/* 25 values pushed */
76 76 2 0 76 100 76 98 82 80 61 59 36 35 30 28 12 9 0 22 2 22 9 8 22 
CALL[ ]	/* CallFunction */";
};
width = 766;
}
);
note = percent;
unicode = 0025;
},
{
glyphname = ampersand;
lastChange = "2022-02-01 21:44:15 +0000";
layers = (
{
layerId = "D6A4831D-747C-4592-93C0-305F4CD57904";
paths = (
{
closed = 1;
nodes = (
"282 -24 OFFCURVE",
"347 14 OFFCURVE",
"393 88 CURVE SMOOTH",
"405 108 OFFCURVE",
"399 138 OFFCURVE",
"457 103 CURVE SMOOTH",
"482 88 OFFCURVE",
"510 88 OFFCURVE",
"522 124 CURVE SMOOTH",
"531 154 OFFCURVE",
"495 183 OFFCURVE",
"449 194 CURVE",
"463 250 OFFCURVE",
"503 320 OFFCURVE",
"465 351 CURVE",
"397 336 OFFCURVE",
"416 263 OFFCURVE",
"383 222 CURVE",
"348 246 OFFCURVE",
"297 272 OFFCURVE",
"255 299 CURVE",
"267 330 OFFCURVE",
"281 358 OFFCURVE",
"291 387 CURVE SMOOTH",
"315 457 OFFCURVE",
"344 525 OFFCURVE",
"359 598 CURVE SMOOTH",
"372 658 OFFCURVE",
"332 702 OFFCURVE",
"279 701 CURVE SMOOTH",
"202 700 OFFCURVE",
"82 602 OFFCURVE",
"58 528 CURVE SMOOTH",
"28 435 OFFCURVE",
"84 374 OFFCURVE",
"136 318 CURVE SMOOTH",
"163 289 OFFCURVE",
"158 270 OFFCURVE",
"146 244 CURVE SMOOTH",
"124 201 OFFCURVE",
"103 160 OFFCURVE",
"92 114 CURVE SMOOTH",
"75 49 OFFCURVE",
"130 -16 OFFCURVE",
"197 -18 CURVE SMOOTH"
);
},
{
closed = 1;
nodes = (
"171 23 OFFCURVE",
"143 55 OFFCURVE",
"159 110 CURVE SMOOTH",
"167 131 OFFCURVE",
"173 151 OFFCURVE",
"182 170 CURVE SMOOTH",
"214 248 OFFCURVE",
"214 248 OFFCURVE",
"284 201 CURVE SMOOTH",
"306 186 OFFCURVE",
"327 174 OFFCURVE",
"354 157 CURVE",
"328 94 OFFCURVE",
"286 54 OFFCURVE",
"226 39 CURVE SMOOTH"
);
},
{
closed = 1;
nodes = (
"145 389 OFFCURVE",
"96 432 OFFCURVE",
"120 501 CURVE SMOOTH",
"145 573 OFFCURVE",
"210 610 OFFCURVE",
"277 637 CURVE",
"284 634 OFFCURVE",
"295 630 OFFCURVE",
"303 626 CURVE",
"265 532 OFFCURVE",
"229 438 OFFCURVE",
"193 341 CURVE"
);
}
);
userData = {
assembly = "MPPEM[ ]	/* MeasurePixelPerEm */
PUSHB[ ]	/* 1 value pushed */
46 
LT[ ]	/* LessThan */
IF[ ]	/* If */
NPUSHB[ ]	/* 18 values pushed */
82 70 2 0 5 116 103 1 3 2 0 33 29 2 1 3 3 76 
ELSE[ ]	/* Else */
NPUSHB[ ]	/* 18 values pushed */
82 70 2 6 5 116 103 1 3 2 0 33 29 2 1 3 3 76 
EIF[ ]	/* EndIf */
MPPEM[ ]	/* MeasurePixelPerEm */
PUSHB[ ]	/* 1 value pushed */
26 
LT[ ]	/* LessThan */
IF[ ]	/* If */
NPUSHB[ ]	/* 40 values pushed */
6 1 0 5 2 5 0 2 128 0 2 7 5 2 7 126 0 4 0 5 0 4 5 105 0 7 7 3 98 0 3 3 34 77 0 1 1 31 1 78 
ELSE[ ]	/* Else */
MPPEM[ ]	/* MeasurePixelPerEm */
PUSHB[ ]	/* 1 value pushed */
46 
LT[ ]	/* LessThan */
IF[ ]	/* If */
NPUSHB[ ]	/* 40 values pushed */
6 1 0 5 2 5 0 2 128 0 2 7 5 2 7 126 0 1 3 1 134 0 4 0 5 0 4 5 105 0 7 7 3 98 0 3 3 34 3 78 
ELSE[ ]	/* Else */
NPUSHB[ ]	/* 46 values pushed */
0 6 5 0 5 6 0 128 0 0 2 5 0 2 126 0 2 7 5 2 7 126 0 1 3 1 134 0 4 0 5 6 4 5 105 0 7 7 3 98 0 3 3 34 3 78 
EIF[ ]	/* EndIf */
EIF[ ]	/* EndIf */
NPUSHB[ ]	/* 15 values pushed */
111 109 98 96 89 87 66 64 39 45 29 40 8 8 26 
CALL[ ]	/* CallFunction */";
};
width = 573;
}
);
note = ampersand;
unicode = 0026;
},
{
glyphname = quotesingle;
lastChange = "2021-12-13 10:41:06 +0000";
layers = (
{
layerId = "D6A4831D-747C-4592-93C0-305F4CD57904";
paths = (
{
closed = 1;
nodes = (
"132 437 OFFCURVE",
"131 457 OFFCURVE",
"132 472 CURVE",
"133 476 OFFCURVE",
"132 479 OFFCURVE",
"133 482 CURVE",
"138 545 OFFCURVE",
"142 609 OFFCURVE",
"148 672 CURVE SMOOTH",
"151 699 OFFCURVE",
"143 716 OFFCURVE",
"122 720 CURVE SMOOTH",
"90 726 OFFCURVE",
"72 715 OFFCURVE",
"69 682 CURVE SMOOTH",
"66 633 OFFCURVE",
"65 583 OFFCURVE",
"64 534 CURVE",
"67 534 LINE",
"67 513 OFFCURVE",
"65 492 OFFCURVE",
"68 472 CURVE SMOOTH",
"71 450 OFFCURVE",
"89 440 OFFCURVE",
"109 439 CURVE SMOOTH"
);
}
);
userData = {
assembly = "NPUSHB[ ]	/* 12 values pushed */
14 1 0 73 0 0 0 118 34 1 8 23 
CALL[ ]	/* CallFunction */";
};
width = 218;
}
);
note = quotesingle;
unicode = 0027;
},
{
glyphname = parenleft;
lastChange = "2021-04-24 07:48:38 +0000";
layers = (
{
layerId = "D6A4831D-747C-4592-93C0-305F4CD57904";
paths = (
{
closed = 1;
nodes = (
"342 -68 OFFCURVE",
"359 -62 OFFCURVE",
"386 -59 CURVE",
"367 -39 OFFCURVE",
"358 -27 OFFCURVE",
"346 -18 CURVE SMOOTH",
"322 2 OFFCURVE",
"294 19 OFFCURVE",
"270 39 CURVE SMOOTH",
"147 145 OFFCURVE",
"104 291 OFFCURVE",
"156 425 CURVE SMOOTH",
"183 495 OFFCURVE",
"238 540 OFFCURVE",
"295 584 CURVE SMOOTH",
"308 594 OFFCURVE",
"315 613 OFFCURVE",
"325 627 CURVE",
"312 636 OFFCURVE",
"298 651 OFFCURVE",
"285 652 CURVE SMOOTH",
"268 652 OFFCURVE",
"250 642 OFFCURVE",
"234 634 CURVE SMOOTH",
"224 628 OFFCURVE",
"217 616 OFFCURVE",
"208 608 CURVE SMOOTH",
"135 548 OFFCURVE",
"78 476 OFFCURVE",
"61 380 CURVE SMOOTH",
"25 174 OFFCURVE",
"154 12 OFFCURVE",
"331 -63 CURVE SMOOTH"
);
}
);
userData = {
assembly = "NPUSHB[ ]	/* 12 values pushed */
16 1 0 74 0 0 0 118 33 1 8 23 
CALL[ ]	/* CallFunction */";
};
width = 429;
}
);
note = parenleft;
unicode = 0028;
},
{
glyphname = parenright;
lastChange = "2021-04-24 07:49:16 +0000";
layers = (
{
layerId = "D6A4831D-747C-4592-93C0-305F4CD57904";
paths = (
{
closed = 1;
nodes = (
"80 -96 OFFCURVE",
"103 -68 OFFCURVE",
"125 -45 CURVE SMOOTH",
"200 31 OFFCURVE",
"253 122 OFFCURVE",
"297 220 CURVE SMOOTH",
"330 292 OFFCURVE",
"338 366 OFFCURVE",
"327 444 CURVE SMOOTH",
"313 555 OFFCURVE",
"235 633 OFFCURVE",
"175 719 CURVE SMOOTH",
"168 730 OFFCURVE",
"135 722 OFFCURVE",
"115 724 CURVE",
"115 706 OFFCURVE",
"109 685 OFFCURVE",
"117 671 CURVE SMOOTH",
"135 642 OFFCURVE",
"159 618 OFFCURVE",
"180 592 CURVE SMOOTH",
"224 534 OFFCURVE",
"251 471 OFFCURVE",
"251 396 CURVE SMOOTH",
"251 219 OFFCURVE",
"170 79 OFFCURVE",
"53 -45 CURVE SMOOTH",
"44 -54 OFFCURVE",
"38 -66 OFFCURVE",
"28 -81 CURVE"
);
}
);
userData = {
assembly = "NPUSHB[ ]	/* 12 values pushed */
19 1 0 73 0 0 0 118 18 1 8 23 
CALL[ ]	/* CallFunction */";
};
width = 356;
}
);
note = parenright;
unicode = 0029;
},
{
glyphname = asterisk;
lastChange = "2021-04-24 07:51:04 +0000";
layers = (
{
layerId = "D6A4831D-747C-4592-93C0-305F4CD57904";
paths = (
{
closed = 1;
nodes = (
"119 63 OFFCURVE",
"136 115 OFFCURVE",
"165 139 CURVE SMOOTH",
"199 167 OFFCURVE",
"229 200 OFFCURVE",
"261 232 CURVE",
"280 193 OFFCURVE",
"237 145 OFFCURVE",
"296 114 CURVE",
"306 173 OFFCURVE",
"316 225 OFFCURVE",
"327 286 CURVE",
"393 248 OFFCURVE",
"452 212 OFFCURVE",
"511 177 CURVE",
"524 211 OFFCURVE",
"511 238 OFFCURVE",
"469 262 CURVE SMOOTH",
"435 282 OFFCURVE",
"401 304 OFFCURVE",
"357 329 CURVE",
"384 344 OFFCURVE",
"399 353 OFFCURVE",
"414 360 CURVE SMOOTH",
"448 375 OFFCURVE",
"482 387 OFFCURVE",
"514 404 CURVE SMOOTH",
"524 410 OFFCURVE",
"529 427 OFFCURVE",
"535 439 CURVE",
"523 441 OFFCURVE",
"511 446 OFFCURVE",
"499 445 CURVE SMOOTH",
"487 444 OFFCURVE",
"475 438 OFFCURVE",
"463 435 CURVE",
"461 438 OFFCURVE",
"459 443 OFFCURVE",
"456 446 CURVE",
"483 467 OFFCURVE",
"511 487 OFFCURVE",
"536 510 CURVE SMOOTH",
"546 519 OFFCURVE",
"548 536 OFFCURVE",
"554 550 CURVE",
"538 552 OFFCURVE",
"518 559 OFFCURVE",
"505 554 CURVE SMOOTH",
"488 547 OFFCURVE",
"475 530 OFFCURVE",
"462 517 CURVE SMOOTH",
"420 477 OFFCURVE",
"379 437 OFFCURVE",
"329 389 CURVE",
"335 450 OFFCURVE",
"341 501 OFFCURVE",
"345 551 CURVE SMOOTH",
"347 576 OFFCURVE",
"350 607 OFFCURVE",
"315 606 CURVE SMOOTH",
"305 606 OFFCURVE",
"292 575 OFFCURVE",
"289 557 CURVE SMOOTH",
"282 507 OFFCURVE",
"280 457 OFFCURVE",
"277 407 CURVE",
"273 406 OFFCURVE",
"268 404 OFFCURVE",
"263 402 CURVE",
"253 421 OFFCURVE",
"241 438 OFFCURVE",
"231 457 CURVE SMOOTH",
"220 478 OFFCURVE",
"209 502 OFFCURVE",
"183 489 CURVE SMOOTH",
"155 475 OFFCURVE",
"172 450 OFFCURVE",
"182 432 CURVE SMOOTH",
"194 409 OFFCURVE",
"208 388 OFFCURVE",
"225 359 CURVE",
"174 359 OFFCURVE",
"132 359 OFFCURVE",
"90 358 CURVE SMOOTH",
"81 357 OFFCURVE",
"68 345 OFFCURVE",
"67 336 CURVE SMOOTH",
"66 328 OFFCURVE",
"74 314 OFFCURVE",
"83 309 CURVE SMOOTH",
"92 303 OFFCURVE",
"106 303 OFFCURVE",
"118 303 CURVE SMOOTH",
"158 302 OFFCURVE",
"199 303 OFFCURVE",
"249 303 CURVE",
"182 228 OFFCURVE",
"121 159 OFFCURVE",
"51 83 CURVE"
);
}
);
userData = {
assembly = "NPUSHB[ ]	/* 27 values pushed */
86 12 2 3 0 4 96 64 41 30 4 3 0 35 1 1 3 48 1 2 1 4 76 47 1 2 73 
MPPEM[ ]	/* MeasurePixelPerEm */
PUSHB[ ]	/* 1 value pushed */
39 
LT[ ]	/* LessThan */
IF[ ]	/* If */
NPUSHB[ ]	/* 30 values pushed */
0 4 0 4 133 0 3 0 1 0 3 1 128 0 1 2 0 1 2 126 0 2 2 132 0 0 0 33 0 78 
ELSE[ ]	/* Else */
NPUSHB[ ]	/* 24 values pushed */
0 4 0 4 133 0 0 3 0 133 0 3 1 3 133 0 1 2 1 133 0 2 2 118 
EIF[ ]	/* EndIf */
NPUSHB[ ]	/* 13 values pushed */
103 101 68 65 55 53 37 36 19 17 5 8 22 
CALL[ ]	/* CallFunction */";
};
width = 622;
}
);
note = asterisk;
unicode = 002A;
},
{
glyphname = plus;
lastChange = "2021-04-24 07:52:42 +0000";
layers = (
{
layerId = "D6A4831D-747C-4592-93C0-305F4CD57904";
paths = (
{
closed = 1;
nodes = (
"357 22 OFFCURVE",
"377 63 OFFCURVE",
"380 87 CURVE SMOOTH",
"386 150 OFFCURVE",
"386 214 OFFCURVE",
"385 278 CURVE SMOOTH",
"385 308 OFFCURVE",
"394 321 OFFCURVE",
"425 323 CURVE SMOOTH",
"474 326 OFFCURVE",
"523 332 OFFCURVE",
"572 340 CURVE SMOOTH",
"585 343 OFFCURVE",
"595 357 OFFCURVE",
"607 366 CURVE",
"593 372 OFFCURVE",
"579 383 OFFCURVE",
"564 384 CURVE SMOOTH",
"507 386 OFFCURVE",
"450 384 OFFCURVE",
"386 384 CURVE",
"381 440 OFFCURVE",
"377 496 OFFCURVE",
"373 551 CURVE SMOOTH",
"370 587 OFFCURVE",
"343 604 OFFCURVE",
"315 602 CURVE SMOOTH",
"282 598 OFFCURVE",
"291 570 OFFCURVE",
"295 545 CURVE SMOOTH",
"303 504 OFFCURVE",
"303 462 OFFCURVE",
"311 422 CURVE SMOOTH",
"320 375 OFFCURVE",
"299 363 OFFCURVE",
"256 356 CURVE SMOOTH",
"202 346 OFFCURVE",
"150 326 OFFCURVE",
"99 306 CURVE SMOOTH",
"88 301 OFFCURVE",
"74 275 OFFCURVE",
"79 258 CURVE",
"83 248 OFFCURVE",
"121 249 OFFCURVE",
"139 254 CURVE SMOOTH",
"187 267 OFFCURVE",
"234 286 OFFCURVE",
"281 301 CURVE SMOOTH",
"304 308 OFFCURVE",
"318 300 OFFCURVE",
"319 274 CURVE SMOOTH",
"320 213 OFFCURVE",
"320 153 OFFCURVE",
"324 92 CURVE SMOOTH",
"326 68 OFFCURVE",
"329 19 OFFCURVE",
"342 19 CURVE"
);
}
);
userData = {
assembly = "NPUSHB[ ]	/* 14 values pushed */
43 1 5 3 56 1 4 5 19 1 0 2 3 76 
MPPEM[ ]	/* MeasurePixelPerEm */
PUSHB[ ]	/* 1 value pushed */
26 
LT[ ]	/* LessThan */
IF[ ]	/* If */
NPUSHB[ ]	/* 37 values pushed */
0 3 5 3 133 0 1 4 2 4 1 2 128 0 2 0 4 2 0 126 6 1 5 5 33 77 0 4 4 33 77 0 0 0 31 0 78 
ELSE[ ]	/* Else */
MPPEM[ ]	/* MeasurePixelPerEm */
PUSHB[ ]	/* 1 value pushed */
31 
LT[ ]	/* LessThan */
IF[ ]	/* If */
NPUSHB[ ]	/* 39 values pushed */
0 3 5 3 133 0 4 5 1 5 4 1 128 0 1 2 5 1 2 126 0 2 0 5 2 0 126 6 1 5 5 33 77 0 0 0 31 0 78 
ELSE[ ]	/* Else */
NPUSHB[ ]	/* 38 values pushed */
0 3 5 3 133 0 4 5 1 5 4 1 128 0 1 2 5 1 2 126 0 2 0 5 2 0 126 0 0 0 132 6 1 5 5 33 5 78 
EIF[ ]	/* EndIf */
EIF[ ]	/* EndIf */
NPUSHB[ ]	/* 16 values pushed */
0 0 0 62 0 62 60 59 50 48 34 22 47 7 8 25 
CALL[ ]	/* CallFunction */";
};
width = 673;
}
);
note = plus;
unicode = 002B;
},
{
glyphname = comma;
lastChange = "2022-01-25 01:30:31 +0000";
layers = (
{
layerId = "D6A4831D-747C-4592-93C0-305F4CD57904";
paths = (
{
closed = 1;
nodes = (
"59 -184 OFFCURVE",
"72 -177 OFFCURVE",
"77 -167 CURVE SMOOTH",
"93 -135 OFFCURVE",
"105 -101 OFFCURVE",
"119 -68 CURVE SMOOTH",
"140 -22 OFFCURVE",
"162 23 OFFCURVE",
"186 76 CURVE",
"176 83 OFFCURVE",
"163 98 OFFCURVE",
"154 96 CURVE SMOOTH",
"135 92 OFFCURVE",
"110 84 OFFCURVE",
"103 70 CURVE SMOOTH",
"81 25 OFFCURVE",
"64 -22 OFFCURVE",
"48 -70 CURVE SMOOTH",
"26 -132 OFFCURVE",
"10 -144 OFFCURVE",
"49 -193 CURVE"
);
}
);
userData = {
assembly = "PUSHB[ ]	/* 4 values pushed */
10 2 1 50 
CALL[ ]	/* CallFunction */";
};
width = 216;
}
);
leftMetricsKey = Y;
note = comma;
rightMetricsKey = Y;
unicode = 002C;
},
{
glyphname = hyphen;
lastChange = "2021-12-23 11:40:36 +0000";
layers = (
{
layerId = "D6A4831D-747C-4592-93C0-305F4CD57904";
paths = (
{
closed = 1;
nodes = (
"329 188 OFFCURVE",
"373 201 OFFCURVE",
"388 196 CURVE",
"420 222 OFFCURVE",
"371 251 OFFCURVE",
"336 253 CURVE SMOOTH",
"262 258 OFFCURVE",
"172 257 OFFCURVE",
"98 257 CURVE SMOOTH",
"82 257 OFFCURVE",
"54 249 OFFCURVE",
"50 240 CURVE",
"50 193 OFFCURVE",
"81 200 OFFCURVE",
"120 197 CURVE SMOOTH",
"174 192 OFFCURVE",
"233 186 OFFCURVE",
"287 187 CURVE SMOOTH"
);
}
);
userData = {
assembly = "NPUSHB[ ]	/* 31 values pushed */
0 2 0 1 2 87 0 3 0 0 1 3 0 105 0 2 2 1 97 0 1 2 1 81 33 23 38 39 4 8 26 
CALL[ ]	/* CallFunction */";
};
width = 448;
}
);
leftMetricsKey = h;
note = hyphen;
rightMetricsKey = h;
unicode = 002D;
},
{
glyphname = period;
lastChange = "2022-01-20 07:12:32 +0000";
layers = (
{
layerId = "D6A4831D-747C-4592-93C0-305F4CD57904";
paths = (
{
closed = 1;
nodes = (
"120 -2 OFFCURVE",
"131 2 OFFCURVE",
"142 11 CURVE SMOOTH",
"157 22 OFFCURVE",
"171 45 OFFCURVE",
"162 66 CURVE SMOOTH",
"154 81 OFFCURVE",
"136 88 OFFCURVE",
"127 95 CURVE",
"107 90 OFFCURVE",
"94 86 OFFCURVE",
"82 82 CURVE SMOOTH",
"52 70 OFFCURVE",
"44 52 OFFCURVE",
"54 20 CURVE SMOOTH",
"62 -10 OFFCURVE",
"83 -21 OFFCURVE",
"108 -8 CURVE SMOOTH"
);
}
);
userData = {
assembly = "PUSHB[ ]	/* 6 values pushed */
19 1 0 1 1 76 
MPPEM[ ]	/* MeasurePixelPerEm */
PUSHB[ ]	/* 1 value pushed */
31 
LT[ ]	/* LessThan */
IF[ ]	/* If */
NPUSHB[ ]	/* 11 values pushed */
0 1 1 0 97 0 0 0 31 0 78 
ELSE[ ]	/* Else */
NPUSHB[ ]	/* 16 values pushed */
0 1 0 0 1 89 0 1 1 0 97 0 0 1 0 81 
EIF[ ]	/* EndIf */
PUSHB[ ]	/* 5 values pushed */
42 33 2 8 24 
CALL[ ]	/* CallFunction */";
};
width = 215;
}
);
leftMetricsKey = H;
note = period;
rightMetricsKey = H;
unicode = 002E;
},
{
glyphname = slash;
lastChange = "2021-04-24 08:00:40 +0000";
layers = (
{
layerId = "D6A4831D-747C-4592-93C0-305F4CD57904";
paths = (
{
closed = 1;
nodes = (
"118 -133 OFFCURVE",
"134 -124 OFFCURVE",
"144 -100 CURVE",
"149 -91 OFFCURVE",
"149 -79 OFFCURVE",
"151 -69 CURVE SMOOTH",
"161 -29 OFFCURVE",
"170 11 OFFCURVE",
"182 50 CURVE SMOOTH",
"200 110 OFFCURVE",
"221 169 OFFCURVE",
"239 229 CURVE SMOOTH",
"272 332 OFFCURVE",
"304 436 OFFCURVE",
"335 541 CURVE SMOOTH",
"348 583 OFFCURVE",
"359 626 OFFCURVE",
"370 669 CURVE SMOOTH",
"376 693 OFFCURVE",
"365 706 OFFCURVE",
"338 710 CURVE",
"334 705 OFFCURVE",
"329 701 OFFCURVE",
"327 695 CURVE SMOOTH",
"243 457 LINE SMOOTH",
"213 371 OFFCURVE",
"183 286 OFFCURVE",
"155 200 CURVE SMOOTH",
"125 108 OFFCURVE",
"96 17 OFFCURVE",
"68 -76 CURVE SMOOTH",
"61 -101 OFFCURVE",
"72 -119 OFFCURVE",
"96 -126 CURVE SMOOTH"
);
}
);
userData = {
assembly = "PUSHB[ ]	/* 6 values pushed */
4 1 0 1 1 76 
MPPEM[ ]	/* MeasurePixelPerEm */
PUSHB[ ]	/* 1 value pushed */
31 
LT[ ]	/* LessThan */
IF[ ]	/* If */
NPUSHB[ ]	/* 12 values pushed */
2 1 1 0 1 133 0 0 0 31 0 78 
ELSE[ ]	/* Else */
NPUSHB[ ]	/* 10 values pushed */
2 1 1 0 1 133 0 0 0 118 
EIF[ ]	/* EndIf */
PUSHB[ ]	/* 6 values pushed */
33 30 33 3 8 25 
CALL[ ]	/* CallFunction */";
};
width = 436;
}
);
note = slash;
unicode = 002F;
},
{
glyphname = zero;
lastChange = "2022-01-30 04:09:50 +0000";
layers = (
{
layerId = "D6A4831D-747C-4592-93C0-305F4CD57904";
paths = (
{
closed = 1;
nodes = (
"405 100 OFFCURVE",
"464 188 OFFCURVE",
"488 300 CURVE SMOOTH",
"516 434 OFFCURVE",
"491 510 OFFCURVE",
"384 594 CURVE SMOOTH",
"365 609 OFFCURVE",
"335 620 OFFCURVE",
"311 618 CURVE SMOOTH",
"220 612 OFFCURVE",
"142 575 OFFCURVE",
"108 486 CURVE SMOOTH",
"80 416 OFFCURVE",
"68 341 OFFCURVE",
"54 283 CURVE",
"62 222 OFFCURVE",
"63 179 OFFCURVE",
"73 137 CURVE SMOOTH",
"102 18 OFFCURVE",
"201 -38 OFFCURVE",
"311 36 CURVE SMOOTH"
);
},
{
closed = 1;
nodes = (
"223 44 OFFCURVE",
"173 55 OFFCURVE",
"156 113 CURVE SMOOTH",
"123 229 OFFCURVE",
"116 346 OFFCURVE",
"183 456 CURVE SMOOTH",
"206 495 OFFCURVE",
"231 516 OFFCURVE",
"286 500 CURVE SMOOTH",
"338 483 OFFCURVE",
"316 532 OFFCURVE",
"314 561 CURVE",
"367 558 OFFCURVE",
"413 516 OFFCURVE",
"427 456 CURVE SMOOTH",
"449 365 OFFCURVE",
"435 277 OFFCURVE",
"381 201 CURVE SMOOTH",
"350 159 OFFCURVE",
"315 118 OFFCURVE",
"275 85 CURVE SMOOTH"
);
}
);
userData = {
assembly = "PUSHB[ ]	/* 6 values pushed */
17 1 3 0 1 76 
MPPEM[ ]	/* MeasurePixelPerEm */
PUSHB[ ]	/* 1 value pushed */
29 
LT[ ]	/* LessThan */
IF[ ]	/* If */
NPUSHB[ ]	/* 19 values pushed */
0 0 0 3 2 0 3 105 0 2 2 1 97 0 1 1 31 1 78 
ELSE[ ]	/* Else */
NPUSHB[ ]	/* 24 values pushed */
0 0 0 3 2 0 3 105 0 2 1 1 2 89 0 2 2 1 97 0 1 2 1 81 
EIF[ ]	/* EndIf */
NPUSHB[ ]	/* 10 values pushed */
63 62 50 49 32 30 51 4 8 23 
CALL[ ]	/* CallFunction */";
};
width = 559;
}
);
note = zero;
unicode = 0030;
},
{
glyphname = one;
lastChange = "2022-01-30 04:05:56 +0000";
layers = (
{
layerId = "D6A4831D-747C-4592-93C0-305F4CD57904";
paths = (
{
closed = 1;
nodes = (
"319 -71 OFFCURVE",
"337 -63 OFFCURVE",
"339 -48 CURVE SMOOTH",
"346 -22 OFFCURVE",
"343 6 OFFCURVE",
"344 34 CURVE SMOOTH",
"353 211 OFFCURVE",
"361 386 OFFCURVE",
"367 560 CURVE SMOOTH",
"368 593 OFFCURVE",
"364 627 OFFCURVE",
"354 657 CURVE SMOOTH",
"339 697 OFFCURVE",
"310 706 OFFCURVE",
"278 679 CURVE SMOOTH",
"206 619 OFFCURVE",
"137 557 OFFCURVE",
"68 494 CURVE SMOOTH",
"46 474 OFFCURVE",
"50 447 OFFCURVE",
"80 444 CURVE SMOOTH",
"103 442 OFFCURVE",
"132 448 OFFCURVE",
"148 463 CURVE SMOOTH",
"195 505 OFFCURVE",
"250 554 OFFCURVE",
"293 600 CURVE",
"293 592 LINE",
"295 579 OFFCURVE",
"296 567 OFFCURVE",
"296 555 CURVE SMOOTH",
"295 354 OFFCURVE",
"291 154 OFFCURVE",
"290 -46 CURVE SMOOTH",
"290 -58 OFFCURVE",
"301 -71 OFFCURVE",
"308 -84 CURVE"
);
}
);
userData = {
assembly = "PUSHB[ ]	/* 6 values pushed */
45 1 0 1 1 76 
MPPEM[ ]	/* MeasurePixelPerEm */
PUSHB[ ]	/* 1 value pushed */
21 
LT[ ]	/* LessThan */
IF[ ]	/* If */
NPUSHB[ ]	/* 19 values pushed */
0 0 1 2 1 0 2 128 0 1 1 36 77 0 2 2 40 2 78 
ELSE[ ]	/* Else */
MPPEM[ ]	/* MeasurePixelPerEm */
PUSHB[ ]	/* 1 value pushed */
36 
LT[ ]	/* LessThan */
IF[ ]	/* If */
NPUSHB[ ]	/* 16 values pushed */
0 1 0 1 133 0 0 2 0 133 0 2 2 40 2 78 
ELSE[ ]	/* Else */
NPUSHB[ ]	/* 14 values pushed */
0 1 0 1 133 0 0 2 0 133 0 2 2 118 
EIF[ ]	/* EndIf */
EIF[ ]	/* EndIf */
PUSHB[ ]	/* 7 values pushed */
37 35 40 39 3 8 24 
CALL[ ]	/* CallFunction */";
};
width = 447;
}
);
leftMetricsKey = S;
note = one;
unicode = 0031;
},
{
glyphname = two;
lastChange = "2021-12-21 20:37:05 +0000";
layers = (
{
layerId = "D6A4831D-747C-4592-93C0-305F4CD57904";
paths = (
{
closed = 1;
nodes = (
"266 6 OFFCURVE",
"339 11 OFFCURVE",
"412 17 CURVE SMOOTH",
"425 18 OFFCURVE",
"425 18 OFFCURVE",
"450 26 CURVE",
"471 58 OFFCURVE",
"459 70 OFFCURVE",
"396 66 CURVE SMOOTH",
"346 63 OFFCURVE",
"295 62 OFFCURVE",
"244 61 CURVE SMOOTH",
"205 60 OFFCURVE",
"162 62 OFFCURVE",
"122 62 CURVE",
"117 90 OFFCURVE",
"125 90 OFFCURVE",
"149 118 CURVE SMOOTH",
"208 196 OFFCURVE",
"250 251 OFFCURVE",
"303 331 CURVE SMOOTH",
"345 392 OFFCURVE",
"379 458 OFFCURVE",
"409 525 CURVE SMOOTH",
"457 633 OFFCURVE",
"398 719 OFFCURVE",
"281 721 CURVE SMOOTH",
"213 722 OFFCURVE",
"152 701 OFFCURVE",
"94 669 CURVE SMOOTH",
"75 659 OFFCURVE",
"45 652 OFFCURVE",
"65 619 CURVE SMOOTH",
"82 592 OFFCURVE",
"105 592 OFFCURVE",
"128 612 CURVE SMOOTH",
"173 647 OFFCURVE",
"226 656 OFFCURVE",
"279 661 CURVE SMOOTH",
"350 665 OFFCURVE",
"378 632 OFFCURVE",
"354 564 CURVE SMOOTH",
"334 508 OFFCURVE",
"311 453 OFFCURVE",
"278 405 CURVE SMOOTH",
"212 306 OFFCURVE",
"160 237 OFFCURVE",
"91 140 CURVE SMOOTH",
"73 116 OFFCURVE",
"46 86 OFFCURVE",
"50 62 CURVE SMOOTH",
"54 22 OFFCURVE",
"97 12 OFFCURVE",
"133 6 CURVE SMOOTH",
"153 3 OFFCURVE",
"175 0 OFFCURVE",
"193 2 CURVE SMOOTH"
);
}
);
userData = {
assembly = "PUSHB[ ]	/* 6 values pushed */
1 1 5 3 1 76 
MPPEM[ ]	/* MeasurePixelPerEm */
PUSHB[ ]	/* 1 value pushed */
39 
LT[ ]	/* LessThan */
IF[ ]	/* If */
NPUSHB[ ]	/* 34 values pushed */
0 1 0 4 0 1 4 128 0 4 3 0 4 3 126 0 2 0 0 1 2 0 105 0 3 3 5 97 0 5 5 31 5 78 
ELSE[ ]	/* Else */
NPUSHB[ ]	/* 39 values pushed */
0 1 0 4 0 1 4 128 0 4 3 0 4 3 126 0 2 0 0 1 2 0 105 0 3 5 5 3 89 0 3 3 5 97 0 5 3 5 81 
EIF[ ]	/* EndIf */
NPUSHB[ ]	/* 9 values pushed */
39 36 25 41 23 42 6 8 28 
CALL[ ]	/* CallFunction */";
};
width = 490;
}
);
leftMetricsKey = H;
note = two;
rightMetricsKey = f;
unicode = 0032;
},
{
glyphname = three;
lastChange = "2021-12-21 20:32:27 +0000";
layers = (
{
layerId = "D6A4831D-747C-4592-93C0-305F4CD57904";
paths = (
{
closed = 1;
nodes = (
"248 -39 OFFCURVE",
"345 56 OFFCURVE",
"402 190 CURVE SMOOTH",
"433 267 OFFCURVE",
"376 373 OFFCURVE",
"308 387 CURVE SMOOTH",
"287 394 OFFCURVE",
"267 400 OFFCURVE",
"245 405 CURVE",
"241 410 OFFCURVE",
"239 416 OFFCURVE",
"235 420 CURVE",
"260 439 OFFCURVE",
"287 456 OFFCURVE",
"308 478 CURVE SMOOTH",
"341 516 OFFCURVE",
"379 552 OFFCURVE",
"408 594 CURVE SMOOTH",
"436 639 OFFCURVE",
"420 673 OFFCURVE",
"367 680 CURVE SMOOTH",
"324 684 OFFCURVE",
"279 682 OFFCURVE",
"238 680 CURVE SMOOTH",
"200 677 OFFCURVE",
"162 667 OFFCURVE",
"126 663 CURVE SMOOTH",
"110 661 OFFCURVE",
"85 668 OFFCURVE",
"88 640 CURVE SMOOTH",
"89 614 OFFCURVE",
"102 595 OFFCURVE",
"134 601 CURVE SMOOTH",
"165 606 OFFCURVE",
"196 613 OFFCURVE",
"229 618 CURVE SMOOTH",
"268 623 OFFCURVE",
"309 628 OFFCURVE",
"357 634 CURVE",
"347 615 OFFCURVE",
"345 609 OFFCURVE",
"340 605 CURVE SMOOTH",
"275 538 OFFCURVE",
"210 470 OFFCURVE",
"142 405 CURVE SMOOTH",
"122 386 OFFCURVE",
"116 372 OFFCURVE",
"129 348 CURVE SMOOTH",
"140 327 OFFCURVE",
"158 321 OFFCURVE",
"182 328 CURVE SMOOTH",
"211 338 OFFCURVE",
"241 343 OFFCURVE",
"271 343 CURVE SMOOTH",
"324 340 OFFCURVE",
"360 305 OFFCURVE",
"350 252 CURVE SMOOTH",
"341 210 OFFCURVE",
"321 168 OFFCURVE",
"298 135 CURVE SMOOTH",
"238 48 OFFCURVE",
"162 -21 OFFCURVE",
"53 -38 CURVE SMOOTH",
"48 -39 OFFCURVE",
"38 -57 OFFCURVE",
"40 -64 CURVE SMOOTH",
"53 -98 OFFCURVE",
"83 -91 OFFCURVE",
"105 -81 CURVE SMOOTH"
);
}
);
userData = {
assembly = "NPUSHB[ ]	/* 10 values pushed */
60 1 1 4 4 1 0 2 2 76 
MPPEM[ ]	/* MeasurePixelPerEm */
PUSHB[ ]	/* 1 value pushed */
21 
LT[ ]	/* LessThan */
IF[ ]	/* If */
NPUSHB[ ]	/* 37 values pushed */
0 4 3 1 3 4 1 128 0 1 2 3 1 2 126 0 2 0 3 2 0 126 0 0 0 132 0 3 3 5 97 0 5 5 32 3 78 
ELSE[ ]	/* Else */
NPUSHB[ ]	/* 42 values pushed */
0 4 3 1 3 4 1 128 0 1 2 3 1 2 126 0 2 0 3 2 0 126 0 0 0 132 0 5 3 3 5 89 0 5 5 3 97 0 3 5 3 81 
EIF[ ]	/* EndIf */
NPUSHB[ ]	/* 9 values pushed */
40 35 29 35 44 33 6 8 28 
CALL[ ]	/* CallFunction */";
};
width = 452;
}
);
leftMetricsKey = "=|E";
note = three;
rightMetricsKey = f;
unicode = 0033;
},
{
glyphname = four;
lastChange = "2021-12-21 20:31:14 +0000";
layers = (
{
layerId = "D6A4831D-747C-4592-93C0-305F4CD57904";
paths = (
{
closed = 1;
nodes = (
"364 -71 OFFCURVE",
"351 -31 OFFCURVE",
"350 -6 CURVE SMOOTH",
"348 51 OFFCURVE",
"342 107 OFFCURVE",
"342 164 CURVE SMOOTH",
"342 178 OFFCURVE",
"335 201 OFFCURVE",
"347 204 CURVE SMOOTH",
"397 215 OFFCURVE",
"470 220 OFFCURVE",
"520 230 CURVE SMOOTH",
"532 232 OFFCURVE",
"541 243 OFFCURVE",
"552 250 CURVE",
"545 259 OFFCURVE",
"539 275 OFFCURVE",
"531 276 CURVE SMOOTH",
"510 280 OFFCURVE",
"488 279 OFFCURVE",
"467 276 CURVE SMOOTH",
"425 270 OFFCURVE",
"384 260 OFFCURVE",
"336 251 CURVE",
"336 469 LINE SMOOTH",
"336 540 OFFCURVE",
"336 610 OFFCURVE",
"336 674 CURVE",
"380 720 LINE",
"346 769 OFFCURVE",
"325 772 OFFCURVE",
"298 740 CURVE SMOOTH",
"261 696 OFFCURVE",
"225 652 OFFCURVE",
"192 605 CURVE SMOOTH",
"114 497 OFFCURVE",
"51 381 OFFCURVE",
"31 246 CURVE SMOOTH",
"28 226 OFFCURVE",
"34 199 OFFCURVE",
"46 183 CURVE SMOOTH",
"86 129 OFFCURVE",
"142 148 OFFCURVE",
"194 158 CURVE SMOOTH",
"221 163 OFFCURVE",
"246 174 OFFCURVE",
"273 183 CURVE",
"300 89 OFFCURVE",
"281 -17 OFFCURVE",
"335 -82 CURVE"
);
},
{
closed = 1;
nodes = (
"117 190 OFFCURVE",
"87 197 OFFCURVE",
"91 241 CURVE SMOOTH",
"106 377 OFFCURVE",
"179 486 OFFCURVE",
"256 593 CURVE",
"261 591 OFFCURVE",
"266 606 OFFCURVE",
"271 605 CURVE",
"271 351 OFFCURVE",
"271 341 OFFCURVE",
"271 331 CURVE SMOOTH",
"271 299 OFFCURVE",
"283 251 OFFCURVE",
"268 239 CURVE SMOOTH",
"236 214 OFFCURVE",
"190 206 OFFCURVE",
"148 197 CURVE SMOOTH"
);
}
);
userData = {
assembly = "NPUSHB[ ]	/* 17 values pushed */
78 75 2 0 3 65 9 2 1 0 2 76 30 18 2 2 73 
MPPEM[ ]	/* MeasurePixelPerEm */
PUSHB[ ]	/* 1 value pushed */
21 
LT[ ]	/* LessThan */
IF[ ]	/* If */
NPUSHB[ ]	/* 23 values pushed */
0 1 0 2 0 1 2 128 0 2 2 132 0 3 3 32 77 0 0 0 33 0 78 
ELSE[ ]	/* Else */
MPPEM[ ]	/* MeasurePixelPerEm */
PUSHB[ ]	/* 1 value pushed */
44 
LT[ ]	/* LessThan */
IF[ ]	/* If */
NPUSHB[ ]	/* 25 values pushed */
0 0 3 1 3 0 1 128 0 1 2 3 1 2 126 0 2 2 132 0 3 3 32 3 78 
ELSE[ ]	/* Else */
NPUSHB[ ]	/* 19 values pushed */
0 3 0 3 133 0 0 1 0 133 0 1 2 1 133 0 2 2 118 
EIF[ ]	/* EndIf */
EIF[ ]	/* EndIf */
NPUSHB[ ]	/* 10 values pushed */
53 51 39 37 34 32 38 4 8 23 
CALL[ ]	/* CallFunction */";
};
width = 582;
}
);
note = four;
unicode = 0034;
},
{
glyphname = five;
lastChange = "2021-12-08 01:37:47 +0000";
layers = (
{
layerId = "D6A4831D-747C-4592-93C0-305F4CD57904";
paths = (
{
closed = 1;
nodes = (
"331 -35 OFFCURVE",
"440 67 OFFCURVE",
"444 258 CURVE SMOOTH",
"447 425 OFFCURVE",
"368 508 OFFCURVE",
"197 427 CURVE",
"200 460 OFFCURVE",
"210 497 OFFCURVE",
"214 524 CURVE SMOOTH",
"224 592 OFFCURVE",
"253 620 OFFCURVE",
"321 629 CURVE",
"324 630 OFFCURVE",
"327 629 OFFCURVE",
"330 630 CURVE SMOOTH",
"398 642 OFFCURVE",
"466 653 OFFCURVE",
"533 668 CURVE SMOOTH",
"545 671 OFFCURVE",
"563 695 OFFCURVE",
"560 703 CURVE SMOOTH",
"555 716 OFFCURVE",
"538 727 OFFCURVE",
"523 733 CURVE SMOOTH",
"514 738 OFFCURVE",
"499 733 OFFCURVE",
"487 730 CURVE SMOOTH",
"384 700 OFFCURVE",
"281 669 OFFCURVE",
"178 640 CURVE SMOOTH",
"150 632 OFFCURVE",
"143 621 OFFCURVE",
"141 589 CURVE SMOOTH",
"134 508 OFFCURVE",
"121 427 OFFCURVE",
"101 349 CURVE SMOOTH",
"94 319 OFFCURVE",
"90 298 OFFCURVE",
"117 283 CURVE SMOOTH",
"145 267 OFFCURVE",
"161 282 OFFCURVE",
"176 307 CURVE SMOOTH",
"202 351 OFFCURVE",
"236 385 OFFCURVE",
"286 401 CURVE SMOOTH",
"326 414 OFFCURVE",
"350 405 OFFCURVE",
"363 363 CURVE SMOOTH",
"397 260 OFFCURVE",
"376 164 OFFCURVE",
"318 77 CURVE SMOOTH",
"285 29 OFFCURVE",
"235 8 OFFCURVE",
"178 -9 CURVE SMOOTH",
"142 -19 OFFCURVE",
"119 -6 OFFCURVE",
"92 10 CURVE SMOOTH",
"63 28 OFFCURVE",
"38 -29 OFFCURVE",
"67 -40 CURVE SMOOTH",
"97 -52 OFFCURVE",
"133 -71 OFFCURVE",
"162 -65 CURVE SMOOTH"
);
}
);
userData = {
assembly = "NPUSHB[ ]	/* 10 values pushed */
48 1 1 4 25 1 0 1 2 76 
MPPEM[ ]	/* MeasurePixelPerEm */
PUSHB[ ]	/* 1 value pushed */
21 
LT[ ]	/* LessThan */
IF[ ]	/* If */
NPUSHB[ ]	/* 23 values pushed */
0 5 5 32 77 0 4 4 32 77 3 2 2 1 1 0 97 0 0 0 31 0 78 
ELSE[ ]	/* Else */
MPPEM[ ]	/* MeasurePixelPerEm */
PUSHB[ ]	/* 1 value pushed */
41 
LT[ ]	/* LessThan */
IF[ ]	/* If */
NPUSHB[ ]	/* 26 values pushed */
0 4 5 1 5 4 1 128 0 5 5 32 77 3 2 2 1 1 0 97 0 0 0 31 0 78 
ELSE[ ]	/* Else */
NPUSHB[ ]	/* 23 values pushed */
0 5 4 5 133 0 4 1 4 133 3 2 2 1 1 0 97 0 0 0 31 0 78 
EIF[ ]	/* EndIf */
EIF[ ]	/* EndIf */
NPUSHB[ ]	/* 15 values pushed */
62 61 57 55 35 33 31 29 28 27 24 22 6 8 22 
CALL[ ]	/* CallFunction */";
};
width = 600;
}
);
leftMetricsKey = S;
note = five;
rightMetricsKey = F;
unicode = 0035;
},
{
glyphname = six;
lastChange = "2022-01-30 04:07:21 +0000";
layers = (
{
layerId = "D6A4831D-747C-4592-93C0-305F4CD57904";
paths = (
{
closed = 1;
nodes = (
"242 11 OFFCURVE",
"340 28 OFFCURVE",
"413 95 CURVE SMOOTH",
"463 142 OFFCURVE",
"476 203 OFFCURVE",
"445 244 CURVE SMOOTH",
"408 293 OFFCURVE",
"331 311 OFFCURVE",
"279 273 CURVE SMOOTH",
"232 239 OFFCURVE",
"195 191 OFFCURVE",
"147 143 CURVE",
"142 158 OFFCURVE",
"131 177 OFFCURVE",
"131 196 CURVE SMOOTH",
"126 351 OFFCURVE",
"197 475 OFFCURVE",
"299 583 CURVE SMOOTH",
"319 604 OFFCURVE",
"332 620 OFFCURVE",
"311 638 CURVE SMOOTH",
"293 654 OFFCURVE",
"269 660 OFFCURVE",
"243 634 CURVE SMOOTH",
"149 538 OFFCURVE",
"98 420 OFFCURVE",
"66 293 CURVE SMOOTH",
"43 199 OFFCURVE",
"88 97 OFFCURVE",
"166 53 CURVE SMOOTH"
);
},
{
closed = 1;
nodes = (
"214 134 OFFCURVE",
"237 164 OFFCURVE",
"263 190 CURVE SMOOTH",
"283 209 OFFCURVE",
"306 226 OFFCURVE",
"331 235 CURVE SMOOTH",
"346 241 OFFCURVE",
"376 235 OFFCURVE",
"384 224 CURVE SMOOTH",
"393 212 OFFCURVE",
"391 184 OFFCURVE",
"383 168 CURVE SMOOTH",
"352 106 OFFCURVE",
"253 74 OFFCURVE",
"187 102 CURVE"
);
}
);
userData = {
assembly = "NPUSHB[ ]	/* 10 values pushed */
15 1 1 0 55 1 5 2 2 76 
MPPEM[ ]	/* MeasurePixelPerEm */
PUSHB[ ]	/* 1 value pushed */
44 
LT[ ]	/* LessThan */
IF[ ]	/* If */
NPUSHB[ ]	/* 37 values pushed */
0 2 6 5 6 2 5 128 0 3 0 6 2 3 6 105 0 1 1 0 97 0 0 0 32 77 0 5 5 4 97 0 4 4 31 4 78 
ELSE[ ]	/* Else */
NPUSHB[ ]	/* 34 values pushed */
0 2 6 5 6 2 5 128 0 3 0 6 2 3 6 105 0 5 0 4 5 4 101 0 1 1 0 97 0 0 0 32 1 78 
EIF[ ]	/* EndIf */
NPUSHB[ ]	/* 10 values pushed */
21 38 39 38 44 38 41 7 8 29 
CALL[ ]	/* CallFunction */";
};
width = 512;
}
);
note = six;
unicode = 0036;
},
{
glyphname = seven;
lastChange = "2022-01-30 04:08:20 +0000";
layers = (
{
layerId = "D6A4831D-747C-4592-93C0-305F4CD57904";
paths = (
{
closed = 1;
nodes = (
"395 624 OFFCURVE",
"324 629 OFFCURVE",
"253 629 CURVE",
"199 629 OFFCURVE",
"145 623 OFFCURVE",
"91 619 CURVE",
"55 617 OFFCURVE",
"54 647 OFFCURVE",
"50 669 CURVE",
"49 677 OFFCURVE",
"71 696 OFFCURVE",
"82 696 CURVE",
"220 693 OFFCURVE",
"359 688 OFFCURVE",
"497 681 CURVE",
"570 677 OFFCURVE",
"584 653 OFFCURVE",
"548 591 CURVE",
"493 495 OFFCURVE",
"431 403 OFFCURVE",
"375 308 CURVE",
"313 203 OFFCURVE",
"253 97 OFFCURVE",
"195 -9 CURVE",
"182 -34 OFFCURVE",
"170 -66 OFFCURVE",
"173 -92 CURVE",
"177 -122 OFFCURVE",
"165 -139 OFFCURVE",
"144 -136 CURVE",
"128 -134 OFFCURVE",
"101 -107 OFFCURVE",
"103 -94 CURVE",
"107 -53 OFFCURVE",
"115 -10 OFFCURVE",
"135 25 CURVE",
"205 155 OFFCURVE",
"281 282 OFFCURVE",
"355 410 CURVE",
"393 476 OFFCURVE",
"432 541 OFFCURVE",
"479 621 CURVE"
);
}
);
userData = {
assembly = "NPUSHB[ ]	/* 11 values pushed */
4 1 3 1 49 35 2 2 0 2 76 
MPPEM[ ]	/* MeasurePixelPerEm */
PUSHB[ ]	/* 1 value pushed */
36 
LT[ ]	/* LessThan */
IF[ ]	/* If */
NPUSHB[ ]	/* 24 values pushed */
0 0 3 2 3 0 2 128 0 3 3 1 97 0 1 1 32 77 0 2 2 31 2 78 
ELSE[ ]	/* Else */
NPUSHB[ ]	/* 23 values pushed */
0 0 3 2 3 0 2 128 0 2 2 132 0 3 3 1 97 0 1 1 32 3 78 
EIF[ ]	/* EndIf */
NPUSHB[ ]	/* 9 values pushed */
53 51 32 30 40 32 4 8 24 
CALL[ ]	/* CallFunction */";
};
width = 607;
}
);
note = seven;
unicode = 0037;
},
{
glyphname = eight;
lastChange = "2022-02-01 21:58:50 +0000";
layers = (
{
layerId = "D6A4831D-747C-4592-93C0-305F4CD57904";
paths = (
{
closed = 1;
nodes = (
"257 -16 OFFCURVE",
"279 -14 OFFCURVE",
"301 -9 CURVE SMOOTH",
"421 17 OFFCURVE",
"490 101 OFFCURVE",
"490 215 CURVE SMOOTH",
"490 229 OFFCURVE",
"489 244 OFFCURVE",
"487 259 CURVE SMOOTH",
"473 348 OFFCURVE",
"438 421 OFFCURVE",
"352 462 CURVE",
"382 489 OFFCURVE",
"396 501 OFFCURVE",
"421 525 CURVE SMOOTH",
"445 548 OFFCURVE",
"457 572 OFFCURVE",
"457 595 CURVE SMOOTH",
"457 622 OFFCURVE",
"440 647 OFFCURVE",
"406 665 CURVE SMOOTH",
"368 685 OFFCURVE",
"327 696 OFFCURVE",
"288 696 CURVE SMOOTH",
"250 696 OFFCURVE",
"212 686 OFFCURVE",
"179 665 CURVE SMOOTH",
"153 648 OFFCURVE",
"120 631 OFFCURVE",
"107 595 CURVE",
"100 563 OFFCURVE",
"96 542 OFFCURVE",
"96 525 CURVE SMOOTH",
"96 490 OFFCURVE",
"116 476 OFFCURVE",
"179 433 CURVE",
"169 418 OFFCURVE",
"159 402 OFFCURVE",
"150 387 CURVE SMOOTH",
"126 341 OFFCURVE",
"96 297 OFFCURVE",
"78 249 CURVE SMOOTH",
"66 218 OFFCURVE",
"59 187 OFFCURVE",
"59 157 CURVE SMOOTH",
"59 117 OFFCURVE",
"71 78 OFFCURVE",
"101 43 CURVE SMOOTH",
"138 0 OFFCURVE",
"184 -16 OFFCURVE",
"236 -16 CURVE SMOOTH"
);
},
{
closed = 1;
nodes = (
"170 45 OFFCURVE",
"127 81 OFFCURVE",
"127 141 CURVE SMOOTH",
"127 257 OFFCURVE",
"199 341 OFFCURVE",
"270 422 CURVE SMOOTH",
"275 427 OFFCURVE",
"285 430 OFFCURVE",
"293 430 CURVE SMOOTH",
"295 430 OFFCURVE",
"297 429 OFFCURVE",
"299 429 CURVE SMOOTH",
"364 412 OFFCURVE",
"439 304 OFFCURVE",
"436 236 CURVE SMOOTH",
"430 131 OFFCURVE",
"338 45 OFFCURVE",
"236 45 CURVE SMOOTH"
);
},
{
closed = 1;
nodes = (
"216 497 OFFCURVE",
"200 513 OFFCURVE",
"179 526 CURVE SMOOTH",
"173 530 OFFCURVE",
"170 535 OFFCURVE",
"170 541 CURVE SMOOTH",
"170 577 OFFCURVE",
"263 648 OFFCURVE",
"316 648 CURVE SMOOTH",
"326 648 OFFCURVE",
"334 646 OFFCURVE",
"340 640 CURVE SMOOTH",
"369 613 LINE SMOOTH",
"375 608 OFFCURVE",
"377 601 OFFCURVE",
"377 594 CURVE SMOOTH",
"377 572 OFFCURVE",
"351 544 OFFCURVE",
"333 532 CURVE SMOOTH",
"313 520 OFFCURVE",
"274 497 OFFCURVE",
"244 497 CURVE SMOOTH"
);
}
);
userData = {
assembly = "NPUSHB[ ]	/* 56 values pushed */
20 1 2 3 45 43 2 3 4 2 2 76 0 2 3 4 3 2 4 128 0 0 5 1 3 2 0 3 105 0 4 4 1 97 0 1 1 40 1 78 50 50 82 80 50 65 50 64 57 55 40 38 44 6 8 23 
CALL[ ]	/* CallFunction */";
};
width = 564;
}
);
note = eight;
rightMetricsKey = "=eight";
unicode = 0038;
},
{
glyphname = nine;
lastChange = "2022-02-01 21:59:30 +0000";
layers = (
{
layerId = "D6A4831D-747C-4592-93C0-305F4CD57904";
paths = (
{
closed = 1;
nodes = (
"149 -40 OFFCURVE",
"168 -24 OFFCURVE",
"182 -9 CURVE SMOOTH",
"289 105 OFFCURVE",
"359 240 OFFCURVE",
"408 386 CURVE SMOOTH",
"438 476 OFFCURVE",
"417 559 OFFCURVE",
"348 624 CURVE SMOOTH",
"260 706 OFFCURVE",
"120 710 OFFCURVE",
"67 575 CURVE SMOOTH",
"47 523 OFFCURVE",
"47 460 OFFCURVE",
"54 404 CURVE SMOOTH",
"65 321 OFFCURVE",
"137 263 OFFCURVE",
"220 254 CURVE SMOOTH",
"248 251 OFFCURVE",
"266 257 OFFCURVE",
"258 298 CURVE",
"203 309 OFFCURVE",
"156 310 OFFCURVE",
"130 366 CURVE SMOOTH",
"100 432 OFFCURVE",
"111 493 OFFCURVE",
"144 551 CURVE SMOOTH",
"171 598 OFFCURVE",
"232 625 OFFCURVE",
"269 613 CURVE SMOOTH",
"320 597 OFFCURVE",
"354 547 OFFCURVE",
"351 486 CURVE SMOOTH",
"349 453 OFFCURVE",
"345 417 OFFCURVE",
"331 387 CURVE SMOOTH",
"297 309 OFFCURVE",
"266 230 OFFCURVE",
"220 158 CURVE SMOOTH",
"186 104 OFFCURVE",
"138 62 OFFCURVE",
"97 13 CURVE SMOOTH",
"89 3 OFFCURVE",
"76 -22 OFFCURVE",
"79 -25 CURVE",
"94 -35 OFFCURVE",
"115 -48 OFFCURVE",
"130 -44 CURVE SMOOTH"
);
}
);
userData = {
assembly = "NPUSHB[ ]	/* 70 values pushed */
23 8 2 1 2 1 76 0 7 0 2 0 7 2 128 0 2 1 0 2 1 126 0 4 1 5 1 4 5 128 0 3 5 3 134 0 6 0 0 7 6 0 105 0 1 4 5 1 89 0 1 1 5 97 0 5 1 5 81 40 40 35 42 45 36 41 18 8 8 30 
CALL[ ]	/* CallFunction */";
};
width = 491;
}
);
leftMetricsKey = I;
note = nine;
rightMetricsKey = O;
unicode = 0039;
},
{
glyphname = colon;
lastChange = "2021-04-26 20:24:30 +0000";
layers = (
{
layerId = "D6A4831D-747C-4592-93C0-305F4CD57904";
paths = (
{
closed = 1;
nodes = (
"148 432 OFFCURVE",
"162 461 OFFCURVE",
"157 493 CURVE SMOOTH",
"154 508 OFFCURVE",
"139 521 OFFCURVE",
"120 547 CURVE",
"96 520 OFFCURVE",
"70 503 OFFCURVE",
"71 487 CURVE SMOOTH",
"72 469 OFFCURVE",
"95 442 OFFCURVE",
"112 439 CURVE SMOOTH"
);
},
{
closed = 1;
nodes = (
"162 106 OFFCURVE",
"179 129 OFFCURVE",
"203 148 CURVE",
"181 166 OFFCURVE",
"167 186 OFFCURVE",
"155 184 CURVE SMOOTH",
"133 182 OFFCURVE",
"94 187 OFFCURVE",
"102 149 CURVE SMOOTH",
"105 132 OFFCURVE",
"132 114 OFFCURVE",
"151 108 CURVE"
);
}
);
userData = {
assembly = "NPUSHB[ ]	/* 29 values pushed */
36 35 2 2 1 1 76 0 0 1 0 133 0 1 2 1 133 0 2 2 34 2 78 47 37 33 3 8 25 
CALL[ ]	/* CallFunction */";
};
width = 267;
}
);
note = colon;
unicode = 003A;
},
{
glyphname = semicolon;
lastChange = "2021-04-26 20:25:28 +0000";
layers = (
{
layerId = "D6A4831D-747C-4592-93C0-305F4CD57904";
paths = (
{
closed = 1;
nodes = (
"81 -200 OFFCURVE",
"88 -150 OFFCURVE",
"107 -111 CURVE SMOOTH",
"132 -54 OFFCURVE",
"159 3 OFFCURVE",
"185 60 CURVE SMOOTH",
"213 117 LINE",
"196 132 OFFCURVE",
"183 150 OFFCURVE",
"167 154 CURVE SMOOTH",
"152 158 OFFCURVE",
"124 149 OFFCURVE",
"119 138 CURVE SMOOTH",
"85 49 OFFCURVE",
"53 -43 OFFCURVE",
"23 -135 CURVE SMOOTH",
"20 -147 OFFCURVE",
"27 -173 OFFCURVE",
"37 -178 CURVE SMOOTH"
);
},
{
closed = 1;
nodes = (
"149 361 OFFCURVE",
"163 379 OFFCURVE",
"172 384 CURVE",
"169 431 OFFCURVE",
"146 442 OFFCURVE",
"119 438 CURVE SMOOTH",
"103 435 OFFCURVE",
"78 419 OFFCURVE",
"77 408 CURVE SMOOTH",
"75 371 OFFCURVE",
"110 366 OFFCURVE",
"137 363 CURVE SMOOTH"
);
}
);
userData = {
assembly = "PUSHB[ ]	/* 6 values pushed */
36 24 15 8 2 50 
CALL[ ]	/* CallFunction */";
};
width = 230;
}
);
note = semicolon;
unicode = 003B;
},
{
glyphname = less;
lastChange = "2021-11-28 08:30:32 +0000";
layers = (
{
layerId = "D6A4831D-747C-4592-93C0-305F4CD57904";
paths = (
{
closed = 1;
nodes = (
"568 79 OFFCURVE",
"584 83 OFFCURVE",
"601 101 CURVE",
"601 127 OFFCURVE",
"562 133 OFFCURVE",
"542 140 CURVE SMOOTH",
"477 164 OFFCURVE",
"285 249 OFFCURVE",
"247 271 CURVE SMOOTH",
"224 284 OFFCURVE",
"443 415 OFFCURVE",
"509 454 CURVE SMOOTH",
"528 467 OFFCURVE",
"554 477 OFFCURVE",
"570 493 CURVE SMOOTH",
"578 500 OFFCURVE",
"610 559 OFFCURVE",
"524 541 CURVE SMOOTH",
"480 531 OFFCURVE",
"465 515 OFFCURVE",
"439 496 CURVE SMOOTH",
"333 426 OFFCURVE",
"228 356 OFFCURVE",
"119 284 CURVE",
"174 239 OFFCURVE",
"247 185 OFFCURVE",
"302 154 CURVE SMOOTH",
"336 134 OFFCURVE",
"487 82 OFFCURVE",
"551 80 CURVE SMOOTH"
);
}
);
userData = {
assembly = "PUSHB[ ]	/* 6 values pushed */
2 1 0 3 1 76 
MPPEM[ ]	/* MeasurePixelPerEm */
PUSHB[ ]	/* 1 value pushed */
21 
LT[ ]	/* LessThan */
IF[ ]	/* If */
NPUSHB[ ]	/* 21 values pushed */
0 2 0 1 0 2 1 128 0 0 0 1 0 1 101 0 3 3 36 3 78 
ELSE[ ]	/* Else */
NPUSHB[ ]	/* 29 values pushed */
0 3 0 3 133 0 2 0 1 0 2 1 128 0 0 2 1 0 89 0 0 0 1 97 0 1 0 1 81 
EIF[ ]	/* EndIf */
PUSHB[ ]	/* 7 values pushed */
44 35 40 36 4 8 26 
CALL[ ]	/* CallFunction */";
};
width = 668;
}
);
note = less;
unicode = 003C;
},
{
glyphname = equal;
lastChange = "2021-11-28 08:30:00 +0000";
layers = (
{
layerId = "D6A4831D-747C-4592-93C0-305F4CD57904";
paths = (
{
closed = 1;
nodes = (
"476 257 LINE",
"488 258 OFFCURVE",
"548 254 OFFCURVE",
"556 250 CURVE",
"573 240 OFFCURVE",
"581 222 OFFCURVE",
"576 203 CURVE",
"573 184 OFFCURVE",
"556 183 OFFCURVE",
"542 183 CURVE",
"416 181 OFFCURVE",
"338 190 OFFCURVE",
"213 187 CURVE",
"186 189 OFFCURVE",
"158 185 OFFCURVE",
"131 184 CURVE",
"107 184 OFFCURVE",
"86 219 OFFCURVE",
"99 244 CURVE",
"103 249 OFFCURVE",
"116 255 OFFCURVE",
"125 255 CURVE"
);
},
{
closed = 1;
nodes = (
"154 337 OFFCURVE",
"128 331 CURVE SMOOTH",
"117 328 OFFCURVE",
"96 355 OFFCURVE",
"95 373 CURVE SMOOTH",
"94 392 OFFCURVE",
"109 411 OFFCURVE",
"127 410 CURVE SMOOTH",
"168 408 OFFCURVE",
"209 402 OFFCURVE",
"250 402 CURVE SMOOTH",
"305 402 OFFCURVE",
"361 408 OFFCURVE",
"415 408 CURVE SMOOTH",
"457 408 OFFCURVE",
"498 404 OFFCURVE",
"539 402 CURVE SMOOTH",
"553 402 OFFCURVE",
"562 392 OFFCURVE",
"569 376 CURVE SMOOTH",
"572 369 OFFCURVE",
"574 356 OFFCURVE",
"570 350 CURVE SMOOTH",
"567 343 OFFCURVE",
"556 335 OFFCURVE",
"548 337 CURVE SMOOTH",
"476 353 OFFCURVE",
"376 343 OFFCURVE",
"289 339 CURVE SMOOTH",
"271 336 OFFCURVE"
);
}
);
userData = {
assembly = "NPUSHB[ ]	/* 58 values pushed */
12 2 2 0 1 1 76 6 1 1 0 0 3 1 0 105 0 2 4 5 2 89 0 3 0 4 5 3 4 105 0 2 2 5 97 0 5 2 5 81 0 0 46 44 42 41 35 33 27 25 0 17 0 14 53 7 8 23 
CALL[ ]	/* CallFunction */";
};
width = 644;
}
);
note = equal;
unicode = 003D;
},
{
glyphname = greater;
lastChange = "2022-01-25 01:29:57 +0000";
layers = (
{
layerId = "D6A4831D-747C-4592-93C0-305F4CD57904";
paths = (
{
closed = 1;
nodes = (
"336 350 OFFCURVE",
"216 442 OFFCURVE",
"108 465 CURVE",
"91 469 OFFCURVE",
"53 480 OFFCURVE",
"62 501 CURVE",
"80 520 OFFCURVE",
"98 525 OFFCURVE",
"119 524 CURVE",
"145 524 OFFCURVE",
"207 508 OFFCURVE",
"228 495 CURVE",
"321 435 OFFCURVE",
"414 372 OFFCURVE",
"503 307 CURVE",
"543 277 OFFCURVE",
"521 258 OFFCURVE",
"482 240 CURVE",
"362 176 OFFCURVE",
"243 111 OFFCURVE",
"128 40 CURVE",
"90 18 OFFCURVE",
"62 31 OFFCURVE",
"36 51 CURVE",
"3 76 OFFCURVE",
"55 85 OFFCURVE",
"84 103 CURVE",
"173 152 OFFCURVE",
"261 200 OFFCURVE",
"349 249 CURVE",
"365 258 OFFCURVE",
"381 267 OFFCURVE",
"405 279 CURVE"
);
}
);
userData = {
assembly = "PUSHB[ ]	/* 6 values pushed */
27 1 0 1 1 76 
MPPEM[ ]	/* MeasurePixelPerEm */
PUSHB[ ]	/* 1 value pushed */
21 
LT[ ]	/* LessThan */
IF[ ]	/* If */
NPUSHB[ ]	/* 11 values pushed */
0 0 1 0 134 0 1 1 30 1 78 
ELSE[ ]	/* Else */
NPUSHB[ ]	/* 9 values pushed */
0 1 0 1 133 0 0 0 118 
EIF[ ]	/* EndIf */
PUSHB[ ]	/* 6 values pushed */
41 39 45 2 8 23 
CALL[ ]	/* CallFunction */";
};
width = 564;
}
);
leftMetricsKey = X;
note = greater;
rightMetricsKey = X;
unicode = 003E;
},
{
glyphname = question;
lastChange = "2021-12-07 03:42:19 +0000";
layers = (
{
layerId = "D6A4831D-747C-4592-93C0-305F4CD57904";
paths = (
{
closed = 1;
nodes = (
"252 163 OFFCURVE",
"255 177 OFFCURVE",
"257 196 CURVE SMOOTH",
"260 221 OFFCURVE",
"265 248 OFFCURVE",
"275 271 CURVE SMOOTH",
"290 308 OFFCURVE",
"309 341 OFFCURVE",
"331 375 CURVE SMOOTH",
"365 433 OFFCURVE",
"396 493 OFFCURVE",
"409 559 CURVE SMOOTH",
"430 663 OFFCURVE",
"360 751 OFFCURVE",
"253 749 CURVE",
"249 748 OFFCURVE",
"242 748 OFFCURVE",
"233 745 CURVE SMOOTH",
"167 727 OFFCURVE",
"112 691 OFFCURVE",
"63 643 CURVE SMOOTH",
"47 626 OFFCURVE",
"46 582 OFFCURVE",
"61 563 CURVE SMOOTH",
"69 554 OFFCURVE",
"84 547 OFFCURVE",
"96 547 CURVE SMOOTH",
"104 547 OFFCURVE",
"113 560 OFFCURVE",
"121 570 CURVE SMOOTH",
"130 582 OFFCURVE",
"132 601 OFFCURVE",
"144 609 CURVE SMOOTH",
"175 630 OFFCURVE",
"208 652 OFFCURVE",
"244 668 CURVE SMOOTH",
"298 690 OFFCURVE",
"339 659 OFFCURVE",
"338 602 CURVE SMOOTH",
"337 573 OFFCURVE",
"330 542 OFFCURVE",
"319 516 CURVE SMOOTH",
"302 478 OFFCURVE",
"280 443 OFFCURVE",
"262 407 CURVE SMOOTH",
"239 361 OFFCURVE",
"216 314 OFFCURVE",
"195 267 CURVE SMOOTH",
"184 241 OFFCURVE",
"183 213 OFFCURVE",
"195 185 CURVE SMOOTH",
"203 167 OFFCURVE",
"213 155 OFFCURVE",
"234 159 CURVE SMOOTH"
);
},
{
closed = 1;
nodes = (
"237 -17 OFFCURVE",
"267 1 OFFCURVE",
"272 22 CURVE SMOOTH",
"276 44 OFFCURVE",
"263 57 OFFCURVE",
"245 66 CURVE SMOOTH",
"207 84 OFFCURVE",
"186 71 OFFCURVE",
"173 16 CURVE",
"187 7 OFFCURVE",
"201 -4 OFFCURVE",
"216 -8 CURVE SMOOTH"
);
}
);
userData = {
assembly = "NPUSHB[ ]	/* 38 values pushed */
56 55 54 3 2 73 0 1 0 2 0 1 2 128 0 0 1 2 0 89 0 0 0 2 97 0 2 0 2 81 42 40 36 34 16 3 8 23 
CALL[ ]	/* CallFunction */";
};
width = 463;
}
);
leftMetricsKey = H;
note = question;
rightMetricsKey = H;
unicode = 003F;
},
{
glyphname = at;
lastChange = "2020-12-09 22:30:36 +0000";
layers = (
{
layerId = "D6A4831D-747C-4592-93C0-305F4CD57904";
paths = (
{
closed = 1;
nodes = (
"367 0 OFFCURVE",
"373 3 QCURVE",
"381 8 OFFCURVE",
"396 26 OFFCURVE",
"399 29 QCURVE",
"393 31 OFFCURVE",
"376 38 OFFCURVE",
"370 39 QCURVE",
"287 42 OFFCURVE",
"233 93 QCURVE",
"191 147 OFFCURVE",
"164 197 OFFCURVE",
"159 205 QCURVE",
"138 243 OFFCURVE",
"138 282 QCURVE SMOOTH",
"138 309 OFFCURVE",
"158 363 OFFCURVE",
"177 394 QCURVE SMOOTH",
"223 468 OFFCURVE",
"313 527 QCURVE SMOOTH",
"357 556 OFFCURVE",
"401 556 QCURVE SMOOTH",
"435 556 OFFCURVE",
"469 538 QCURVE SMOOTH",
"527 508 OFFCURVE",
"587 410 OFFCURVE",
"596 343 QCURVE SMOOTH",
"598 327 OFFCURVE",
"598 320 QCURVE SMOOTH",
"598 254 OFFCURVE",
"539 214 QCURVE",
"527 207 OFFCURVE",
"521 207 QCURVE SMOOTH",
"509 207 OFFCURVE",
"501 222 QCURVE SMOOTH",
"497 229 OFFCURVE",
"491 242 OFFCURVE",
"488 248 QCURVE SMOOTH",
"479 266 OFFCURVE",
"449 286 OFFCURVE",
"433 286 QCURVE SMOOTH",
"402 286 OFFCURVE",
"381 258 QCURVE",
"366 240 OFFCURVE",
"333 223 QCURVE",
"326 220 OFFCURVE",
"321 220 QCURVE SMOOTH",
"304 220 OFFCURVE",
"304 247 QCURVE SMOOTH",
"304 268 OFFCURVE",
"343 344 OFFCURVE",
"359 351 QCURVE SMOOTH",
"368 355 OFFCURVE",
"380 349 QCURVE",
"385 346 OFFCURVE",
"396 333 OFFCURVE",
"398 330 QCURVE",
"408 318 OFFCURVE",
"433 318 QCURVE SMOOTH",
"453 318 OFFCURVE",
"460 327 QCURVE SMOOTH",
"469 338 OFFCURVE",
"469 347 QCURVE SMOOTH",
"469 360 OFFCURVE",
"452 377 QCURVE",
"416 410 OFFCURVE",
"374 410 QCURVE SMOOTH",
"357 410 OFFCURVE",
"338 404 QCURVE SMOOTH",
"305 394 OFFCURVE",
"260 351 OFFCURVE",
"241 319 QCURVE SMOOTH",
"225 291 OFFCURVE",
"225 264 QCURVE SMOOTH",
"225 236 OFFCURVE",
"259 188 OFFCURVE",
"289 175 QCURVE SMOOTH",
"318 162 OFFCURVE",
"344 162 QCURVE SMOOTH",
"374 162 OFFCURVE",
"405 179 QCURVE SMOOTH",
"421 188 OFFCURVE",
"433 188 QCURVE SMOOTH",
"438 188 OFFCURVE",
"440 186 QCURVE",
"475 154 OFFCURVE",
"525 154 QCURVE SMOOTH",
"539 154 OFFCURVE",
"567 158 QCURVE",
"641 194 OFFCURVE",
"677 239 OFFCURVE",
"678 259 QCURVE SMOOTH",
"679 280 LINE SMOOTH",
"681 308 OFFCURVE",
"681 322 QCURVE SMOOTH",
"681 388 OFFCURVE",
"651 429 QCURVE SMOOTH",
"614 481 OFFCURVE",
"597 499 QCURVE SMOOTH",
"508 595 OFFCURVE",
"396 591 QCURVE",
"373 589 LINE",
"353 588 OFFCURVE",
"328 584 OFFCURVE",
"317 579 QCURVE SMOOTH",
"241 544 OFFCURVE",
"186 503 QCURVE SMOOTH",
"115 450 OFFCURVE",
"76 364 QCURVE SMOOTH",
"60 329 OFFCURVE",
"60 294 QCURVE SMOOTH",
"60 250 OFFCURVE",
"85 195 QCURVE SMOOTH",
"163 25 OFFCURVE",
"345 1 QCURVE",
"358 0 LINE"
);
}
);
userData = {
assembly = "NPUSHB[ ]	/* 10 values pushed */
68 1 4 3 3 1 5 6 2 76 
MPPEM[ ]	/* MeasurePixelPerEm */
PUSHB[ ]	/* 1 value pushed */
29 
LT[ ]	/* LessThan */
IF[ ]	/* If */
NPUSHB[ ]	/* 53 values pushed */
12 1 11 0 8 3 11 8 105 0 5 7 0 5 89 0 6 0 1 0 6 1 105 0 7 2 1 0 9 7 0 105 0 4 4 3 97 0 3 3 33 77 0 9 9 10 97 0 10 10 40 10 78 
ELSE[ ]	/* Else */
MPPEM[ ]	/* MeasurePixelPerEm */
PUSHB[ ]	/* 1 value pushed */
44 
LT[ ]	/* LessThan */
IF[ ]	/* If */
NPUSHB[ ]	/* 54 values pushed */
12 1 11 0 8 3 11 8 105 0 6 0 1 2 6 1 105 0 5 0 2 0 5 2 105 0 7 0 0 9 7 0 105 0 4 4 3 97 0 3 3 33 77 0 9 9 10 97 0 10 10 40 10 78 
ELSE[ ]	/* Else */
MPPEM[ ]	/* MeasurePixelPerEm */
PUSHB[ ]	/* 1 value pushed */
46 
LT[ ]	/* LessThan */
IF[ ]	/* If */
NPUSHB[ ]	/* 51 values pushed */
12 1 11 0 8 3 11 8 105 0 6 0 1 2 6 1 105 0 5 0 2 0 5 2 105 0 7 0 0 9 7 0 105 0 9 0 10 9 10 101 0 4 4 3 97 0 3 3 33 4 78 
ELSE[ ]	/* Else */
MPPEM[ ]	/* MeasurePixelPerEm */
PUSHB[ ]	/* 1 value pushed */
49 
LT[ ]	/* LessThan */
IF[ ]	/* If */
NPUSHB[ ]	/* 57 values pushed */
0 11 12 8 12 11 114 0 12 0 8 3 12 8 105 0 6 0 1 2 6 1 105 0 5 0 2 0 5 2 105 0 7 0 0 9 7 0 105 0 9 0 10 9 10 101 0 4 4 3 97 0 3 3 33 4 78 
ELSE[ ]	/* Else */
NPUSHB[ ]	/* 63 values pushed */
0 11 12 8 12 11 114 0 12 0 8 3 12 8 105 0 3 0 4 6 3 4 105 0 6 0 1 2 6 1 105 0 5 0 2 0 5 2 105 0 7 0 0 9 7 0 105 0 9 10 10 9 89 0 9 9 10 97 0 10 9 10 81 
EIF[ ]	/* EndIf */
EIF[ ]	/* EndIf */
EIF[ ]	/* EndIf */
EIF[ ]	/* EndIf */
NPUSHB[ ]	/* 20 values pushed */
114 113 112 111 98 97 90 89 42 22 37 26 38 42 34 19 41 13 8 31 
CALL[ ]	/* CallFunction */";
};
width = 731;
}
);
note = at;
unicode = 0040;
},
{
glyphname = A;
lastChange = "2022-01-20 07:07:29 +0000";
layers = (
{
layerId = "D6A4831D-747C-4592-93C0-305F4CD57904";
paths = (
{
closed = 1;
nodes = (
"593 13 OFFCURVE",
"584 49 OFFCURVE",
"575 84 CURVE SMOOTH",
"564 134 OFFCURVE",
"549 184 OFFCURVE",
"536 236 CURVE SMOOTH",
"532 256 OFFCURVE",
"526 276 OFFCURVE",
"541 298 CURVE SMOOTH",
"557 325 OFFCURVE",
"547 347 OFFCURVE",
"519 354 CURVE SMOOTH",
"490 361 OFFCURVE",
"481 381 OFFCURVE",
"471 403 CURVE SMOOTH",
"442 459 OFFCURVE",
"416 515 OFFCURVE",
"387 570 CURVE SMOOTH",
"374 595 OFFCURVE",
"357 619 OFFCURVE",
"338 638 CURVE SMOOTH",
"307 669 OFFCURVE",
"285 662 OFFCURVE",
"266 624 CURVE SMOOTH",
"258 608 OFFCURVE",
"252 590 OFFCURVE",
"246 574 CURVE SMOOTH",
"213 481 OFFCURVE",
"182 387 OFFCURVE",
"147 296 CURVE SMOOTH",
"122 229 OFFCURVE",
"92 164 OFFCURVE",
"61 91 CURVE",
"30 29 LINE",
"46 18 OFFCURVE",
"51 15 OFFCURVE",
"71 11 CURVE SMOOTH",
"105 5 OFFCURVE",
"117 16 OFFCURVE",
"131 59 CURVE SMOOTH",
"143 99 OFFCURVE",
"168 140 OFFCURVE",
"182 179 CURVE",
"271 203 OFFCURVE",
"370 244 OFFCURVE",
"462 258 CURVE",
"472 236 OFFCURVE",
"474 215 OFFCURVE",
"481 192 CURVE SMOOTH",
"495 137 OFFCURVE",
"509 83 OFFCURVE",
"519 28 CURVE SMOOTH",
"524 -2 OFFCURVE",
"537 -20 OFFCURVE",
"562 -22 CURVE"
);
},
{
closed = 1;
nodes = (
"205 306 OFFCURVE",
"276 467 OFFCURVE",
"320 544 CURVE",
"370 483 OFFCURVE",
"404 405 OFFCURVE",
"430 332 CURVE",
"369 310 OFFCURVE",
"264 269 OFFCURVE",
"205 248 CURVE"
);
}
);
userData = {
assembly = "NPUSHB[ ]	/* 18 values pushed */
71 64 61 2 4 1 3 18 16 2 2 1 8 1 0 2 3 76 
MPPEM[ ]	/* MeasurePixelPerEm */
PUSHB[ ]	/* 1 value pushed */
21 
LT[ ]	/* LessThan */
IF[ ]	/* If */
NPUSHB[ ]	/* 24 values pushed */
0 1 3 2 3 1 2 128 0 3 3 36 77 0 2 2 34 77 0 0 0 31 0 78 
ELSE[ ]	/* Else */
NPUSHB[ ]	/* 21 values pushed */
0 3 1 3 133 0 1 2 1 133 0 2 2 34 77 0 0 0 31 0 78 
EIF[ ]	/* EndIf */
PUSHB[ ]	/* 7 values pushed */
44 45 30 26 4 8 26 
CALL[ ]	/* CallFunction */";
};
width = 654;
}
);
leftKerningGroup = A;
note = A;
rightKerningGroup = A;
unicode = 0041;
},
{
glyphname = B;
lastChange = "2021-12-07 03:44:50 +0000";
layers = (
{
layerId = "D6A4831D-747C-4592-93C0-305F4CD57904";
paths = (
{
closed = 1;
nodes = (
"279 7 OFFCURVE",
"329 23 OFFCURVE",
"377 42 CURVE SMOOTH",
"406 52 OFFCURVE",
"434 65 OFFCURVE",
"462 80 CURVE SMOOTH",
"503 100 OFFCURVE",
"536 131 OFFCURVE",
"562 168 CURVE SMOOTH",
"581 194 OFFCURVE",
"591 223 OFFCURVE",
"593 255 CURVE SMOOTH",
"595 302 OFFCURVE",
"581 316 OFFCURVE",
"543 347 CURVE SMOOTH",
"513 372 OFFCURVE",
"479 388 OFFCURVE",
"442 400 CURVE SMOOTH",
"429 405 OFFCURVE",
"397 405 OFFCURVE",
"396 422 CURVE",
"407 446 OFFCURVE",
"443 479 OFFCURVE",
"453 505 CURVE SMOOTH",
"488 593 OFFCURVE",
"441 645 OFFCURVE",
"346 667 CURVE SMOOTH",
"265 686 OFFCURVE",
"183 692 OFFCURVE",
"100 677 CURVE",
"59 657 OFFCURVE",
"55 628 OFFCURVE",
"50 592 CURVE",
"78 493 OFFCURVE",
"81 405 OFFCURVE",
"89 305 CURVE SMOOTH",
"95 226 OFFCURVE",
"98 118 OFFCURVE",
"112 12 CURVE SMOOTH",
"113 6 OFFCURVE",
"118 0 OFFCURVE",
"122 -6 CURVE",
"145 -26 OFFCURVE",
"167 0 OFFCURVE",
"189 -4 CURVE SMOOTH",
"229 -11 LINE"
);
},
{
closed = 1;
nodes = (
"178 62 OFFCURVE",
"170 77 OFFCURVE",
"170 83 CURVE SMOOTH",
"163 172 OFFCURVE",
"156 262 OFFCURVE",
"151 324 CURVE SMOOTH",
"147 384 OFFCURVE",
"145 455 OFFCURVE",
"134 500 CURVE SMOOTH",
"128 524 OFFCURVE",
"120 562 OFFCURVE",
"127 600 CURVE",
"138 604 OFFCURVE",
"148 610 OFFCURVE",
"157 612 CURVE SMOOTH",
"205 619 OFFCURVE",
"260 616 OFFCURVE",
"308 612 CURVE SMOOTH",
"322 611 OFFCURVE",
"343 606 OFFCURVE",
"355 601 CURVE SMOOTH",
"364 597 OFFCURVE",
"372 590 OFFCURVE",
"379 584 CURVE",
"401 549 OFFCURVE",
"396 530 OFFCURVE",
"376 498 CURVE SMOOTH",
"354 462 OFFCURVE",
"320 431 OFFCURVE",
"280 414 CURVE SMOOTH",
"265 407 OFFCURVE",
"249 398 OFFCURVE",
"236 388 CURVE SMOOTH",
"224 381 OFFCURVE",
"217 369 OFFCURVE",
"209 361 CURVE",
"208 327 OFFCURVE",
"210 328 OFFCURVE",
"236 320 CURVE",
"342 359 LINE",
"406 376 OFFCURVE",
"462 332 OFFCURVE",
"479 319 CURVE SMOOTH",
"545 269 OFFCURVE",
"510 198 OFFCURVE",
"462 161 CURVE SMOOTH",
"445 148 OFFCURVE",
"429 133 OFFCURVE",
"410 125 CURVE SMOOTH",
"348 96 OFFCURVE",
"283 71 OFFCURVE",
"217 53 CURVE SMOOTH",
"207 51 OFFCURVE",
"190 53 OFFCURVE",
"182 53 CURVE"
);
}
);
userData = {
assembly = "NPUSHB[ ]	/* 16 values pushed */
53 1 2 4 3 98 1 5 4 77 16 2 1 5 3 76 
MPPEM[ ]	/* MeasurePixelPerEm */
PUSHB[ ]	/* 1 value pushed */
21 
LT[ ]	/* LessThan */
IF[ ]	/* If */
NPUSHB[ ]	/* 36 values pushed */
0 4 3 5 3 4 5 128 0 5 1 3 5 1 126 0 0 1 0 134 0 3 3 2 97 0 2 2 36 77 0 1 1 31 1 78 
ELSE[ ]	/* Else */
MPPEM[ ]	/* MeasurePixelPerEm */
PUSHB[ ]	/* 1 value pushed */
26 
LT[ ]	/* LessThan */
IF[ ]	/* If */
NPUSHB[ ]	/* 34 values pushed */
0 4 3 5 3 4 5 128 0 5 1 3 5 1 126 0 0 1 0 134 0 2 0 3 4 2 3 105 0 1 1 31 1 78 
ELSE[ ]	/* Else */
NPUSHB[ ]	/* 42 values pushed */
0 4 3 5 3 4 5 128 0 5 1 3 5 1 126 0 1 0 3 1 0 126 0 0 0 132 0 2 3 3 2 89 0 2 2 3 97 0 3 2 3 81 
EIF[ ]	/* EndIf */
EIF[ ]	/* EndIf */
NPUSHB[ ]	/* 13 values pushed */
94 92 88 86 56 54 41 38 39 43 6 8 24 
CALL[ ]	/* CallFunction */";
};
width = 633;
}
);
leftMetricsKey = "=H";
note = B;
rightMetricsKey = F;
unicode = 0042;
},
{
glyphname = C;
lastChange = "2022-02-01 05:23:33 +0000";
layers = (
{
layerId = "D6A4831D-747C-4592-93C0-305F4CD57904";
paths = (
{
closed = 1;
nodes = (
"532 52 OFFCURVE",
"609 94 OFFCURVE",
"665 165 CURVE SMOOTH",
"694 201 OFFCURVE",
"683 218 OFFCURVE",
"631 203 CURVE SMOOTH",
"624 201 OFFCURVE",
"618 192 OFFCURVE",
"612 187 CURVE SMOOTH",
"540 130 OFFCURVE",
"459 92 OFFCURVE",
"370 68 CURVE SMOOTH",
"306 51 OFFCURVE",
"206 79 OFFCURVE",
"171 164 CURVE SMOOTH",
"118 293 OFFCURVE",
"137 500 OFFCURVE",
"267 596 CURVE SMOOTH",
"342 652 OFFCURVE",
"366 653 OFFCURVE",
"427 583 CURVE SMOOTH",
"439 569 OFFCURVE",
"468 562 OFFCURVE",
"486 566 CURVE SMOOTH",
"514 573 OFFCURVE",
"503 596 OFFCURVE",
"495 618 CURVE SMOOTH",
"456 724 OFFCURVE",
"302 719 OFFCURVE",
"237 669 CURVE SMOOTH",
"123 583 OFFCURVE",
"70 467 OFFCURVE",
"70 325 CURVE SMOOTH",
"70 315 OFFCURVE",
"70 305 OFFCURVE",
"71 295 CURVE SMOOTH",
"79 183 OFFCURVE",
"117 85 OFFCURVE",
"219 27 CURVE SMOOTH",
"293 -15 OFFCURVE",
"372 -2 OFFCURVE",
"448 24 CURVE SMOOTH"
);
}
);
userData = {
assembly = "NPUSHB[ ]	/* 41 values pushed */
0 3 4 3 133 0 4 1 4 133 0 1 0 1 133 0 0 2 2 0 89 0 0 0 2 97 0 2 0 2 81 59 57 51 49 41 39 42 5 6 25 
CALL[ ]	/* CallFunction */";
};
width = 711;
}
);
leftMetricsKey = "=O";
note = C.alt2;
rightKerningGroup = C;
rightMetricsKey = c;
unicode = 0043;
},
{
glyphname = D;
lastChange = "2021-12-06 03:06:46 +0000";
layers = (
{
layerId = "D6A4831D-747C-4592-93C0-305F4CD57904";
paths = (
{
closed = 1;
nodes = (
"299 -29 OFFCURVE",
"309 -25 OFFCURVE",
"319 -20 CURVE SMOOTH",
"418 31 OFFCURVE",
"504 98 OFFCURVE",
"571 187 CURVE SMOOTH",
"627 259 OFFCURVE",
"643 311 OFFCURVE",
"619 396 CURVE SMOOTH",
"602 458 OFFCURVE",
"554 509 OFFCURVE",
"503 553 CURVE SMOOTH",
"422 624 OFFCURVE",
"327 671 OFFCURVE",
"234 722 CURVE SMOOTH",
"212 734 OFFCURVE",
"186 741 OFFCURVE",
"162 745 CURVE SMOOTH",
"141 748 OFFCURVE",
"118 746 OFFCURVE",
"97 741 CURVE SMOOTH",
"89 740 OFFCURVE",
"75 727 OFFCURVE",
"71 713 CURVE",
"71 706 OFFCURVE",
"75 703 OFFCURVE",
"91 697 CURVE",
"149 693 OFFCURVE",
"203 649 OFFCURVE",
"216 640 CURVE",
"199 452 OFFCURVE",
"213 333 OFFCURVE",
"203 142 CURVE",
"190 109 OFFCURVE",
"168 78 OFFCURVE",
"164 36 CURVE",
"172 3 OFFCURVE",
"189 -15 OFFCURVE",
"213 -28 CURVE SMOOTH",
"238 -39 OFFCURVE",
"264 -37 OFFCURVE",
"288 -31 CURVE SMOOTH"
);
},
{
closed = 1;
nodes = (
"279 61 OFFCURVE",
"273 67 OFFCURVE",
"273 73 CURVE",
"267 121 OFFCURVE",
"268 516 OFFCURVE",
"272 592 CURVE",
"273 606 OFFCURVE",
"274 604 OFFCURVE",
"279 610 CURVE",
"282 612 OFFCURVE",
"284 617 OFFCURVE",
"298 613 CURVE",
"372 584 OFFCURVE",
"435 535 OFFCURVE",
"493 480 CURVE SMOOTH",
"511 462 OFFCURVE",
"523 439 OFFCURVE",
"535 417 CURVE SMOOTH",
"553 384 OFFCURVE",
"565 359 OFFCURVE",
"565 311 CURVE",
"558 255 OFFCURVE",
"524 214 OFFCURVE",
"462 155 CURVE SMOOTH",
"423 116 OFFCURVE",
"373 79 OFFCURVE",
"323 55 CURVE SMOOTH",
"309 49 OFFCURVE",
"296 46 OFFCURVE",
"281 55 CURVE"
);
}
);
userData = {
assembly = "NPUSHB[ ]	/* 24 values pushed */
45 42 39 30 3 5 1 0 1 76 0 0 1 0 133 0 1 1 118 47 39 2 8 24 
CALL[ ]	/* CallFunction */";
};
width = 700;
}
);
note = D;
rightKerningGroup = D;
rightMetricsKey = "=O";
unicode = 0044;
},
{
glyphname = E;
lastChange = "2022-02-01 05:28:11 +0000";
layers = (
{
layerId = "D6A4831D-747C-4592-93C0-305F4CD57904";
paths = (
{
closed = 1;
nodes = (
"327 13 OFFCURVE",
"355 18 OFFCURVE",
"380 30 CURVE SMOOTH",
"424 51 OFFCURVE",
"467 74 OFFCURVE",
"507 99 CURVE SMOOTH",
"517 104 OFFCURVE",
"526 129 OFFCURVE",
"523 132 CURVE SMOOTH",
"512 145 OFFCURVE",
"495 145 OFFCURVE",
"480 144 CURVE SMOOTH",
"464 144 OFFCURVE",
"448 131 OFFCURVE",
"431 122 CURVE SMOOTH",
"395 107 OFFCURVE",
"359 86 OFFCURVE",
"321 74 CURVE SMOOTH",
"232 45 OFFCURVE",
"186 129 OFFCURVE",
"186 210 CURVE SMOOTH",
"185 231 OFFCURVE",
"188 252 OFFCURVE",
"190 274 CURVE",
"204 278 OFFCURVE",
"214 282 OFFCURVE",
"225 287 CURVE SMOOTH",
"289 309 OFFCURVE",
"354 329 OFFCURVE",
"417 353 CURVE SMOOTH",
"439 362 OFFCURVE",
"461 376 OFFCURVE",
"477 394 CURVE SMOOTH",
"485 403 OFFCURVE",
"488 426 OFFCURVE",
"483 437 CURVE SMOOTH",
"476 455 OFFCURVE",
"457 463 OFFCURVE",
"437 453 CURVE SMOOTH",
"425 447 OFFCURVE",
"414 436 OFFCURVE",
"403 429 CURVE SMOOTH",
"339 386 OFFCURVE",
"269 371 OFFCURVE",
"187 362 CURVE",
"215 597 LINE",
"249 600 OFFCURVE",
"281 603 OFFCURVE",
"312 605 CURVE SMOOTH",
"377 613 OFFCURVE",
"442 616 OFFCURVE",
"508 623 CURVE SMOOTH",
"547 628 OFFCURVE",
"551 643 OFFCURVE",
"536 692 CURVE",
"522 691 OFFCURVE",
"505 691 OFFCURVE",
"489 690 CURVE SMOOTH",
"368 678 OFFCURVE",
"247 669 OFFCURVE",
"125 687 CURVE SMOOTH",
"113 689 OFFCURVE",
"97 688 OFFCURVE",
"85 684 CURVE SMOOTH",
"56 672 OFFCURVE",
"52 643 OFFCURVE",
"76 625 CURVE SMOOTH",
"89 616 OFFCURVE",
"120 613 OFFCURVE",
"145 605 CURVE",
"138 551 OFFCURVE",
"134 500 OFFCURVE",
"127 448 CURVE SMOOTH",
"111 353 OFFCURVE",
"105 258 OFFCURVE",
"120 161 CURVE SMOOTH",
"137 55 OFFCURVE",
"224 -15 OFFCURVE",
"300 6 CURVE SMOOTH"
);
}
);
userData = {
assembly = "NPUSHB[ ]	/* 14 values pushed */
59 1 8 7 94 1 1 8 30 1 4 2 3 76 
MPPEM[ ]	/* MeasurePixelPerEm */
PUSHB[ ]	/* 1 value pushed */
21 
LT[ ]	/* LessThan */
IF[ ]	/* If */
NPUSHB[ ]	/* 42 values pushed */
5 1 0 1 2 1 0 2 128 0 6 6 36 77 9 1 8 8 7 95 0 7 7 30 77 0 1 1 33 77 3 1 2 2 4 98 0 4 4 31 4 78 
ELSE[ ]	/* Else */
MPPEM[ ]	/* MeasurePixelPerEm */
PUSHB[ ]	/* 1 value pushed */
29 
LT[ ]	/* LessThan */
IF[ ]	/* If */
NPUSHB[ ]	/* 40 values pushed */
0 6 7 6 133 5 1 0 1 2 1 0 2 128 0 7 9 1 8 1 7 8 105 0 1 1 33 77 3 1 2 2 4 98 0 4 4 31 4 78 
ELSE[ ]	/* Else */
MPPEM[ ]	/* MeasurePixelPerEm */
PUSHB[ ]	/* 1 value pushed */
34 
LT[ ]	/* LessThan */
IF[ ]	/* If */
NPUSHB[ ]	/* 46 values pushed */
0 6 7 6 133 5 1 0 1 3 1 0 3 128 0 3 2 1 3 2 126 0 7 9 1 8 1 7 8 105 0 1 1 33 77 0 2 2 4 98 0 4 4 31 4 78 
ELSE[ ]	/* Else */
NPUSHB[ ]	/* 52 values pushed */
0 6 7 6 133 0 5 1 0 1 5 0 128 0 0 3 1 0 3 126 0 3 2 1 3 2 126 0 7 9 1 8 1 7 8 105 0 1 1 33 77 0 2 2 4 98 0 4 4 31 4 78 
EIF[ ]	/* EndIf */
EIF[ ]	/* EndIf */
EIF[ ]	/* EndIf */
NPUSHB[ ]	/* 17 values pushed */
98 96 93 92 81 75 69 67 27 38 33 46 34 35 10 8 28 
CALL[ ]	/* CallFunction */";
};
width = 584;
}
);
leftKerningGroup = E;
note = E;
rightKerningGroup = E;
unicode = 0045;
},
{
glyphname = F;
lastChange = "2022-01-21 01:41:58 +0000";
layers = (
{
layerId = "D6A4831D-747C-4592-93C0-305F4CD57904";
paths = (
{
closed = 1;
nodes = (
"117 -22 OFFCURVE",
"137 -13 OFFCURVE",
"141 1 CURVE SMOOTH",
"149 28 OFFCURVE",
"149 57 OFFCURVE",
"152 85 CURVE SMOOTH",
"157 159 OFFCURVE",
"162 233 OFFCURVE",
"168 306 CURVE",
"276 325 OFFCURVE",
"375 342 OFFCURVE",
"475 359 CURVE SMOOTH",
"482 361 OFFCURVE",
"492 371 OFFCURVE",
"491 377 CURVE SMOOTH",
"491 385 OFFCURVE",
"483 398 OFFCURVE",
"477 400 CURVE SMOOTH",
"448 406 OFFCURVE",
"418 414 OFFCURVE",
"390 412 CURVE SMOOTH",
"317 405 OFFCURVE",
"246 392 OFFCURVE",
"170 381 CURVE",
"170 411 OFFCURVE",
"169 437 OFFCURVE",
"170 462 CURVE SMOOTH",
"172 494 OFFCURVE",
"186 531 OFFCURVE",
"175 558 CURVE SMOOTH",
"157 600 OFFCURVE",
"179 619 OFFCURVE",
"207 625 CURVE SMOOTH",
"284 642 OFFCURVE",
"357 709 OFFCURVE",
"443 655 CURVE SMOOTH",
"447 653 OFFCURVE",
"455 655 OFFCURVE",
"460 655 CURVE",
"474 696 OFFCURVE",
"462 722 OFFCURVE",
"422 734 CURVE SMOOTH",
"357 753 OFFCURVE",
"295 734 OFFCURVE",
"233 718 CURVE SMOOTH",
"178 704 OFFCURVE",
"131 677 OFFCURVE",
"95 632 CURVE SMOOTH",
"74 606 OFFCURVE",
"65 583 OFFCURVE",
"99 561 CURVE SMOOTH",
"104 557 OFFCURVE",
"109 546 OFFCURVE",
"109 539 CURVE SMOOTH",
"105 482 OFFCURVE",
"101 426 OFFCURVE",
"97 369 CURVE",
"57 356 OFFCURVE",
"52 343 OFFCURVE",
"70 316 CURVE SMOOTH",
"82 298 OFFCURVE",
"94 275 OFFCURVE",
"93 255 CURVE SMOOTH",
"89 175 OFFCURVE",
"78 94 OFFCURVE",
"74 14 CURVE SMOOTH",
"73 -1 OFFCURVE",
"93 -17 OFFCURVE",
"104 -33 CURVE"
);
}
);
userData = {
assembly = "PUSHB[ ]	/* 6 values pushed */
58 1 6 4 1 76 
MPPEM[ ]	/* MeasurePixelPerEm */
PUSHB[ ]	/* 1 value pushed */
21 
LT[ ]	/* LessThan */
IF[ ]	/* If */
NPUSHB[ ]	/* 39 values pushed */
0 5 6 1 6 5 1 128 2 1 1 0 6 1 0 126 0 0 3 6 0 3 126 0 6 6 4 97 0 4 4 36 77 0 3 3 31 3 78 
ELSE[ ]	/* Else */
MPPEM[ ]	/* MeasurePixelPerEm */
PUSHB[ ]	/* 1 value pushed */
34 
LT[ ]	/* LessThan */
IF[ ]	/* If */
NPUSHB[ ]	/* 37 values pushed */
0 5 6 1 6 5 1 128 2 1 1 0 6 1 0 126 0 0 3 6 0 3 126 0 4 0 6 5 4 6 105 0 3 3 31 3 78 
ELSE[ ]	/* Else */
NPUSHB[ ]	/* 43 values pushed */
0 5 6 1 6 5 1 128 2 1 1 0 6 1 0 126 0 0 3 6 0 3 126 0 3 3 132 0 4 6 6 4 89 0 4 4 6 97 0 6 4 6 81 
EIF[ ]	/* EndIf */
EIF[ ]	/* EndIf */
NPUSHB[ ]	/* 14 values pushed */
70 68 62 61 55 53 36 34 17 54 34 7 8 25 
CALL[ ]	/* CallFunction */";
};
width = 531;
}
);
leftMetricsKey = E;
note = F;
rightMetricsKey = "=E";
unicode = 0046;
},
{
glyphname = G;
lastChange = "2021-12-07 03:44:30 +0000";
layers = (
{
layerId = "D6A4831D-747C-4592-93C0-305F4CD57904";
paths = (
{
closed = 1;
nodes = (
"397 -6 OFFCURVE",
"489 70 OFFCURVE",
"546 119 CURVE SMOOTH",
"566 137 OFFCURVE",
"585 169 OFFCURVE",
"600 189 CURVE SMOOTH",
"628 227 OFFCURVE",
"627 265 OFFCURVE",
"590 296 CURVE SMOOTH",
"546 333 OFFCURVE",
"496 329 OFFCURVE",
"444 324 CURVE SMOOTH",
"373 318 OFFCURVE",
"355 318 OFFCURVE",
"285 312 CURVE SMOOTH",
"267 310 OFFCURVE",
"251 296 OFFCURVE",
"234 288 CURVE",
"249 273 OFFCURVE",
"265 247 OFFCURVE",
"280 247 CURVE SMOOTH",
"361 247 OFFCURVE",
"389 255 OFFCURVE",
"470 260 CURVE SMOOTH",
"500 261 OFFCURVE",
"519 260 OFFCURVE",
"563 260 CURVE",
"555 226 OFFCURVE",
"531 195 OFFCURVE",
"519 184 CURVE SMOOTH",
"435 105 OFFCURVE",
"407 74 OFFCURVE",
"293 55 CURVE SMOOTH",
"272 52 OFFCURVE",
"246 57 OFFCURVE",
"225 66 CURVE SMOOTH",
"150 99 OFFCURVE",
"118 193 OFFCURVE",
"164 280 CURVE SMOOTH",
"230 405 OFFCURVE",
"338 511 OFFCURVE",
"481 553 CURVE SMOOTH",
"496 558 OFFCURVE",
"519 582 OFFCURVE",
"519 597 CURVE",
"519 615 OFFCURVE",
"489 632 OFFCURVE",
"477 630 CURVE SMOOTH",
"438 622 OFFCURVE",
"384 604 OFFCURVE",
"350 583 CURVE SMOOTH",
"303 553 OFFCURVE",
"259 516 OFFCURVE",
"219 476 CURVE SMOOTH",
"142 396 OFFCURVE",
"72 314 OFFCURVE",
"70 189 CURVE SMOOTH",
"69 105 OFFCURVE",
"187 -7 OFFCURVE",
"264 -7 CURVE SMOOTH"
);
}
);
userData = {
assembly = "MPPEM[ ]	/* MeasurePixelPerEm */
PUSHB[ ]	/* 1 value pushed */
39 
LT[ ]	/* LessThan */
IF[ ]	/* If */
NPUSHB[ ]	/* 15 values pushed */
1 1 0 6 35 27 2 2 4 25 1 1 2 3 76 
ELSE[ ]	/* Else */
NPUSHB[ ]	/* 15 values pushed */
1 1 0 6 35 27 2 2 4 25 1 1 3 3 76 
EIF[ ]	/* EndIf */
MPPEM[ ]	/* MeasurePixelPerEm */
PUSHB[ ]	/* 1 value pushed */
21 
LT[ ]	/* LessThan */
IF[ ]	/* If */
NPUSHB[ ]	/* 32 values pushed */
0 0 0 6 97 0 6 6 30 77 3 1 2 2 4 97 0 4 4 33 77 0 1 1 5 97 0 5 5 34 5 78 
ELSE[ ]	/* Else */
MPPEM[ ]	/* MeasurePixelPerEm */
PUSHB[ ]	/* 1 value pushed */
39 
LT[ ]	/* LessThan */
IF[ ]	/* If */
NPUSHB[ ]	/* 30 values pushed */
0 6 0 0 4 6 0 105 3 1 2 2 4 97 0 4 4 33 77 0 1 1 5 97 0 5 5 34 5 78 
ELSE[ ]	/* Else */
MPPEM[ ]	/* MeasurePixelPerEm */
PUSHB[ ]	/* 1 value pushed */
49 
LT[ ]	/* LessThan */
IF[ ]	/* If */
NPUSHB[ ]	/* 37 values pushed */
0 3 2 1 2 3 1 128 0 6 0 0 4 6 0 105 0 2 2 4 97 0 4 4 33 77 0 1 1 5 97 0 5 5 34 5 78 
ELSE[ ]	/* Else */
NPUSHB[ ]	/* 35 values pushed */
0 3 2 1 2 3 1 128 0 6 0 0 4 6 0 105 0 4 0 2 3 4 2 105 0 1 1 5 97 0 5 5 34 5 78 
EIF[ ]	/* EndIf */
EIF[ ]	/* EndIf */
EIF[ ]	/* EndIf */
NPUSHB[ ]	/* 10 values pushed */
43 46 39 33 45 40 35 7 8 29 
CALL[ ]	/* CallFunction */";
};
width = 660;
}
);
leftMetricsKey = "=O";
note = G;
rightMetricsKey = "=E";
unicode = 0047;
},
{
glyphname = H;
lastChange = "2021-12-06 03:08:50 +0000";
layers = (
{
layerId = "D6A4831D-747C-4592-93C0-305F4CD57904";
paths = (
{
closed = 1;
nodes = (
"524 -22 OFFCURVE",
"534 -5 OFFCURVE",
"534 12 CURVE SMOOTH",
"534 100 OFFCURVE",
"531 187 OFFCURVE",
"529 275 CURVE SMOOTH",
"528 325 OFFCURVE",
"503 363 OFFCURVE",
"599 351 CURVE",
"615 417 OFFCURVE",
"573 426 OFFCURVE",
"539 424 CURVE",
"522 487 OFFCURVE",
"511 545 OFFCURVE",
"501 598 CURVE SMOOTH",
"498 612 OFFCURVE",
"462 656 OFFCURVE",
"441 622 CURVE",
"439 606 OFFCURVE",
"435 588 OFFCURVE",
"437 572 CURVE SMOOTH",
"440 551 OFFCURVE",
"449 531 OFFCURVE",
"454 510 CURVE",
"470 413 OFFCURVE",
"490 399 OFFCURVE",
"368 399 CURVE SMOOTH",
"297 399 OFFCURVE",
"227 393 OFFCURVE",
"154 391 CURVE",
"156 442 OFFCURVE",
"158 478 OFFCURVE",
"160 515 CURVE SMOOTH",
"162 559 OFFCURVE",
"171 604 OFFCURVE",
"164 648 CURVE SMOOTH",
"161 668 OFFCURVE",
"148 698 OFFCURVE",
"121 702 CURVE",
"98 702 OFFCURVE",
"96 664 OFFCURVE",
"92 645 CURVE",
"89 609 OFFCURVE",
"96 572 OFFCURVE",
"92 536 CURVE SMOOTH",
"90 498 OFFCURVE",
"98 445 OFFCURVE",
"76 427 CURVE SMOOTH",
"38 396 OFFCURVE",
"48 378 OFFCURVE",
"65 348 CURVE",
"73 330 OFFCURVE",
"77 306 OFFCURVE",
"75 287 CURVE SMOOTH",
"67 221 OFFCURVE",
"55 153 OFFCURVE",
"51 87 CURVE SMOOTH",
"49 64 OFFCURVE",
"55 22 OFFCURVE",
"78 16 CURVE",
"99 24 OFFCURVE",
"111 53 OFFCURVE",
"114 75 CURVE",
"129 140 OFFCURVE",
"132 205 OFFCURVE",
"143 269 CURVE SMOOTH",
"145 285 OFFCURVE",
"161 308 OFFCURVE",
"172 310 CURVE SMOOTH",
"264 322 OFFCURVE",
"358 329 OFFCURVE",
"462 337 CURVE",
"459 304 OFFCURVE",
"456 280 OFFCURVE",
"458 255 CURVE SMOOTH",
"463 168 OFFCURVE",
"469 81 OFFCURVE",
"480 -6 CURVE SMOOTH",
"482 -18 OFFCURVE",
"499 -28 OFFCURVE",
"517 -40 CURVE"
);
}
);
userData = {
assembly = "NPUSHB[ ]	/* 71 values pushed */
24 1 1 2 64 1 4 1 2 1 5 4 79 1 3 5 4 76 0 0 2 0 133 0 2 1 2 133 0 5 4 3 4 5 3 128 0 3 3 132 0 1 4 4 1 87 0 1 1 4 97 0 4 1 4 81 71 70 66 65 47 46 36 35 31 26 17 16 6 6 22 
CALL[ ]	/* CallFunction */";
};
width = 653;
}
);
leftKerningGroup = H;
note = H.alt1;
rightKerningGroup = H;
unicode = 0048;
},
{
glyphname = I;
lastChange = "2022-01-24 05:48:22 +0000";
layers = (
{
layerId = "D6A4831D-747C-4592-93C0-305F4CD57904";
paths = (
{
closed = 1;
nodes = (
"337 116 OFFCURVE",
"374 126 OFFCURVE",
"412 131 CURVE SMOOTH",
"429 133 OFFCURVE",
"446 124 OFFCURVE",
"464 121 CURVE",
"453 107 OFFCURVE",
"446 87 OFFCURVE",
"433 81 CURVE SMOOTH",
"407 69 OFFCURVE",
"378 68 OFFCURVE",
"352 58 CURVE SMOOTH",
"329 50 OFFCURVE",
"310 35 OFFCURVE",
"289 24 CURVE SMOOTH",
"280 19 OFFCURVE",
"265 9 OFFCURVE",
"261 12 CURVE SMOOTH",
"218 50 OFFCURVE",
"172 23 OFFCURVE",
"129 17 CURVE SMOOTH",
"92 12 OFFCURVE",
"73 25 OFFCURVE",
"59 66 CURVE",
"102 73 OFFCURVE",
"140 81 OFFCURVE",
"179 86 CURVE SMOOTH",
"216 90 OFFCURVE",
"235 101 OFFCURVE",
"233 144 CURVE SMOOTH",
"228 242 OFFCURVE",
"232 339 OFFCURVE",
"226 436 CURVE SMOOTH",
"224 475 OFFCURVE",
"205 513 OFFCURVE",
"192 562 CURVE",
"161 546 OFFCURVE",
"134 535 OFFCURVE",
"111 519 CURVE SMOOTH",
"96 508 OFFCURVE",
"86 486 OFFCURVE",
"65 510 CURVE SMOOTH",
"48 531 OFFCURVE",
"42 556 OFFCURVE",
"65 574 CURVE SMOOTH",
"88 592 OFFCURVE",
"115 610 OFFCURVE",
"143 614 CURVE SMOOTH",
"230 629 OFFCURVE",
"318 637 OFFCURVE",
"406 647 CURVE SMOOTH",
"413 648 OFFCURVE",
"421 647 OFFCURVE",
"428 644 CURVE SMOOTH",
"449 636 OFFCURVE",
"481 636 OFFCURVE",
"477 603 CURVE SMOOTH",
"472 568 OFFCURVE",
"443 586 OFFCURVE",
"423 585 CURVE SMOOTH",
"372 581 OFFCURVE",
"321 577 OFFCURVE",
"271 571 CURVE SMOOTH",
"264 570 OFFCURVE",
"252 553 OFFCURVE",
"254 548 CURVE SMOOTH",
"317 410 OFFCURVE",
"292 265 OFFCURVE",
"295 122 CURVE SMOOTH",
"295 120 OFFCURVE",
"298 117 OFFCURVE",
"302 108 CURVE"
);
}
);
userData = {
assembly = "NPUSHB[ ]	/* 18 values pushed */
51 22 2 3 2 73 66 3 3 0 5 2 76 17 1 1 1 75 
MPPEM[ ]	/* MeasurePixelPerEm */
PUSHB[ ]	/* 1 value pushed */
21 
LT[ ]	/* LessThan */
IF[ ]	/* If */
NPUSHB[ ]	/* 34 values pushed */
4 1 3 2 1 2 3 1 128 0 1 5 2 1 5 126 0 5 0 2 5 0 126 0 2 2 30 77 0 0 0 34 0 78 
ELSE[ ]	/* Else */
NPUSHB[ ]	/* 27 values pushed */
0 2 3 2 133 4 1 3 1 3 133 0 1 5 1 133 0 5 0 5 133 0 0 0 34 0 78 
EIF[ ]	/* EndIf */
NPUSHB[ ]	/* 14 values pushed */
71 69 59 58 57 53 40 38 28 26 32 6 8 23 
CALL[ ]	/* CallFunction */";
};
width = 527;
}
);
leftKerningGroup = I;
leftMetricsKey = "=H";
note = I;
rightKerningGroup = I;
rightMetricsKey = "=H";
unicode = 0049;
},
{
glyphname = J;
lastChange = "2021-12-07 03:43:49 +0000";
layers = (
{
layerId = "D6A4831D-747C-4592-93C0-305F4CD57904";
paths = (
{
closed = 1;
nodes = (
"245 588 OFFCURVE",
"211 574 OFFCURVE",
"176 571 CURVE SMOOTH",
"157 569 OFFCURVE",
"130 580 OFFCURVE",
"117 594 CURVE SMOOTH",
"95 619 OFFCURVE",
"108 641 OFFCURVE",
"142 646 CURVE SMOOTH",
"255 659 OFFCURVE",
"368 675 OFFCURVE",
"481 687 CURVE SMOOTH",
"499 689 OFFCURVE",
"521 681 OFFCURVE",
"537 671 CURVE SMOOTH",
"543 667 OFFCURVE",
"542 636 OFFCURVE",
"535 629 CURVE SMOOTH",
"522 618 OFFCURVE",
"502 613 OFFCURVE",
"485 612 CURVE SMOOTH",
"448 610 OFFCURVE",
"410 611 OFFCURVE",
"373 611 CURVE",
"374 576 OFFCURVE",
"376 541 OFFCURVE",
"377 506 CURVE SMOOTH",
"378 379 OFFCURVE",
"378 253 OFFCURVE",
"381 126 CURVE SMOOTH",
"383 38 OFFCURVE",
"327 2 OFFCURVE",
"251 1 CURVE SMOOTH",
"197 1 OFFCURVE",
"145 8 OFFCURVE",
"91 15 CURVE SMOOTH",
"82 16 OFFCURVE",
"68 21 OFFCURVE",
"63 28 CURVE SMOOTH",
"54 44 OFFCURVE",
"47 62 OFFCURVE",
"40 79 CURVE",
"57 80 OFFCURVE",
"75 83 OFFCURVE",
"91 81 CURVE SMOOTH",
"143 76 OFFCURVE",
"193 69 OFFCURVE",
"244 65 CURVE SMOOTH",
"284 62 OFFCURVE",
"307 85 OFFCURVE",
"309 123 CURVE SMOOTH",
"313 210 OFFCURVE",
"318 296 OFFCURVE",
"316 381 CURVE SMOOTH",
"313 453 OFFCURVE",
"301 523 OFFCURVE",
"293 600 CURVE"
);
}
);
userData = {
assembly = "NPUSHB[ ]	/* 10 values pushed */
40 1 2 4 1 1 5 1 2 76 
MPPEM[ ]	/* MeasurePixelPerEm */
PUSHB[ ]	/* 1 value pushed */
21 
LT[ ]	/* LessThan */
IF[ ]	/* If */
NPUSHB[ ]	/* 38 values pushed */
0 2 4 3 4 2 3 128 0 3 0 4 3 0 126 0 0 1 4 0 1 126 0 4 4 30 77 0 1 1 5 97 0 5 5 40 5 78 
ELSE[ ]	/* Else */
NPUSHB[ ]	/* 31 values pushed */
0 4 2 4 133 0 2 3 2 133 0 3 0 3 133 0 0 1 0 133 0 1 1 5 97 0 5 5 40 5 78 
EIF[ ]	/* EndIf */
NPUSHB[ ]	/* 11 values pushed */
54 52 39 37 35 22 35 34 6 8 26 
CALL[ ]	/* CallFunction */";
};
width = 581;
}
);
leftMetricsKey = "=|E";
note = J;
rightMetricsKey = E;
unicode = 004A;
},
{
glyphname = K;
lastChange = "2022-02-01 05:29:57 +0000";
layers = (
{
layerId = "D6A4831D-747C-4592-93C0-305F4CD57904";
paths = (
{
closed = 1;
nodes = (
"191 277 OFFCURVE",
"146 244 OFFCURVE",
"156 169 CURVE SMOOTH",
"162 124 OFFCURVE",
"179 0 OFFCURVE",
"98 0 CURVE SMOOTH",
"65 0 OFFCURVE",
"85 88 OFFCURVE",
"84 115 CURVE SMOOTH",
"78 253 OFFCURVE",
"77 391 OFFCURVE",
"72 529 CURVE SMOOTH",
"70 565 OFFCURVE",
"55 601 OFFCURVE",
"50 637 CURVE SMOOTH",
"48 653 OFFCURVE",
"58 670 OFFCURVE",
"62 686 CURVE",
"107 686 OFFCURVE",
"113 669 OFFCURVE",
"117 655 CURVE SMOOTH",
"134 590 OFFCURVE",
"145 522 OFFCURVE",
"156 456 CURVE SMOOTH",
"161 428 OFFCURVE",
"162 399 OFFCURVE",
"165 373 CURVE",
"236 433 OFFCURVE",
"304 492 OFFCURVE",
"373 549 CURVE SMOOTH",
"402 573 OFFCURVE",
"433 596 OFFCURVE",
"466 612 CURVE SMOOTH",
"482 619 OFFCURVE",
"526 628 OFFCURVE",
"526 608 CURVE SMOOTH",
"526 588 OFFCURVE",
"522 562 OFFCURVE",
"510 551 CURVE SMOOTH",
"458 504 OFFCURVE",
"403 462 OFFCURVE",
"349 419 CURVE SMOOTH",
"293 374 OFFCURVE",
"290 358 OFFCURVE",
"343 309 CURVE SMOOTH",
"455 208 OFFCURVE",
"531 153 OFFCURVE",
"672 96 CURVE SMOOTH",
"684 91 OFFCURVE",
"697 69 OFFCURVE",
"697 52 CURVE SMOOTH",
"697 32 OFFCURVE",
"653 36 OFFCURVE",
"638 44 CURVE SMOOTH",
"571 75 OFFCURVE",
"555 82 OFFCURVE",
"490 119 CURVE SMOOTH",
"440 147 OFFCURVE",
"390 177 OFFCURVE",
"342 209 CURVE SMOOTH",
"302 236 OFFCURVE",
"266 269 OFFCURVE",
"224 302 CURVE"
);
}
);
userData = {
assembly = "NPUSHB[ ]	/* 12 values pushed */
55 45 39 3 1 0 1 76 51 1 1 73 
MPPEM[ ]	/* MeasurePixelPerEm */
PUSHB[ ]	/* 1 value pushed */
21 
LT[ ]	/* LessThan */
IF[ ]	/* If */
NPUSHB[ ]	/* 16 values pushed */
0 2 0 2 133 0 0 0 30 77 0 1 1 31 1 78 
ELSE[ ]	/* Else */
NPUSHB[ ]	/* 16 values pushed */
0 2 0 2 133 0 0 1 0 133 0 1 1 31 1 78 
EIF[ ]	/* EndIf */
PUSHB[ ]	/* 8 values pushed */
70 68 31 29 38 3 8 23 
CALL[ ]	/* CallFunction */";
};
width = 705;
}
);
leftMetricsKey = "=H";
note = K;
unicode = 004B;
},
{
glyphname = L;
lastChange = "2021-12-21 20:14:25 +0000";
layers = (
{
layerId = "D6A4831D-747C-4592-93C0-305F4CD57904";
paths = (
{
closed = 1;
nodes = (
"348 -21 OFFCURVE",
"467 6 OFFCURVE",
"587 31 CURVE SMOOTH",
"595 33 OFFCURVE",
"608 51 OFFCURVE",
"606 58 CURVE SMOOTH",
"603 69 OFFCURVE",
"590 84 OFFCURVE",
"579 86 CURVE SMOOTH",
"556 88 OFFCURVE",
"531 86 OFFCURVE",
"507 81 CURVE SMOOTH",
"424 65 OFFCURVE",
"340 46 OFFCURVE",
"257 29 CURVE SMOOTH",
"214 21 OFFCURVE",
"187 41 OFFCURVE",
"178 82 CURVE SMOOTH",
"169 126 OFFCURVE",
"160 170 OFFCURVE",
"158 215 CURVE SMOOTH",
"155 300 OFFCURVE",
"157 386 OFFCURVE",
"157 471 CURVE",
"165 541 OFFCURVE",
"166 552 OFFCURVE",
"152 621 CURVE SMOOTH",
"145 654 OFFCURVE",
"129 687 OFFCURVE",
"109 715 CURVE SMOOTH",
"101 727 OFFCURVE",
"72 723 OFFCURVE",
"53 727 CURVE",
"53 707 OFFCURVE",
"48 686 OFFCURVE",
"52 666 CURVE SMOOTH",
"56 647 OFFCURVE",
"73 630 OFFCURVE",
"75 611 CURVE SMOOTH",
"82 551 OFFCURVE",
"85 492 OFFCURVE",
"87 432 CURVE SMOOTH",
"92 322 OFFCURVE",
"90 210 OFFCURVE",
"101 100 CURVE SMOOTH",
"108 22 OFFCURVE",
"170 -46 OFFCURVE",
"227 -38 CURVE SMOOTH"
);
}
);
userData = {
assembly = "PUSHB[ ]	/* 4 values pushed */
2 1 1 74 
MPPEM[ ]	/* MeasurePixelPerEm */
PUSHB[ ]	/* 1 value pushed */
36 
LT[ ]	/* LessThan */
IF[ ]	/* If */
NPUSHB[ ]	/* 11 values pushed */
0 1 1 0 97 0 0 0 31 0 78 
ELSE[ ]	/* Else */
NPUSHB[ ]	/* 16 values pushed */
0 1 0 0 1 89 0 1 1 0 97 0 0 1 0 81 
EIF[ ]	/* EndIf */
PUSHB[ ]	/* 6 values pushed */
47 45 46 2 8 23 
CALL[ ]	/* CallFunction */";
};
width = 616;
}
);
leftKerningGroup = L;
leftMetricsKey = "=H";
note = L;
rightKerningGroup = A;
unicode = 004C;
},
{
glyphname = M;
lastChange = "2022-01-24 07:09:39 +0000";
layers = (
{
layerId = "D6A4831D-747C-4592-93C0-305F4CD57904";
paths = (
{
closed = 1;
nodes = (
"830 14 OFFCURVE",
"828 37 OFFCURVE",
"825 55 CURVE SMOOTH",
"808 149 OFFCURVE",
"786 243 OFFCURVE",
"770 338 CURVE SMOOTH",
"753 439 OFFCURVE",
"722 535 OFFCURVE",
"659 617 CURVE SMOOTH",
"612 679 OFFCURVE",
"545 677 OFFCURVE",
"502 614 CURVE SMOOTH",
"474 573 OFFCURVE",
"451 528 OFFCURVE",
"432 483 CURVE SMOOTH",
"414 441 OFFCURVE",
"403 395 OFFCURVE",
"389 351 CURVE",
"377 348 LINE",
"356 393 OFFCURVE",
"338 439 OFFCURVE",
"313 481 CURVE SMOOTH",
"274 547 OFFCURVE",
"233 612 OFFCURVE",
"186 672 CURVE SMOOTH",
"173 689 OFFCURVE",
"137 691 OFFCURVE",
"111 692 CURVE SMOOTH",
"106 692 OFFCURVE",
"95 657 OFFCURVE",
"94 638 CURVE SMOOTH",
"92 613 OFFCURVE",
"97 587 OFFCURVE",
"98 562 CURVE SMOOTH",
"103 411 OFFCURVE",
"88 262 OFFCURVE",
"53 115 CURVE SMOOTH",
"46 86 OFFCURVE",
"49 64 OFFCURVE",
"76 57 CURVE SMOOTH",
"105 49 OFFCURVE",
"121 71 OFFCURVE",
"124 98 CURVE SMOOTH",
"136 194 OFFCURVE",
"151 290 OFFCURVE",
"158 386 CURVE SMOOTH",
"164 455 OFFCURVE",
"159 536 OFFCURVE",
"159 606 CURVE",
"191 574 OFFCURVE",
"203 551 OFFCURVE",
"212 535 CURVE SMOOTH",
"255 459 OFFCURVE",
"293 381 OFFCURVE",
"331 302 CURVE SMOOTH",
"348 268 OFFCURVE",
"371 233 OFFCURVE",
"408 245 CURVE SMOOTH",
"429 251 OFFCURVE",
"444 292 OFFCURVE",
"452 320 CURVE SMOOTH",
"477 401 OFFCURVE",
"492 486 OFFCURVE",
"546 555 CURVE SMOOTH",
"582 602 OFFCURVE",
"607 602 OFFCURVE",
"630 547 CURVE SMOOTH",
"658 477 OFFCURVE",
"681 405 OFFCURVE",
"701 332 CURVE SMOOTH",
"728 233 OFFCURVE",
"749 132 OFFCURVE",
"776 33 CURVE SMOOTH",
"780 19 OFFCURVE",
"790 0 OFFCURVE",
"815 -1 CURVE"
);
}
);
userData = {
assembly = "NPUSHB[ ]	/* 14 values pushed */
61 44 19 3 4 2 4 1 76 29 1 3 1 75 
MPPEM[ ]	/* MeasurePixelPerEm */
PUSHB[ ]	/* 1 value pushed */
21 
LT[ ]	/* LessThan */
IF[ ]	/* If */
NPUSHB[ ]	/* 31 values pushed */
0 2 4 3 4 2 3 128 0 3 1 4 3 1 126 0 0 0 30 77 0 4 4 32 77 0 1 1 34 1 78 
ELSE[ ]	/* Else */
NPUSHB[ ]	/* 31 values pushed */
0 0 4 0 133 0 2 4 3 4 2 3 128 0 3 1 4 3 1 126 0 4 4 32 77 0 1 1 34 1 78 
EIF[ ]	/* EndIf */
NPUSHB[ ]	/* 12 values pushed */
79 78 67 65 52 50 34 32 30 5 8 23 
CALL[ ]	/* CallFunction */";
};
width = 877;
}
);
leftMetricsKey = "=H";
note = M;
rightKerningGroup = A;
rightMetricsKey = "=H";
unicode = 004D;
},
{
glyphname = N;
lastChange = "2022-01-23 22:42:25 +0000";
layers = (
{
layerId = "D6A4831D-747C-4592-93C0-305F4CD57904";
paths = (
{
closed = 1;
nodes = (
"131 2 OFFCURVE",
"135 33 OFFCURVE",
"137 61 CURVE SMOOTH",
"143 141 OFFCURVE",
"147 222 OFFCURVE",
"155 302 CURVE SMOOTH",
"163 387 OFFCURVE",
"166 361 OFFCURVE",
"178 468 CURVE",
"195 450 OFFCURVE",
"223 434 OFFCURVE",
"246 408 CURVE SMOOTH",
"349 291 OFFCURVE",
"421 170 OFFCURVE",
"511 41 CURVE SMOOTH",
"522 26 OFFCURVE",
"549 13 OFFCURVE",
"567 14 CURVE SMOOTH",
"579 14 OFFCURVE",
"598 43 OFFCURVE",
"598 60 CURVE SMOOTH",
"601 212 OFFCURVE",
"601 364 OFFCURVE",
"601 516 CURVE SMOOTH",
"601 543 OFFCURVE",
"602 572 OFFCURVE",
"593 596 CURVE SMOOTH",
"584 616 OFFCURVE",
"561 645 OFFCURVE",
"544 645 CURVE",
"537 627 OFFCURVE",
"524 610 OFFCURVE",
"524 592 CURVE SMOOTH",
"525 496 OFFCURVE",
"530 399 OFFCURVE",
"532 302 CURVE SMOOTH",
"534 254 OFFCURVE",
"533 205 OFFCURVE",
"533 156 CURVE",
"526 139 LINE",
"512 160 OFFCURVE",
"487 196 OFFCURVE",
"471 218 CURVE SMOOTH",
"394 322 OFFCURVE",
"319 428 OFFCURVE",
"238 529 CURVE SMOOTH",
"220 552 OFFCURVE",
"177 573 OFFCURVE",
"152 567 CURVE SMOOTH",
"131 563 OFFCURVE",
"110 518 OFFCURVE",
"106 489 CURVE SMOOTH",
"84 349 OFFCURVE",
"70 208 OFFCURVE",
"51 68 CURVE SMOOTH",
"46 31 OFFCURVE",
"63 10 OFFCURVE",
"94 6 CURVE SMOOTH"
);
}
);
userData = {
assembly = "NPUSHB[ ]	/* 11 values pushed */
19 1 0 74 57 45 38 14 4 0 73 
MPPEM[ ]	/* MeasurePixelPerEm */
PUSHB[ ]	/* 1 value pushed */
39 
LT[ ]	/* LessThan */
IF[ ]	/* If */
PUSHB[ ]	/* 6 values pushed */
0 0 0 32 0 78 
ELSE[ ]	/* Else */
PUSHB[ ]	/* 4 values pushed */
0 0 0 118 
EIF[ ]	/* EndIf */
PUSHB[ ]	/* 4 values pushed */
36 1 8 23 
CALL[ ]	/* CallFunction */";
};
width = 666;
}
);
leftKerningGroup = N;
leftMetricsKey = H;
note = N;
rightKerningGroup = N;
unicode = 004E;
},
{
glyphname = O;
lastChange = "2021-04-25 03:59:06 +0000";
layers = (
{
layerId = "D6A4831D-747C-4592-93C0-305F4CD57904";
paths = (
{
closed = 1;
nodes = (
"323 2 OFFCURVE",
"342 5 OFFCURVE",
"360 13 CURVE SMOOTH",
"482 66 OFFCURVE",
"558 154 OFFCURVE",
"594 286 CURVE SMOOTH",
"639 450 OFFCURVE",
"543 619 OFFCURVE",
"407 668 CURVE SMOOTH",
"330 696 OFFCURVE",
"244 695 OFFCURVE",
"184 616 CURVE SMOOTH",
"92 495 OFFCURVE",
"60 363 OFFCURVE",
"72 214 CURVE SMOOTH",
"84 76 OFFCURVE",
"177 10 OFFCURVE",
"313 -1 CURVE"
);
},
{
closed = 1;
nodes = (
"258 20 OFFCURVE",
"150 84 OFFCURVE",
"144 225 CURVE SMOOTH",
"144 243 OFFCURVE",
"146 261 OFFCURVE",
"147 279 CURVE SMOOTH",
"153 392 OFFCURVE",
"174 500 OFFCURVE",
"266 578 CURVE SMOOTH",
"360 657 OFFCURVE",
"449 635 OFFCURVE",
"505 525 CURVE SMOOTH",
"595 352 OFFCURVE",
"508 181 OFFCURVE",
"372 93 CURVE SMOOTH"
);
}
);
userData = {
assembly = "PUSHB[ ]	/* 6 values pushed */
69 1 2 3 1 76 
MPPEM[ ]	/* MeasurePixelPerEm */
PUSHB[ ]	/* 1 value pushed */
21 
LT[ ]	/* LessThan */
IF[ ]	/* If */
NPUSHB[ ]	/* 24 values pushed */
0 2 3 1 3 2 1 128 0 3 3 0 97 0 0 0 30 77 0 1 1 34 1 78 
ELSE[ ]	/* Else */
MPPEM[ ]	/* MeasurePixelPerEm */
PUSHB[ ]	/* 1 value pushed */
24 
LT[ ]	/* LessThan */
IF[ ]	/* If */
NPUSHB[ ]	/* 24 values pushed */
0 2 3 1 3 2 1 128 0 3 3 0 97 0 0 0 32 77 0 1 1 34 1 78 
ELSE[ ]	/* Else */
MPPEM[ ]	/* MeasurePixelPerEm */
PUSHB[ ]	/* 1 value pushed */
26 
LT[ ]	/* LessThan */
IF[ ]	/* If */
NPUSHB[ ]	/* 22 values pushed */
0 2 3 1 3 2 1 128 0 0 0 3 2 0 3 105 0 1 1 34 1 78 
ELSE[ ]	/* Else */
NPUSHB[ ]	/* 28 values pushed */
0 2 3 1 3 2 1 128 0 1 1 132 0 0 3 3 0 89 0 0 0 3 97 0 3 0 3 81 
EIF[ ]	/* EndIf */
EIF[ ]	/* EndIf */
EIF[ ]	/* EndIf */
NPUSHB[ ]	/* 9 values pushed */
59 57 43 42 46 34 4 8 24 
CALL[ ]	/* CallFunction */";
};
width = 675;
}
);
leftKerningGroup = O;
note = O;
rightKerningGroup = O;
unicode = 004F;
},
{
glyphname = P;
lastChange = "2022-01-24 00:38:26 +0000";
layers = (
{
layerId = "D6A4831D-747C-4592-93C0-305F4CD57904";
paths = (
{
closed = 1;
nodes = (
"115 -73 OFFCURVE",
"131 -60 OFFCURVE",
"136 -35 CURVE SMOOTH",
"137 -32 OFFCURVE",
"137 -28 OFFCURVE",
"137 -25 CURVE SMOOTH",
"148 131 OFFCURVE",
"160 287 OFFCURVE",
"171 443 CURVE SMOOTH",
"173 469 OFFCURVE",
"176 499 OFFCURVE",
"168 523 CURVE SMOOTH",
"153 561 OFFCURVE",
"170 587 OFFCURVE",
"195 607 CURVE SMOOTH",
"271 666 OFFCURVE",
"358 697 OFFCURVE",
"453 700 CURVE SMOOTH",
"499 702 OFFCURVE",
"521 671 OFFCURVE",
"503 629 CURVE SMOOTH",
"461 529 OFFCURVE",
"397 448 OFFCURVE",
"303 391 CURVE SMOOTH",
"282 379 OFFCURVE",
"267 359 OFFCURVE",
"249 342 CURVE",
"282 306 OFFCURVE",
"308 303 OFFCURVE",
"340 332 CURVE SMOOTH",
"388 376 OFFCURVE",
"437 419 OFFCURVE",
"478 468 CURVE SMOOTH",
"517 514 OFFCURVE",
"556 563 OFFCURVE",
"572 624 CURVE SMOOTH",
"592 701 OFFCURVE",
"557 752 OFFCURVE",
"477 756 CURVE SMOOTH",
"364 762 OFFCURVE",
"261 729 OFFCURVE",
"170 663 CURVE SMOOTH",
"128 632 OFFCURVE",
"84 600 OFFCURVE",
"108 536 CURVE",
"100 393 OFFCURVE",
"92 250 OFFCURVE",
"84 107 CURVE SMOOTH",
"81 62 OFFCURVE",
"75 18 OFFCURVE",
"70 -27 CURVE SMOOTH",
"68 -47 OFFCURVE",
"74 -63 OFFCURVE",
"95 -68 CURVE SMOOTH"
);
}
);
userData = {
assembly = "PUSHB[ ]	/* 8 values pushed */
40 12 4 3 0 1 1 76 
MPPEM[ ]	/* MeasurePixelPerEm */
PUSHB[ ]	/* 1 value pushed */
21 
LT[ ]	/* LessThan */
IF[ ]	/* If */
NPUSHB[ ]	/* 25 values pushed */
0 0 1 2 1 0 2 128 0 1 1 4 97 0 4 4 36 77 3 1 2 2 40 2 78 
ELSE[ ]	/* Else */
MPPEM[ ]	/* MeasurePixelPerEm */
PUSHB[ ]	/* 1 value pushed */
49 
LT[ ]	/* LessThan */
IF[ ]	/* If */
NPUSHB[ ]	/* 23 values pushed */
0 0 1 2 1 0 2 128 0 4 0 1 0 4 1 105 3 1 2 2 40 2 78 
ELSE[ ]	/* Else */
NPUSHB[ ]	/* 29 values pushed */
0 0 1 2 1 0 2 128 3 1 2 2 132 0 4 1 1 4 89 0 4 4 1 97 0 1 4 1 81 
EIF[ ]	/* EndIf */
EIF[ ]	/* EndIf */
NPUSHB[ ]	/* 9 values pushed */
51 49 17 25 31 32 5 8 26 
CALL[ ]	/* CallFunction */";
};
width = 598;
}
);
leftKerningGroup = P;
note = P;
rightKerningGroup = P;
unicode = 0050;
},
{
glyphname = Q;
lastChange = "2021-04-26 07:04:30 +0000";
layers = (
{
layerId = "D6A4831D-747C-4592-93C0-305F4CD57904";
paths = (
{
closed = 1;
nodes = (
"561 196 OFFCURVE",
"610 277 OFFCURVE",
"639 368 CURVE SMOOTH",
"668 463 OFFCURVE",
"654 548 OFFCURVE",
"580 619 CURVE SMOOTH",
"504 695 OFFCURVE",
"369 738 OFFCURVE",
"290 696 CURVE SMOOTH",
"246 672 OFFCURVE",
"211 629 OFFCURVE",
"171 594 CURVE",
"186 628 OFFCURVE",
"179 656 OFFCURVE",
"139 668 CURVE SMOOTH",
"98 680 OFFCURVE",
"98 644 OFFCURVE",
"90 618 CURVE SMOOTH",
"49 481 OFFCURVE",
"75 347 OFFCURVE",
"141 227 CURVE SMOOTH",
"214 94 OFFCURVE",
"380 54 OFFCURVE",
"488 138 CURVE SMOOTH"
);
},
{
closed = 1;
nodes = (
"371 6 OFFCURVE",
"450 19 OFFCURVE",
"530 31 CURVE SMOOTH",
"576 40 OFFCURVE",
"622 46 OFFCURVE",
"668 53 CURVE",
"669 60 OFFCURVE",
"670 67 OFFCURVE",
"670 74 CURVE",
"657 82 OFFCURVE",
"644 97 OFFCURVE",
"632 96 CURVE SMOOTH",
"486 87 OFFCURVE",
"340 76 OFFCURVE",
"195 62 CURVE SMOOTH",
"189 61 OFFCURVE",
"177 27 OFFCURVE",
"182 18 CURVE SMOOTH",
"209 -26 OFFCURVE",
"251 -15 OFFCURVE",
"291 -8 CURVE SMOOTH"
);
},
{
closed = 1;
nodes = (
"353 117 OFFCURVE",
"222 165 OFFCURVE",
"183 277 CURVE SMOOTH",
"161 341 OFFCURVE",
"147 401 OFFCURVE",
"139 477 CURVE",
"172 494 LINE",
"187 509 OFFCURVE",
"203 524 OFFCURVE",
"217 538 CURVE SMOOTH",
"252 578 OFFCURVE",
"276 607 OFFCURVE",
"318 636 CURVE SMOOTH",
"381 680 OFFCURVE",
"446 655 OFFCURVE",
"502 612 CURVE SMOOTH",
"566 564 OFFCURVE",
"601 492 OFFCURVE",
"583 416 CURVE SMOOTH",
"562 327 OFFCURVE",
"518 237 OFFCURVE",
"444 183 CURVE SMOOTH"
);
}
);
userData = {
assembly = "NPUSHB[ ]	/* 11 values pushed */
45 1 5 6 40 33 2 2 0 2 76 
MPPEM[ ]	/* MeasurePixelPerEm */
PUSHB[ ]	/* 1 value pushed */
21 
LT[ ]	/* LessThan */
IF[ ]	/* If */
NPUSHB[ ]	/* 41 values pushed */
0 6 4 5 4 6 5 128 0 5 0 4 5 0 126 0 3 1 3 134 0 4 4 30 77 0 0 0 2 97 0 2 2 31 77 0 1 1 31 1 78 
ELSE[ ]	/* Else */
MPPEM[ ]	/* MeasurePixelPerEm */
PUSHB[ ]	/* 1 value pushed */
36 
LT[ ]	/* LessThan */
IF[ ]	/* If */
NPUSHB[ ]	/* 36 values pushed */
0 4 6 4 133 0 6 5 6 133 0 5 0 5 133 0 3 1 3 134 0 0 0 2 97 0 2 2 31 77 0 1 1 31 1 78 
ELSE[ ]	/* Else */
NPUSHB[ ]	/* 34 values pushed */
0 4 6 4 133 0 6 5 6 133 0 5 0 5 133 0 3 1 3 134 0 0 0 2 1 0 2 105 0 1 1 31 1 78 
EIF[ ]	/* EndIf */
EIF[ ]	/* EndIf */
NPUSHB[ ]	/* 13 values pushed */
89 87 79 77 60 58 39 34 41 52 7 8 26 
CALL[ ]	/* CallFunction */";
};
width = 740;
}
);
leftKerningGroup = O;
leftMetricsKey = "=O";
note = Q;
rightKerningGroup = O;
rightMetricsKey = "=O";
unicode = 0051;
},
{
glyphname = R;
lastChange = "2021-12-21 20:10:58 +0000";
layers = (
{
layerId = "D6A4831D-747C-4592-93C0-305F4CD57904";
paths = (
{
closed = 1;
nodes = (
"543 42 LINE",
"539 50 OFFCURVE",
"535 57 OFFCURVE",
"531 65 CURVE",
"522 67 OFFCURVE",
"513 70 OFFCURVE",
"504 70 CURVE SMOOTH",
"465 70 OFFCURVE",
"427 81 OFFCURVE",
"390 90 CURVE SMOOTH",
"355 99 OFFCURVE",
"323 115 OFFCURVE",
"295 138 CURVE SMOOTH",
"265 164 OFFCURVE",
"264 182 OFFCURVE",
"286 215 CURVE SMOOTH",
"319 269 OFFCURVE",
"352 322 OFFCURVE",
"384 375 CURVE SMOOTH",
"414 424 OFFCURVE",
"431 478 OFFCURVE",
"434 535 CURVE SMOOTH",
"436 563 OFFCURVE",
"432 588 OFFCURVE",
"422 614 CURVE SMOOTH",
"411 644 OFFCURVE",
"390 664 OFFCURVE",
"361 676 CURVE SMOOTH",
"301 698 OFFCURVE",
"264 695 OFFCURVE",
"214 674 CURVE SMOOTH",
"104 629 OFFCURVE",
"79 637 OFFCURVE",
"50 522 CURVE",
"69 472 LINE",
"75 326 OFFCURVE",
"63 178 OFFCURVE",
"86 37 CURVE SMOOTH",
"90 10 OFFCURVE",
"142 -2 OFFCURVE",
"142 57 CURVE SMOOTH",
"139 108 OFFCURVE",
"137 158 OFFCURVE",
"136 209 CURVE SMOOTH",
"134 283 OFFCURVE",
"134 358 OFFCURVE",
"134 433 CURVE SMOOTH",
"134 459 OFFCURVE",
"134 486 OFFCURVE",
"135 513 CURVE SMOOTH",
"136 527 OFFCURVE",
"139 541 OFFCURVE",
"141 552 CURVE",
"169 587 OFFCURVE",
"203 606 OFFCURVE",
"240 619 CURVE SMOOTH",
"268 629 OFFCURVE",
"298 635 OFFCURVE",
"328 626 CURVE SMOOTH",
"336 623 OFFCURVE",
"344 619 OFFCURVE",
"353 614 CURVE",
"371 580 LINE",
"377 526 OFFCURVE",
"367 481 OFFCURVE",
"344 437 CURVE SMOOTH",
"330 411 OFFCURVE",
"316 384 OFFCURVE",
"301 359 CURVE SMOOTH",
"279 323 OFFCURVE",
"255 289 OFFCURVE",
"232 254 CURVE SMOOTH",
"216 229 OFFCURVE",
"202 203 OFFCURVE",
"201 172 CURVE",
"224 115 OFFCURVE",
"217 103 OFFCURVE",
"311 59 CURVE SMOOTH",
"376 29 OFFCURVE",
"450 10 OFFCURVE",
"526 20 CURVE"
);
}
);
userData = {
assembly = "NPUSHB[ ]	/* 11 values pushed */
73 44 2 1 3 19 1 0 4 2 76 
MPPEM[ ]	/* MeasurePixelPerEm */
PUSHB[ ]	/* 1 value pushed */
21 
LT[ ]	/* LessThan */
IF[ ]	/* If */
NPUSHB[ ]	/* 29 values pushed */
0 1 3 4 3 1 4 128 0 3 3 36 77 0 4 4 0 97 0 0 0 34 77 0 2 2 31 2 78 
ELSE[ ]	/* Else */
MPPEM[ ]	/* MeasurePixelPerEm */
PUSHB[ ]	/* 1 value pushed */
36 
LT[ ]	/* LessThan */
IF[ ]	/* If */
NPUSHB[ ]	/* 24 values pushed */
0 3 1 3 133 0 1 4 1 133 0 4 0 0 2 4 0 105 0 2 2 31 2 78 
ELSE[ ]	/* Else */
NPUSHB[ ]	/* 31 values pushed */
0 3 1 3 133 0 1 4 1 133 0 2 0 2 134 0 4 0 0 4 89 0 4 4 0 97 0 0 4 0 81 
EIF[ ]	/* EndIf */
EIF[ ]	/* EndIf */
NPUSHB[ ]	/* 9 values pushed */
53 51 41 37 28 19 5 8 26 
CALL[ ]	/* CallFunction */";
};
width = 583;
}
);
leftMetricsKey = "=H";
note = R;
rightMetricsKey = "=E";
unicode = 0052;
},
{
glyphname = S;
lastChange = "2021-04-25 04:01:18 +0000";
layers = (
{
layerId = "D6A4831D-747C-4592-93C0-305F4CD57904";
paths = (
{
closed = 1;
nodes = (
"302 8 OFFCURVE",
"368 17 OFFCURVE",
"430 36 CURVE SMOOTH",
"495 57 OFFCURVE",
"510 119 OFFCURVE",
"466 172 CURVE SMOOTH",
"444 200 OFFCURVE",
"412 222 OFFCURVE",
"380 239 CURVE SMOOTH",
"312 275 OFFCURVE",
"238 302 OFFCURVE",
"172 341 CURVE SMOOTH",
"94 387 OFFCURVE",
"89 473 OFFCURVE",
"168 517 CURVE SMOOTH",
"236 555 OFFCURVE",
"308 564 OFFCURVE",
"383 551 CURVE SMOOTH",
"410 546 OFFCURVE",
"442 539 OFFCURVE",
"441 498 CURVE SMOOTH",
"441 491 OFFCURVE",
"458 477 OFFCURVE",
"464 479 CURVE SMOOTH",
"474 482 OFFCURVE",
"486 493 OFFCURVE",
"489 503 CURVE SMOOTH",
"505 547 OFFCURVE",
"483 590 OFFCURVE",
"437 608 CURVE SMOOTH",
"316 657 OFFCURVE",
"206 621 OFFCURVE",
"101 560 CURVE SMOOTH",
"90 553 OFFCURVE",
"82 539 OFFCURVE",
"75 526 CURVE SMOOTH",
"27 436 OFFCURVE",
"67 354 OFFCURVE",
"153 297 CURVE SMOOTH",
"226 248 OFFCURVE",
"310 216 OFFCURVE",
"388 174 CURVE SMOOTH",
"402 167 OFFCURVE",
"418 148 OFFCURVE",
"420 133 CURVE SMOOTH",
"421 122 OFFCURVE",
"402 101 OFFCURVE",
"388 97 CURVE SMOOTH",
"283 62 OFFCURVE",
"178 36 OFFCURVE",
"68 93 CURVE",
"43 52 OFFCURVE",
"52 18 OFFCURVE",
"97 9 CURVE SMOOTH",
"142 0 OFFCURVE",
"191 -2 OFFCURVE",
"237 2 CURVE SMOOTH"
);
}
);
userData = {
assembly = "PUSHB[ ]	/* 6 values pushed */
39 1 3 0 1 76 
MPPEM[ ]	/* MeasurePixelPerEm */
PUSHB[ ]	/* 1 value pushed */
21 
LT[ ]	/* LessThan */
IF[ ]	/* If */
NPUSHB[ ]	/* 22 values pushed */
0 0 0 4 97 0 4 4 36 77 0 3 3 1 97 2 1 1 1 31 1 78 
ELSE[ ]	/* Else */
MPPEM[ ]	/* MeasurePixelPerEm */
PUSHB[ ]	/* 1 value pushed */
24 
LT[ ]	/* LessThan */
IF[ ]	/* If */
NPUSHB[ ]	/* 20 values pushed */
0 4 0 0 3 4 0 105 0 3 3 1 97 2 1 1 1 31 1 78 
ELSE[ ]	/* Else */
NPUSHB[ ]	/* 25 values pushed */
0 4 0 0 3 4 0 105 0 3 1 1 3 89 0 3 3 1 97 2 1 1 3 1 81 
EIF[ ]	/* EndIf */
EIF[ ]	/* EndIf */
NPUSHB[ ]	/* 12 values pushed */
64 62 48 46 33 32 31 29 36 5 8 23 
CALL[ ]	/* CallFunction */";
};
width = 554;
}
);
leftKerningGroup = S;
note = S;
rightKerningGroup = S;
unicode = 0053;
},
{
glyphname = T;
lastChange = "2022-01-21 01:41:58 +0000";
layers = (
{
layerId = "D6A4831D-747C-4592-93C0-305F4CD57904";
paths = (
{
closed = 1;
nodes = (
"344 -43 OFFCURVE",
"355 -14 OFFCURVE",
"355 0 CURVE SMOOTH",
"351 197 OFFCURVE",
"338 394 OFFCURVE",
"338 591 CURVE SMOOTH",
"338 644 OFFCURVE",
"347 653 OFFCURVE",
"393 655 CURVE SMOOTH",
"426 657 OFFCURVE",
"465 669 OFFCURVE",
"497 679 CURVE SMOOTH",
"511 683 OFFCURVE",
"522 695 OFFCURVE",
"540 707 CURVE",
"488 739 OFFCURVE",
"447 718 OFFCURVE",
"399 710 CURVE SMOOTH",
"361 704 OFFCURVE",
"328 706 OFFCURVE",
"324 753 CURVE SMOOTH",
"322 786 OFFCURVE",
"305 800 OFFCURVE",
"276 799 CURVE SMOOTH",
"239 797 OFFCURVE",
"238 771 OFFCURVE",
"243 743 CURVE SMOOTH",
"249 709 OFFCURVE",
"233 696 OFFCURVE",
"200 696 CURVE SMOOTH",
"158 697 OFFCURVE",
"117 695 OFFCURVE",
"75 692 CURVE SMOOTH",
"63 691 OFFCURVE",
"33 682 OFFCURVE",
"32 675 CURVE SMOOTH",
"30 662 OFFCURVE",
"36 638 OFFCURVE",
"55 630 CURVE SMOOTH",
"75 621 OFFCURVE",
"100 615 OFFCURVE",
"123 617 CURVE SMOOTH",
"168 619 OFFCURVE",
"212 627 OFFCURVE",
"264 633 CURVE",
"271 512 OFFCURVE",
"278 395 OFFCURVE",
"283 277 CURVE SMOOTH",
"288 186 OFFCURVE",
"288 95 OFFCURVE",
"294 4 CURVE SMOOTH",
"295 -12 OFFCURVE",
"306 -43 OFFCURVE",
"325 -43 CURVE SMOOTH"
);
}
);
userData = {
assembly = "MPPEM[ ]	/* MeasurePixelPerEm */
PUSHB[ ]	/* 1 value pushed */
46 
LT[ ]	/* LessThan */
IF[ ]	/* If */
NPUSHB[ ]	/* 14 values pushed */
35 10 3 3 0 4 52 48 39 3 6 0 2 76 
ELSE[ ]	/* Else */
NPUSHB[ ]	/* 14 values pushed */
35 10 3 3 0 5 52 48 39 3 6 0 2 76 
EIF[ ]	/* EndIf */
MPPEM[ ]	/* MeasurePixelPerEm */
PUSHB[ ]	/* 1 value pushed */
21 
LT[ ]	/* LessThan */
IF[ ]	/* If */
NPUSHB[ ]	/* 33 values pushed */
5 1 4 2 0 2 4 0 128 0 0 6 2 0 6 126 0 1 1 30 77 3 1 2 2 32 77 0 6 6 31 6 78 
ELSE[ ]	/* Else */
MPPEM[ ]	/* MeasurePixelPerEm */
PUSHB[ ]	/* 1 value pushed */
39 
LT[ ]	/* LessThan */
IF[ ]	/* If */
NPUSHB[ ]	/* 33 values pushed */
0 1 2 1 133 5 1 4 2 0 2 4 0 128 0 0 6 2 0 6 126 3 1 2 2 32 77 0 6 6 31 6 78 
ELSE[ ]	/* Else */
MPPEM[ ]	/* MeasurePixelPerEm */
PUSHB[ ]	/* 1 value pushed */
44 
LT[ ]	/* LessThan */
IF[ ]	/* If */
NPUSHB[ ]	/* 37 values pushed */
0 1 2 1 133 5 1 4 3 0 3 4 0 128 0 0 6 3 0 6 126 0 2 2 32 77 0 3 3 32 77 0 6 6 31 6 78 
ELSE[ ]	/* Else */
MPPEM[ ]	/* MeasurePixelPerEm */
PUSHB[ ]	/* 1 value pushed */
46 
LT[ ]	/* LessThan */
IF[ ]	/* If */
NPUSHB[ ]	/* 37 values pushed */
0 1 2 1 133 0 2 3 2 133 5 1 4 3 0 3 4 0 128 0 0 6 3 0 6 126 0 3 3 32 77 0 6 6 31 6 78 
ELSE[ ]	/* Else */
NPUSHB[ ]	/* 43 values pushed */
0 1 2 1 133 0 2 3 2 133 0 4 3 5 3 4 5 128 0 5 0 3 5 0 126 0 0 6 3 0 6 126 0 3 3 32 77 0 6 6 31 6 78 
EIF[ ]	/* EndIf */
EIF[ ]	/* EndIf */
EIF[ ]	/* EndIf */
EIF[ ]	/* EndIf */
NPUSHB[ ]	/* 10 values pushed */
46 17 22 33 17 38 38 7 8 29 
CALL[ ]	/* CallFunction */";
};
width = 580;
}
);
leftKerningGroup = T;
note = T;
rightKerningGroup = T;
rightMetricsKey = "=E";
unicode = 0054;
},
{
glyphname = U;
lastChange = "2021-12-07 06:16:40 +0000";
layers = (
{
layerId = "D6A4831D-747C-4592-93C0-305F4CD57904";
paths = (
{
closed = 1;
nodes = (
"556 185 OFFCURVE",
"593 320 OFFCURVE",
"576 468 CURVE SMOOTH",
"567 543 OFFCURVE",
"551 620 OFFCURVE",
"485 673 CURVE SMOOTH",
"472 682 OFFCURVE",
"456 685 OFFCURVE",
"443 691 CURVE",
"467 618 OFFCURVE",
"500 557 OFFCURVE",
"507 492 CURVE SMOOTH",
"525 345 OFFCURVE",
"501 206 OFFCURVE",
"372 108 CURVE SMOOTH",
"277 35 OFFCURVE",
"174 63 OFFCURVE",
"148 180 CURVE SMOOTH",
"126 278 OFFCURVE",
"133 380 OFFCURVE",
"124 482 CURVE SMOOTH",
"123 497 OFFCURVE",
"112 512 OFFCURVE",
"106 528 CURVE",
"90 520 OFFCURVE",
"72 513 OFFCURVE",
"58 503 CURVE SMOOTH",
"52 497 OFFCURVE",
"51 484 OFFCURVE",
"51 473 CURVE SMOOTH",
"51 411 OFFCURVE",
"47 346 OFFCURVE",
"54 285 CURVE SMOOTH",
"61 232 OFFCURVE",
"73 176 OFFCURVE",
"98 130 CURVE SMOOTH",
"174 -18 OFFCURVE",
"330 -40 OFFCURVE",
"448 77 CURVE SMOOTH"
);
}
);
userData = {
assembly = "NPUSHB[ ]	/* 11 values pushed */
58 5 2 2 3 4 1 0 2 2 76 
MPPEM[ ]	/* MeasurePixelPerEm */
PUSHB[ ]	/* 1 value pushed */
21 
LT[ ]	/* LessThan */
IF[ ]	/* If */
NPUSHB[ ]	/* 21 values pushed */
0 1 1 30 77 0 3 3 32 77 0 2 2 0 97 0 0 0 34 0 78 
ELSE[ ]	/* Else */
MPPEM[ ]	/* MeasurePixelPerEm */
PUSHB[ ]	/* 1 value pushed */
34 
LT[ ]	/* LessThan */
IF[ ]	/* If */
NPUSHB[ ]	/* 18 values pushed */
0 1 3 1 133 0 2 0 0 2 0 101 0 3 3 32 3 78 
ELSE[ ]	/* Else */
NPUSHB[ ]	/* 26 values pushed */
0 1 3 1 133 0 3 2 3 133 0 2 0 0 2 89 0 2 2 0 97 0 0 2 0 81 
EIF[ ]	/* EndIf */
EIF[ ]	/* EndIf */
PUSHB[ ]	/* 7 values pushed */
54 44 31 47 4 8 26 
CALL[ ]	/* CallFunction */";
};
width = 650;
}
);
leftKerningGroup = U;
leftMetricsKey = H;
note = U;
rightKerningGroup = U;
rightMetricsKey = O;
unicode = 0055;
},
{
glyphname = V;
lastChange = "2022-01-21 08:28:03 +0000";
layers = (
{
layerId = "D6A4831D-747C-4592-93C0-305F4CD57904";
paths = (
{
closed = 1;
nodes = (
"357 231 OFFCURVE",
"404 350 OFFCURVE",
"450 469 CURVE SMOOTH",
"490 575 OFFCURVE",
"529 682 OFFCURVE",
"570 788 CURVE SMOOTH",
"574 800 OFFCURVE",
"591 808 OFFCURVE",
"602 818 CURVE",
"608 805 OFFCURVE",
"621 789 OFFCURVE",
"618 779 CURVE SMOOTH",
"555 572 OFFCURVE",
"491 365 OFFCURVE",
"424 160 CURVE SMOOTH",
"410 117 OFFCURVE",
"383 78 OFFCURVE",
"357 42 CURVE SMOOTH",
"342 23 OFFCURVE",
"313 -1 OFFCURVE",
"295 2 CURVE SMOOTH",
"272 6 OFFCURVE",
"245 31 OFFCURVE",
"233 54 CURVE SMOOTH",
"170 171 OFFCURVE",
"110 289 OFFCURVE",
"53 409 CURVE SMOOTH",
"40 436 OFFCURVE",
"37 499 OFFCURVE",
"43 501 CURVE SMOOTH",
"90 516 OFFCURVE",
"101 471 OFFCURVE",
"118 441 CURVE SMOOTH",
"178 335 OFFCURVE",
"237 228 OFFCURVE",
"307 102 CURVE"
);
}
);
userData = {
assembly = "PUSHB[ ]	/* 6 values pushed */
14 1 2 0 1 76 
MPPEM[ ]	/* MeasurePixelPerEm */
PUSHB[ ]	/* 1 value pushed */
21 
LT[ ]	/* LessThan */
IF[ ]	/* If */
NPUSHB[ ]	/* 19 values pushed */
0 0 1 2 1 0 2 128 0 1 1 36 77 0 2 2 40 2 78 
ELSE[ ]	/* Else */
NPUSHB[ ]	/* 16 values pushed */
0 1 0 1 133 0 0 2 0 133 0 2 2 40 2 78 
EIF[ ]	/* EndIf */
PUSHB[ ]	/* 8 values pushed */
49 47 27 25 22 3 8 23 
CALL[ ]	/* CallFunction */";
};
width = 648;
}
);
leftKerningGroup = V;
note = V;
rightKerningGroup = V;
unicode = 0056;
},
{
glyphname = W;
lastChange = "2022-01-21 08:28:40 +0000";
layers = (
{
layerId = "D6A4831D-747C-4592-93C0-305F4CD57904";
paths = (
{
closed = 1;
nodes = (
"279 -4 OFFCURVE",
"321 2 OFFCURVE",
"353 59 CURVE SMOOTH",
"370 89 OFFCURVE",
"385 120 OFFCURVE",
"396 152 CURVE SMOOTH",
"421 232 OFFCURVE",
"443 309 OFFCURVE",
"469 397 CURVE",
"483 387 OFFCURVE",
"507 362 OFFCURVE",
"513 352 CURVE SMOOTH",
"529 323 OFFCURVE",
"532 326 OFFCURVE",
"551 291 CURVE SMOOTH",
"594 212 OFFCURVE",
"653 141 OFFCURVE",
"711 73 CURVE SMOOTH",
"755 23 OFFCURVE",
"800 36 OFFCURVE",
"821 99 CURVE SMOOTH",
"832 131 OFFCURVE",
"839 166 OFFCURVE",
"841 199 CURVE SMOOTH",
"851 328 OFFCURVE",
"860 457 OFFCURVE",
"867 586 CURVE SMOOTH",
"867 604 OFFCURVE",
"852 623 OFFCURVE",
"844 641 CURVE",
"833 625 OFFCURVE",
"815 610 OFFCURVE",
"812 592 CURVE SMOOTH",
"800 505 OFFCURVE",
"792 416 OFFCURVE",
"781 328 CURVE SMOOTH",
"774 265 OFFCURVE",
"765 202 OFFCURVE",
"757 139 CURVE",
"751 138 OFFCURVE",
"745 136 OFFCURVE",
"739 135 CURVE",
"703 182 OFFCURVE",
"664 226 OFFCURVE",
"632 276 CURVE SMOOTH",
"595 335 OFFCURVE",
"567 400 OFFCURVE",
"529 458 CURVE SMOOTH",
"514 480 OFFCURVE",
"483 498 OFFCURVE",
"456 504 CURVE SMOOTH",
"446 507 OFFCURVE",
"422 475 OFFCURVE",
"412 455 CURVE SMOOTH",
"399 428 OFFCURVE",
"393 397 OFFCURVE",
"384 368 CURVE SMOOTH",
"301 114 LINE",
"295 114 OFFCURVE",
"290 114 OFFCURVE",
"285 114 CURVE",
"276 128 OFFCURVE",
"267 141 OFFCURVE",
"260 156 CURVE SMOOTH",
"217 252 OFFCURVE",
"175 349 OFFCURVE",
"130 444 CURVE SMOOTH",
"115 475 OFFCURVE",
"95 506 OFFCURVE",
"71 531 CURVE SMOOTH",
"62 541 OFFCURVE",
"38 536 OFFCURVE",
"20 538 CURVE",
"22 521 OFFCURVE",
"20 503 OFFCURVE",
"27 488 CURVE SMOOTH",
"63 411 OFFCURVE",
"101 336 OFFCURVE",
"138 260 CURVE SMOOTH",
"173 190 OFFCURVE",
"204 118 OFFCURVE",
"245 51 CURVE SMOOTH"
);
}
);
userData = {
assembly = "NPUSHB[ ]	/* 14 values pushed */
83 1 0 1 57 55 54 20 2 5 2 0 2 76 
MPPEM[ ]	/* MeasurePixelPerEm */
PUSHB[ ]	/* 1 value pushed */
21 
LT[ ]	/* LessThan */
IF[ ]	/* If */
NPUSHB[ ]	/* 25 values pushed */
0 0 1 2 1 0 2 128 0 2 3 1 2 3 126 0 3 3 132 0 1 1 30 1 78 
ELSE[ ]	/* Else */
MPPEM[ ]	/* MeasurePixelPerEm */
PUSHB[ ]	/* 1 value pushed */
31 
LT[ ]	/* LessThan */
IF[ ]	/* If */
NPUSHB[ ]	/* 25 values pushed */
0 0 1 2 1 0 2 128 0 2 3 1 2 3 126 0 3 3 132 0 1 1 32 1 78 
ELSE[ ]	/* Else */
NPUSHB[ ]	/* 19 values pushed */
0 1 0 1 133 0 0 2 0 133 0 2 3 2 133 0 3 3 118 
EIF[ ]	/* EndIf */
EIF[ ]	/* EndIf */
NPUSHB[ ]	/* 10 values pushed */
69 67 50 48 31 30 40 4 8 23 
CALL[ ]	/* CallFunction */";
};
width = 907;
}
);
leftKerningGroup = W;
note = W;
rightKerningGroup = W;
unicode = 0057;
},
{
glyphname = X;
lastChange = "2022-01-24 00:35:43 +0000";
layers = (
{
layerId = "D6A4831D-747C-4592-93C0-305F4CD57904";
paths = (
{
closed = 1;
nodes = (
"414 246 OFFCURVE",
"503 150 OFFCURVE",
"591 63 CURVE",
"562 39 OFFCURVE",
"530 58 OFFCURVE",
"502 83 CURVE SMOOTH",
"445 134 OFFCURVE",
"390 173 OFFCURVE",
"336 227 CURVE SMOOTH",
"320 243 OFFCURVE",
"307 255 OFFCURVE",
"280 284 CURVE",
"219 197 OFFCURVE",
"173 149 OFFCURVE",
"127 75 CURVE SMOOTH",
"107 42 OFFCURVE",
"85 48 OFFCURVE",
"62 57 CURVE SMOOTH",
"32 69 OFFCURVE",
"40 92 OFFCURVE",
"54 112 CURVE SMOOTH",
"108 190 OFFCURVE",
"163 266 OFFCURVE",
"212 335 CURVE",
"158 394 OFFCURVE",
"102 454 OFFCURVE",
"49 516 CURVE SMOOTH",
"37 529 OFFCURVE",
"32 547 OFFCURVE",
"25 563 CURVE",
"21 585 OFFCURVE",
"79 573 OFFCURVE",
"93 562 CURVE SMOOTH",
"147 517 OFFCURVE",
"197 466 OFFCURVE",
"248 417 CURVE SMOOTH",
"258 408 OFFCURVE",
"258 404 OFFCURVE",
"271 394 CURVE",
"350 471 OFFCURVE",
"436 544 OFFCURVE",
"516 617 CURVE SMOOTH",
"530 629 OFFCURVE",
"561 622 OFFCURVE",
"584 623 CURVE",
"598 605 OFFCURVE",
"582 579 OFFCURVE",
"571 568 CURVE SMOOTH",
"495 494 OFFCURVE",
"467 464 OFFCURVE",
"390 393 CURVE",
"385 383 OFFCURVE",
"330 342 OFFCURVE",
"325 333 CURVE"
);
}
);
userData = {
assembly = "NPUSHB[ ]	/* 20 values pushed */
35 19 10 4 4 0 74 3 1 0 73 0 0 0 118 53 51 1 8 22 
CALL[ ]	/* CallFunction */";
};
width = 631;
}
);
leftKerningGroup = X;
note = X;
rightKerningGroup = X;
unicode = 0058;
},
{
glyphname = Y;
lastChange = "2022-02-01 05:24:15 +0000";
layers = (
{
layerId = "D6A4831D-747C-4592-93C0-305F4CD57904";
paths = (
{
closed = 1;
nodes = (
"228 -88 OFFCURVE",
"235 -72 OFFCURVE",
"244 -48 CURVE SMOOTH",
"273 28 OFFCURVE",
"304 104 OFFCURVE",
"340 177 CURVE SMOOTH",
"417 331 OFFCURVE",
"497 482 OFFCURVE",
"576 635 CURVE SMOOTH",
"589 660 OFFCURVE",
"605 683 OFFCURVE",
"611 709 CURVE SMOOTH",
"615 725 OFFCURVE",
"625 763 OFFCURVE",
"598 763 CURVE",
"579 756 OFFCURVE",
"559 751 OFFCURVE",
"542 741 CURVE SMOOTH",
"534 737 OFFCURVE",
"532 722 OFFCURVE",
"527 712 CURVE SMOOTH",
"374 392 LINE",
"313 442 OFFCURVE",
"260 483 OFFCURVE",
"209 526 CURVE SMOOTH",
"167 560 OFFCURVE",
"127 598 OFFCURVE",
"84 630 CURVE SMOOTH",
"73 637 OFFCURVE",
"50 628 OFFCURVE",
"33 627 CURVE",
"12 602 OFFCURVE",
"40 591 OFFCURVE",
"51 582 CURVE SMOOTH",
"137 513 OFFCURVE",
"223 443 OFFCURVE",
"313 378 CURVE SMOOTH",
"343 357 OFFCURVE",
"346 344 OFFCURVE",
"329 314 CURVE SMOOTH",
"291 247 OFFCURVE",
"255 178 OFFCURVE",
"222 109 CURVE SMOOTH",
"201 66 OFFCURVE",
"186 20 OFFCURVE",
"169 -26 CURVE SMOOTH",
"159 -55 OFFCURVE",
"177 -73 OFFCURVE",
"202 -81 CURVE SMOOTH"
);
}
);
userData = {
assembly = "PUSHB[ ]	/* 8 values pushed */
27 1 0 74 53 1 1 73 
MPPEM[ ]	/* MeasurePixelPerEm */
PUSHB[ ]	/* 1 value pushed */
36 
LT[ ]	/* LessThan */
IF[ ]	/* If */
NPUSHB[ ]	/* 11 values pushed */
0 1 0 1 134 0 0 0 32 0 78 
ELSE[ ]	/* Else */
NPUSHB[ ]	/* 9 values pushed */
0 0 1 0 133 0 1 1 118 
EIF[ ]	/* EndIf */
PUSHB[ ]	/* 5 values pushed */
27 21 2 8 24 
CALL[ ]	/* CallFunction */";
};
width = 646;
}
);
leftKerningGroup = Y;
leftMetricsKey = X;
note = Y;
rightKerningGroup = Y;
unicode = 0059;
},
{
glyphname = Z;
lastChange = "2022-01-24 00:37:12 +0000";
layers = (
{
layerId = "D6A4831D-747C-4592-93C0-305F4CD57904";
paths = (
{
closed = 1;
nodes = (
"285 18 OFFCURVE",
"349 33 OFFCURVE",
"415 42 CURVE SMOOTH",
"506 54 OFFCURVE",
"597 61 OFFCURVE",
"688 74 CURVE SMOOTH",
"706 77 OFFCURVE",
"733 96 OFFCURVE",
"734 109 CURVE SMOOTH",
"737 138 OFFCURVE",
"713 147 OFFCURVE",
"684 144 CURVE SMOOTH",
"614 136 OFFCURVE",
"544 130 OFFCURVE",
"474 122 CURVE SMOOTH",
"410 115 OFFCURVE",
"347 107 OFFCURVE",
"271 97 CURVE",
"294 130 OFFCURVE",
"308 153 OFFCURVE",
"324 175 CURVE SMOOTH",
"399 271 OFFCURVE",
"476 366 OFFCURVE",
"548 465 CURVE SMOOTH",
"568 492 OFFCURVE",
"578 529 OFFCURVE",
"586 563 CURVE SMOOTH",
"590 579 OFFCURVE",
"581 601 OFFCURVE",
"571 615 CURVE SMOOTH",
"545 648 OFFCURVE",
"510 628 OFFCURVE",
"478 628 CURVE SMOOTH",
"350 628 OFFCURVE",
"223 632 OFFCURVE",
"96 637 CURVE SMOOTH",
"67 638 OFFCURVE",
"48 627 OFFCURVE",
"50 603 CURVE SMOOTH",
"51 589 OFFCURVE",
"75 568 OFFCURVE",
"90 566 CURVE SMOOTH",
"152 562 OFFCURVE",
"215 563 OFFCURVE",
"278 563 CURVE SMOOTH",
"353 563 OFFCURVE",
"427 563 OFFCURVE",
"513 563 CURVE",
"500 534 OFFCURVE",
"495 518 OFFCURVE",
"487 506 CURVE SMOOTH",
"391 364 OFFCURVE",
"293 223 OFFCURVE",
"172 99 CURVE SMOOTH",
"158 85 OFFCURVE",
"160 47 OFFCURVE",
"165 21 CURVE SMOOTH",
"171 -12 OFFCURVE",
"199 3 OFFCURVE",
"220 6 CURVE SMOOTH"
);
}
);
userData = {
assembly = "MPPEM[ ]	/* MeasurePixelPerEm */
PUSHB[ ]	/* 1 value pushed */
31 
LT[ ]	/* LessThan */
IF[ ]	/* If */
NPUSHB[ ]	/* 10 values pushed */
2 1 1 0 42 1 3 1 2 76 
ELSE[ ]	/* Else */
NPUSHB[ ]	/* 12 values pushed */
2 1 1 0 42 40 39 3 4 1 2 76 
EIF[ ]	/* EndIf */
MPPEM[ ]	/* MeasurePixelPerEm */
PUSHB[ ]	/* 1 value pushed */
21 
LT[ ]	/* LessThan */
IF[ ]	/* If */
NPUSHB[ ]	/* 31 values pushed */
0 1 0 3 0 1 3 128 0 3 4 0 3 4 126 0 0 0 2 97 0 2 2 36 77 0 4 4 31 4 78 
ELSE[ ]	/* Else */
MPPEM[ ]	/* MeasurePixelPerEm */
PUSHB[ ]	/* 1 value pushed */
31 
LT[ ]	/* LessThan */
IF[ ]	/* If */
NPUSHB[ ]	/* 29 values pushed */
0 1 0 3 0 1 3 128 0 3 4 0 3 4 126 0 2 0 0 1 2 0 105 0 4 4 31 4 78 
ELSE[ ]	/* Else */
MPPEM[ ]	/* MeasurePixelPerEm */
PUSHB[ ]	/* 1 value pushed */
44 
LT[ ]	/* LessThan */
IF[ ]	/* If */
NPUSHB[ ]	/* 22 values pushed */
0 1 0 4 0 1 4 128 0 2 0 0 1 2 0 105 0 4 4 31 4 78 
ELSE[ ]	/* Else */
NPUSHB[ ]	/* 28 values pushed */
0 1 0 4 0 1 4 128 0 4 4 132 0 2 0 0 2 89 0 2 2 0 97 0 0 2 0 81 
EIF[ ]	/* EndIf */
EIF[ ]	/* EndIf */
EIF[ ]	/* EndIf */
NPUSHB[ ]	/* 10 values pushed */
56 54 40 39 40 21 35 5 8 25 
CALL[ ]	/* CallFunction */";
};
width = 754;
}
);
leftKerningGroup = Z;
note = Z;
rightKerningGroup = Z;
unicode = 005A;
},
{
glyphname = bracketleft;
lastChange = "2021-04-26 20:14:29 +0000";
layers = (
{
layerId = "D6A4831D-747C-4592-93C0-305F4CD57904";
paths = (
{
closed = 1;
nodes = (
"164 -124 OFFCURVE",
"196 -125 OFFCURVE",
"228 -123 CURVE SMOOTH",
"284 -119 OFFCURVE",
"340 -113 OFFCURVE",
"396 -105 CURVE SMOOTH",
"407 -103 OFFCURVE",
"415 -83 OFFCURVE",
"424 -71 CURVE",
"413 -66 OFFCURVE",
"401 -56 OFFCURVE",
"390 -56 CURVE SMOOTH",
"332 -58 OFFCURVE",
"274 -64 OFFCURVE",
"218 -66 CURVE SMOOTH",
"144 -69 OFFCURVE",
"129 -56 OFFCURVE",
"125 18 CURVE SMOOTH",
"119 116 OFFCURVE",
"115 214 OFFCURVE",
"109 350 CURVE",
"109 586 LINE SMOOTH",
"109 649 OFFCURVE",
"128 669 OFFCURVE",
"191 668 CURVE SMOOTH",
"211 667 OFFCURVE",
"232 658 OFFCURVE",
"252 657 CURVE SMOOTH",
"268 656 OFFCURVE",
"296 659 OFFCURVE",
"300 668 CURVE SMOOTH",
"308 688 OFFCURVE",
"295 704 OFFCURVE",
"271 712 CURVE SMOOTH",
"201 737 OFFCURVE",
"131 724 OFFCURVE",
"62 711 CURVE SMOOTH",
"52 709 OFFCURVE",
"40 683 OFFCURVE",
"40 669 CURVE SMOOTH",
"49 420 OFFCURVE",
"60 171 OFFCURVE",
"71 -78 CURVE SMOOTH",
"72 -112 OFFCURVE",
"100 -132 OFFCURVE",
"133 -128 CURVE SMOOTH"
);
}
);
userData = {
assembly = "NPUSHB[ ]	/* 34 values pushed */
58 1 0 1 1 76 43 21 6 3 2 74 0 2 1 2 133 0 1 0 1 133 0 0 0 118 53 51 46 44 32 3 8 23 
CALL[ ]	/* CallFunction */";
};
width = 454;
}
);
note = bracketleft;
unicode = 005B;
},
{
glyphname = backslash;
lastChange = "2021-04-26 20:13:52 +0000";
layers = (
{
layerId = "D6A4831D-747C-4592-93C0-305F4CD57904";
paths = (
{
closed = 1;
nodes = (
"399 -32 OFFCURVE",
"403 -18 OFFCURVE",
"396 -4 CURVE SMOOTH",
"391 10 OFFCURVE",
"381 22 OFFCURVE",
"375 35 CURVE SMOOTH",
"334 115 OFFCURVE",
"290 194 OFFCURVE",
"254 276 CURVE SMOOTH",
"210 373 OFFCURVE",
"174 472 OFFCURVE",
"134 570 CURVE SMOOTH",
"126 590 OFFCURVE",
"119 609 OFFCURVE",
"108 627 CURVE SMOOTH",
"100 639 OFFCURVE",
"86 648 OFFCURVE",
"80 654 CURVE",
"46 658 OFFCURVE",
"30 643 OFFCURVE",
"37 618 CURVE SMOOTH",
"39 606 OFFCURVE",
"47 594 OFFCURVE",
"52 582 CURVE SMOOTH",
"65 557 OFFCURVE",
"80 533 OFFCURVE",
"91 508 CURVE SMOOTH",
"140 397 OFFCURVE",
"186 283 OFFCURVE",
"237 172 CURVE SMOOTH",
"271 103 OFFCURVE",
"312 38 OFFCURVE",
"350 -29 CURVE SMOOTH",
"357 -42 OFFCURVE",
"369 -48 OFFCURVE",
"383 -41 CURVE SMOOTH"
);
}
);
userData = {
assembly = "PUSHB[ ]	/* 4 values pushed */
6 1 0 74 
MPPEM[ ]	/* MeasurePixelPerEm */
PUSHB[ ]	/* 1 value pushed */
31 
LT[ ]	/* LessThan */
IF[ ]	/* If */
PUSHB[ ]	/* 6 values pushed */
0 0 0 31 0 78 
ELSE[ ]	/* Else */
PUSHB[ ]	/* 4 values pushed */
0 0 0 118 
EIF[ ]	/* EndIf */
PUSHB[ ]	/* 5 values pushed */
24 23 1 8 22 
CALL[ ]	/* CallFunction */";
};
width = 434;
}
);
note = backslash;
unicode = 005C;
},
{
glyphname = bracketright;
lastChange = "2021-04-26 20:14:41 +0000";
layers = (
{
layerId = "D6A4831D-747C-4592-93C0-305F4CD57904";
paths = (
{
closed = 1;
nodes = (
"374 -59 OFFCURVE",
"386 -30 OFFCURVE",
"384 3 CURVE SMOOTH",
"375 132 OFFCURVE",
"363 261 OFFCURVE",
"353 390 CURVE SMOOTH",
"348 476 OFFCURVE",
"348 563 OFFCURVE",
"380 646 CURVE SMOOTH",
"401 703 OFFCURVE",
"384 728 OFFCURVE",
"325 719 CURVE SMOOTH",
"273 712 OFFCURVE",
"221 705 OFFCURVE",
"168 695 CURVE SMOOTH",
"141 690 OFFCURVE",
"114 683 OFFCURVE",
"89 673 CURVE SMOOTH",
"79 667 OFFCURVE",
"66 649 OFFCURVE",
"69 641 CURVE SMOOTH",
"73 629 OFFCURVE",
"88 617 OFFCURVE",
"101 613 CURVE SMOOTH",
"112 610 OFFCURVE",
"128 616 OFFCURVE",
"139 623 CURVE SMOOTH",
"190 648 OFFCURVE",
"244 657 OFFCURVE",
"304 655 CURVE",
"302 629 OFFCURVE",
"297 604 OFFCURVE",
"298 580 CURVE SMOOTH",
"303 398 OFFCURVE",
"310 217 OFFCURVE",
"318 36 CURVE SMOOTH",
"320 -1 OFFCURVE",
"308 -21 OFFCURVE",
"272 -23 CURVE SMOOTH",
"202 -28 OFFCURVE",
"135 -22 OFFCURVE",
"71 13 CURVE SMOOTH",
"61 18 OFFCURVE",
"44 10 OFFCURVE",
"30 9 CURVE",
"34 -2 OFFCURVE",
"33 -17 OFFCURVE",
"39 -23 CURVE SMOOTH",
"55 -36 OFFCURVE",
"71 -48 OFFCURVE",
"89 -53 CURVE SMOOTH",
"170 -78 OFFCURVE",
"254 -80 OFFCURVE",
"337 -65 CURVE SMOOTH"
);
}
);
userData = {
assembly = "PUSHB[ ]	/* 6 values pushed */
2 1 0 2 1 76 
MPPEM[ ]	/* MeasurePixelPerEm */
PUSHB[ ]	/* 1 value pushed */
29 
LT[ ]	/* LessThan */
IF[ ]	/* If */
NPUSHB[ ]	/* 17 values pushed */
0 2 0 0 2 89 0 2 2 0 97 1 1 0 2 0 81 
ELSE[ ]	/* Else */
NPUSHB[ ]	/* 21 values pushed */
0 1 0 1 134 0 2 0 0 2 89 0 2 2 0 97 0 0 2 0 81 
EIF[ ]	/* EndIf */
NPUSHB[ ]	/* 9 values pushed */
54 52 43 41 39 37 3 8 22 
CALL[ ]	/* CallFunction */";
};
width = 429;
}
);
note = bracketright;
unicode = 005D;
},
{
glyphname = underscore;
lastChange = "2021-04-26 20:17:58 +0000";
layers = (
{
layerId = "D6A4831D-747C-4592-93C0-305F4CD57904";
paths = (
{
closed = 1;
nodes = (
"454 -112 OFFCURVE",
"493 -110 OFFCURVE",
"532 -101 CURVE SMOOTH",
"546 -97 OFFCURVE",
"557 -78 OFFCURVE",
"569 -67 CURVE",
"552 -62 OFFCURVE",
"536 -54 OFFCURVE",
"519 -54 CURVE SMOOTH",
"451 -52 OFFCURVE",
"383 -55 OFFCURVE",
"316 -52 CURVE SMOOTH",
"253 -49 OFFCURVE",
"190 -39 OFFCURVE",
"127 -35 CURVE SMOOTH",
"115 -34 OFFCURVE",
"102 -48 OFFCURVE",
"89 -55 CURVE",
"101 -67 OFFCURVE",
"112 -89 OFFCURVE",
"125 -91 CURVE SMOOTH",
"221 -102 OFFCURVE",
"317 -108 OFFCURVE",
"417 -117 CURVE"
);
}
);
userData = {
assembly = "PUSHB[ ]	/* 2 values pushed */
6 100 
WCVTP[ ]	/* WriteCVTInPixels */
MPPEM[ ]	/* MeasurePixelPerEm */
PUSHB[ ]	/* 1 value pushed */
29 
LT[ ]	/* LessThan */
IF[ ]	/* If */
PUSHB[ ]	/* 7 values pushed */
33 11 2 0 2 1 76 
ELSE[ ]	/* Else */
PUSHB[ ]	/* 7 values pushed */
33 11 2 0 3 1 76 
EIF[ ]	/* EndIf */
MPPEM[ ]	/* MeasurePixelPerEm */
PUSHB[ ]	/* 1 value pushed */
29 
LT[ ]	/* LessThan */
IF[ ]	/* If */
NPUSHB[ ]	/* 24 values pushed */
0 1 2 2 1 112 3 1 2 0 0 2 89 3 1 2 2 0 96 0 0 2 0 80 
ELSE[ ]	/* Else */
NPUSHB[ ]	/* 28 values pushed */
0 1 2 3 1 112 0 2 3 3 2 112 0 3 0 0 3 87 0 3 3 0 96 0 0 3 0 80 
EIF[ ]	/* EndIf */
PUSHB[ ]	/* 7 values pushed */
97 20 40 112 4 8 26 
CALL[ ]	/* CallFunction */
PUSHB[ ]	/* 2 values pushed */
6 0 
WCVTP[ ]	/* WriteCVTInPixels */";
};
width = 660;
}
);
note = underscore;
unicode = 005F;
},
{
glyphname = grave;
lastChange = "2021-11-28 11:55:27 +0000";
layers = (
{
layerId = "D6A4831D-747C-4592-93C0-305F4CD57904";
paths = (
{
closed = 1;
nodes = (
"330 571 OFFCURVE",
"312 576 OFFCURVE",
"273 624 CURVE SMOOTH",
"244 660 OFFCURVE",
"215 695 OFFCURVE",
"180 728 CURVE SMOOTH",
"170 738 OFFCURVE",
"145 739 OFFCURVE",
"128 738 CURVE SMOOTH",
"119 738 OFFCURVE",
"113 722 OFFCURVE",
"106 714 CURVE",
"145 674 OFFCURVE",
"178 642 OFFCURVE",
"211 608 CURVE SMOOTH",
"233 583 OFFCURVE",
"255 557 OFFCURVE",
"280 536 CURVE",
"287 528 OFFCURVE",
"300 524 OFFCURVE",
"312 519 CURVE"
);
}
);
userData = {
assembly = "PUSHB[ ]	/* 2 values pushed */
6 100 
WCVTP[ ]	/* WriteCVTInPixels */
NPUSHB[ ]	/* 13 values pushed */
17 3 2 0 74 0 0 0 118 40 1 8 23 
CALL[ ]	/* CallFunction */
PUSHB[ ]	/* 2 values pushed */
6 0 
WCVTP[ ]	/* WriteCVTInPixels */";
};
width = 397;
}
);
note = grave;
unicode = 0060;
},
{
glyphname = a;
lastChange = "2022-01-24 07:50:23 +0000";
layers = (
{
layerId = "D6A4831D-747C-4592-93C0-305F4CD57904";
paths = (
{
closed = 1;
nodes = (
"469 -10 OFFCURVE",
"457 -17 OFFCURVE",
"432 -13 CURVE SMOOTH",
"380 -2 OFFCURVE",
"369 26 OFFCURVE",
"331 87 CURVE",
"274 29 OFFCURVE",
"276 24 OFFCURVE",
"200 -23 CURVE SMOOTH",
"149 -55 OFFCURVE",
"119 -42 OFFCURVE",
"80 -10 CURVE SMOOTH",
"46 17 OFFCURVE",
"37 64 OFFCURVE",
"54 107 CURVE SMOOTH",
"77 161 OFFCURVE",
"113 206 OFFCURVE",
"152 247 CURVE SMOOTH",
"185 280 OFFCURVE",
"217 312 OFFCURVE",
"253 350 CURVE",
"183 370 OFFCURVE",
"186 359 OFFCURVE",
"98 354 CURVE SMOOTH",
"72 351 OFFCURVE",
"48 352 OFFCURVE",
"41 386 CURVE SMOOTH",
"30 418 OFFCURVE",
"96 432 OFFCURVE",
"142 430 CURVE SMOOTH",
"194 429 OFFCURVE",
"248 427 OFFCURVE",
"300 419 CURVE SMOOTH",
"354 409 OFFCURVE",
"366 378 OFFCURVE",
"331 334 CURVE SMOOTH",
"296 292 OFFCURVE",
"252 254 OFFCURVE",
"216 213 CURVE SMOOTH",
"184 177 OFFCURVE",
"154 137 OFFCURVE",
"125 100 CURVE SMOOTH",
"118 91 OFFCURVE",
"116 77 OFFCURVE",
"116 66 CURVE SMOOTH",
"116 33 OFFCURVE",
"140 15 OFFCURVE",
"167 33 CURVE SMOOTH",
"242 82 OFFCURVE",
"307 143 OFFCURVE",
"310 241 CURVE SMOOTH",
"310 275 OFFCURVE",
"320 295 OFFCURVE",
"343 296 CURVE SMOOTH",
"397 298 OFFCURVE",
"380 256 OFFCURVE",
"385 181 CURVE SMOOTH",
"389 138 OFFCURVE",
"396 96 OFFCURVE",
"426 62 CURVE SMOOTH",
"438 46 OFFCURVE",
"456 34 OFFCURVE",
"474 17 CURVE"
);
}
);
userData = {
assembly = "NPUSHB[ ]	/* 10 values pushed */
34 1 3 5 74 1 8 7 2 76 
MPPEM[ ]	/* MeasurePixelPerEm */
PUSHB[ ]	/* 1 value pushed */
11 
LT[ ]	/* LessThan */
IF[ ]	/* If */
NPUSHB[ ]	/* 47 values pushed */
0 2 3 7 3 2 7 128 0 7 8 3 7 112 0 0 8 6 8 0 6 128 0 5 4 1 3 2 5 3 105 0 6 6 34 77 0 8 8 1 97 0 1 1 40 1 78 
ELSE[ ]	/* Else */
NPUSHB[ ]	/* 48 values pushed */
0 2 3 7 3 2 7 128 0 7 8 3 7 8 126 0 0 8 6 8 0 6 128 0 5 4 1 3 2 5 3 105 0 6 6 34 77 0 8 8 1 97 0 1 1 40 1 78 
EIF[ ]	/* EndIf */
NPUSHB[ ]	/* 14 values pushed */
78 77 69 68 41 38 34 36 25 39 32 9 8 29 
CALL[ ]	/* CallFunction */";
};
width = 514;
}
);
leftKerningGroup = a;
note = a;
rightKerningGroup = a;
unicode = 0061;
},
{
glyphname = b;
lastChange = "2022-02-01 05:19:09 +0000";
layers = (
{
layerId = "D6A4831D-747C-4592-93C0-305F4CD57904";
paths = (
{
closed = 1;
nodes = (
"363 4 OFFCURVE",
"400 42 OFFCURVE",
"419 87 CURVE SMOOTH",
"459 183 OFFCURVE",
"463 285 OFFCURVE",
"427 386 CURVE SMOOTH",
"400 460 OFFCURVE",
"333 494 OFFCURVE",
"256 423 CURVE SMOOTH",
"245 413 OFFCURVE",
"235 400 OFFCURVE",
"226 387 CURVE SMOOTH",
"210 362 OFFCURVE",
"194 337 OFFCURVE",
"175 306 CURVE",
"170 324 OFFCURVE",
"167 335 OFFCURVE",
"165 347 CURVE SMOOTH",
"158 408 OFFCURVE",
"156 469 OFFCURVE",
"145 529 CURVE SMOOTH",
"133 594 OFFCURVE",
"115 658 OFFCURVE",
"124 725 CURVE SMOOTH",
"125 729 OFFCURVE",
"124 732 OFFCURVE",
"124 735 CURVE",
"120 755 OFFCURVE",
"99 772 OFFCURVE",
"80 771 CURVE SMOOTH",
"59 769 OFFCURVE",
"48 753 OFFCURVE",
"50 727 CURVE SMOOTH",
"52 695 OFFCURVE",
"54 664 OFFCURVE",
"58 633 CURVE SMOOTH",
"71 535 OFFCURVE",
"86 437 OFFCURVE",
"97 338 CURVE SMOOTH",
"105 266 OFFCURVE",
"107 194 OFFCURVE",
"114 122 CURVE SMOOTH",
"115 105 OFFCURVE",
"120 87 OFFCURVE",
"129 74 CURVE SMOOTH",
"136 64 OFFCURVE",
"154 55 OFFCURVE",
"165 58 CURVE SMOOTH",
"175 60 OFFCURVE",
"186 76 OFFCURVE",
"190 88 CURVE SMOOTH",
"199 119 OFFCURVE",
"203 152 OFFCURVE",
"211 184 CURVE SMOOTH",
"226 246 OFFCURVE",
"250 304 OFFCURVE",
"287 356 CURVE SMOOTH",
"299 373 OFFCURVE",
"314 399 OFFCURVE",
"338 390 CURVE SMOOTH",
"352 385 OFFCURVE",
"365 361 OFFCURVE",
"369 343 CURVE SMOOTH",
"398 228 OFFCURVE",
"377 72 OFFCURVE",
"259 -9 CURVE SMOOTH",
"251 -14 OFFCURVE",
"247 -23 OFFCURVE",
"241 -30 CURVE",
"271 -58 OFFCURVE",
"297 -62 OFFCURVE",
"327 -32 CURVE SMOOTH"
);
}
);
userData = {
assembly = "NPUSHB[ ]	/* 14 values pushed */
3 1 2 0 21 1 1 2 2 76 59 1 0 74 
MPPEM[ ]	/* MeasurePixelPerEm */
PUSHB[ ]	/* 1 value pushed */
24 
LT[ ]	/* LessThan */
IF[ ]	/* If */
NPUSHB[ ]	/* 19 values pushed */
0 2 0 1 0 2 1 128 0 0 0 33 77 0 1 1 40 1 78 
ELSE[ ]	/* Else */
MPPEM[ ]	/* MeasurePixelPerEm */
PUSHB[ ]	/* 1 value pushed */
41 
LT[ ]	/* LessThan */
IF[ ]	/* If */
NPUSHB[ ]	/* 16 values pushed */
0 0 2 0 133 0 2 1 2 133 0 1 1 40 1 78 
ELSE[ ]	/* Else */
NPUSHB[ ]	/* 14 values pushed */
0 0 2 0 133 0 2 1 2 133 0 1 1 118 
EIF[ ]	/* EndIf */
EIF[ ]	/* EndIf */
PUSHB[ ]	/* 7 values pushed */
45 43 55 40 3 8 24 
CALL[ ]	/* CallFunction */";
};
width = 492;
}
);
leftKerningGroup = b;
leftMetricsKey = h;
note = b;
rightKerningGroup = b;
rightMetricsKey = "=o";
unicode = 0062;
},
{
glyphname = c;
lastChange = "2021-12-05 22:42:38 +0000";
layers = (
{
layerId = "D6A4831D-747C-4592-93C0-305F4CD57904";
paths = (
{
closed = 1;
nodes = (
"299 -17 OFFCURVE",
"377 29 OFFCURVE",
"377 73 CURVE SMOOTH",
"377 133 OFFCURVE",
"334 97 OFFCURVE",
"296 73 CURVE SMOOTH",
"267 53 OFFCURVE",
"248 46 OFFCURVE",
"215 51 CURVE SMOOTH",
"173 61 OFFCURVE",
"101 143 OFFCURVE",
"107 197 CURVE SMOOTH",
"115 274 OFFCURVE",
"151 327 OFFCURVE",
"219 360 CURVE SMOOTH",
"261 380 OFFCURVE",
"270 377 OFFCURVE",
"299 340 CURVE SMOOTH",
"321 314 OFFCURVE",
"343 328 OFFCURVE",
"346 357 CURVE SMOOTH",
"349 401 OFFCURVE",
"301 439 OFFCURVE",
"244 439 CURVE SMOOTH",
"194 439 OFFCURVE",
"153 413 OFFCURVE",
"115 381 CURVE SMOOTH",
"63 338 OFFCURVE",
"40 278 OFFCURVE",
"40 208 CURVE SMOOTH",
"40 94 OFFCURVE",
"138 -17 OFFCURVE",
"245 -17 CURVE SMOOTH"
);
}
);
userData = {
assembly = "PUSHB[ ]	/* 6 values pushed */
39 1 3 2 1 76 
MPPEM[ ]	/* MeasurePixelPerEm */
PUSHB[ ]	/* 1 value pushed */
26 
LT[ ]	/* LessThan */
IF[ ]	/* If */
NPUSHB[ ]	/* 17 values pushed */
0 2 2 33 77 0 3 3 0 98 1 1 0 0 34 0 78 
ELSE[ ]	/* Else */
MPPEM[ ]	/* MeasurePixelPerEm */
PUSHB[ ]	/* 1 value pushed */
44 
LT[ ]	/* LessThan */
IF[ ]	/* If */
NPUSHB[ ]	/* 17 values pushed */
0 2 3 2 133 0 3 3 0 98 1 1 0 0 34 0 78 
ELSE[ ]	/* Else */
NPUSHB[ ]	/* 22 values pushed */
0 2 3 2 133 0 3 0 0 3 89 0 3 3 0 98 1 1 0 3 0 82 
EIF[ ]	/* EndIf */
EIF[ ]	/* EndIf */
PUSHB[ ]	/* 7 values pushed */
45 42 34 17 4 8 26 
CALL[ ]	/* CallFunction */";
};
width = 407;
}
);
leftKerningGroup = o;
leftMetricsKey = "=o";
note = c;
rightKerningGroup = o;
rightMetricsKey = f;
unicode = 0063;
},
{
glyphname = d;
lastChange = "2021-12-05 22:42:08 +0000";
layers = (
{
layerId = "D6A4831D-747C-4592-93C0-305F4CD57904";
paths = (
{
closed = 1;
nodes = (
"116 70 OFFCURVE",
"118 124 OFFCURVE",
"113 162 CURVE SMOOTH",
"110 184 OFFCURVE",
"111 228 OFFCURVE",
"113 258 CURVE SMOOTH",
"116 319 OFFCURVE",
"151 374 OFFCURVE",
"203 390 CURVE SMOOTH",
"302 419 OFFCURVE",
"317 369 OFFCURVE",
"290 286 CURVE SMOOTH",
"253 187 OFFCURVE",
"215 72 OFFCURVE",
"177 70 CURVE"
);
},
{
closed = 1;
nodes = (
"386 0 OFFCURVE",
"408 8 OFFCURVE",
"408 27 CURVE SMOOTH",
"408 47 OFFCURVE",
"390 72 OFFCURVE",
"391 97 CURVE SMOOTH",
"396 174 OFFCURVE",
"382 252 OFFCURVE",
"386 329 CURVE SMOOTH",
"393 450 OFFCURVE",
"408 555 OFFCURVE",
"393 661 CURVE SMOOTH",
"388 690 OFFCURVE",
"385 702 OFFCURVE",
"363 702 CURVE SMOOTH",
"322 702 OFFCURVE",
"333 682 OFFCURVE",
"310 457 CURVE",
"302 457 OFFCURVE",
"246 460 OFFCURVE",
"255 460 CURVE SMOOTH",
"168 460 OFFCURVE",
"89 407 OFFCURVE",
"60 324 CURVE SMOOTH",
"50 293 OFFCURVE",
"47 259 OFFCURVE",
"42 226 CURVE SMOOTH",
"33 159 OFFCURVE",
"56 95 OFFCURVE",
"103 45 CURVE SMOOTH",
"133 10 OFFCURVE",
"174 6 OFFCURVE",
"215 27 CURVE SMOOTH",
"251 46 OFFCURVE",
"273 76 OFFCURVE",
"290 110 CURVE SMOOTH",
"306 142 OFFCURVE",
"325 196 OFFCURVE",
"332 174 CURVE",
"332 100 OFFCURVE",
"324 82 OFFCURVE",
"351 17 CURVE SMOOTH",
"356 5 OFFCURVE",
"364 0 OFFCURVE",
"375 0 CURVE SMOOTH"
);
}
);
userData = {
assembly = "NPUSHB[ ]	/* 15 values pushed */
33 1 3 5 63 1 1 3 56 4 2 0 1 3 76 
MPPEM[ ]	/* MeasurePixelPerEm */
PUSHB[ ]	/* 1 value pushed */
21 
LT[ ]	/* LessThan */
IF[ ]	/* If */
NPUSHB[ ]	/* 30 values pushed */
0 1 3 0 3 1 0 128 0 5 5 30 77 4 1 3 3 33 77 0 0 0 34 77 0 2 2 40 2 78 
ELSE[ ]	/* Else */
MPPEM[ ]	/* MeasurePixelPerEm */
PUSHB[ ]	/* 1 value pushed */
44 
LT[ ]	/* LessThan */
IF[ ]	/* If */
NPUSHB[ ]	/* 30 values pushed */
0 5 3 5 133 0 1 3 0 3 1 0 128 4 1 3 3 33 77 0 0 0 34 77 0 2 2 40 2 78 
ELSE[ ]	/* Else */
NPUSHB[ ]	/* 32 values pushed */
0 5 3 5 133 0 1 3 0 3 1 0 128 0 0 2 3 0 2 126 4 1 3 3 33 77 0 2 2 40 2 78 
EIF[ ]	/* EndIf */
EIF[ ]	/* EndIf */
NPUSHB[ ]	/* 9 values pushed */
43 34 41 35 35 37 6 8 28 
CALL[ ]	/* CallFunction */";
};
width = 458;
}
);
leftKerningGroup = d;
leftMetricsKey = "=o";
note = d;
rightMetricsKey = H;
unicode = 0064;
},
{
glyphname = e;
lastChange = "2022-01-30 03:25:16 +0000";
layers = (
{
layerId = "D6A4831D-747C-4592-93C0-305F4CD57904";
paths = (
{
closed = 1;
nodes = (
"323 -8 OFFCURVE",
"442 10 OFFCURVE",
"442 45 CURVE SMOOTH",
"442 103 OFFCURVE",
"383 70 OFFCURVE",
"309 64 CURVE SMOOTH",
"199 55 OFFCURVE",
"127 96 OFFCURVE",
"118 175 CURVE",
"255 244 OFFCURVE",
"332 275 OFFCURVE",
"371 352 CURVE SMOOTH",
"391 399 OFFCURVE",
"370 448 OFFCURVE",
"313 458 CURVE",
"304 463 OFFCURVE",
"292 466 OFFCURVE",
"280 466 CURVE SMOOTH",
"199 466 OFFCURVE",
"118 405 OFFCURVE",
"72 323 CURVE",
"43 281 OFFCURVE",
"38 249 OFFCURVE",
"41 164 CURVE",
"50 106 OFFCURVE",
"98 52 OFFCURVE",
"147 20 CURVE",
"195 -9 OFFCURVE",
"226 -8 OFFCURVE",
"275 -8 CURVE SMOOTH"
);
},
{
closed = 1;
nodes = (
"156 344 OFFCURVE",
"205 392 OFFCURVE",
"269 392 CURVE SMOOTH",
"279 392 OFFCURVE",
"291 391 OFFCURVE",
"304 390 CURVE",
"275 313 OFFCURVE",
"202 274 OFFCURVE",
"115 245 CURVE"
);
}
);
userData = {
assembly = "PUSHB[ ]	/* 6 values pushed */
50 1 2 4 1 76 
MPPEM[ ]	/* MeasurePixelPerEm */
PUSHB[ ]	/* 1 value pushed */
31 
LT[ ]	/* LessThan */
IF[ ]	/* If */
NPUSHB[ ]	/* 29 values pushed */
0 2 4 0 4 2 0 128 0 0 0 4 97 0 4 4 33 77 0 1 1 3 97 0 3 3 40 3 78 
ELSE[ ]	/* Else */
NPUSHB[ ]	/* 27 values pushed */
0 2 4 0 4 2 0 128 0 4 0 0 1 4 0 105 0 1 1 3 97 0 3 3 40 3 78 
EIF[ ]	/* EndIf */
PUSHB[ ]	/* 8 values pushed */
41 39 36 37 16 5 8 27 
CALL[ ]	/* CallFunction */";
};
width = 472;
}
);
leftMetricsKey = "=o";
note = e;
rightKerningGroup = e;
rightMetricsKey = c;
unicode = 0065;
},
{
glyphname = f;
lastChange = "2021-12-04 00:49:00 +0000";
layers = (
{
layerId = "D6A4831D-747C-4592-93C0-305F4CD57904";
paths = (
{
closed = 1;
nodes = (
"253 -133 OFFCURVE",
"258 -96 OFFCURVE",
"255 -43 CURVE SMOOTH",
"253 -8 OFFCURVE",
"238 41 OFFCURVE",
"229 76 CURVE SMOOTH",
"220 109 OFFCURVE",
"208 255 OFFCURVE",
"197 293 CURVE",
"259 303 LINE SMOOTH",
"293 308 OFFCURVE",
"329 311 OFFCURVE",
"363 318 CURVE SMOOTH",
"389 324 OFFCURVE",
"400 331 OFFCURVE",
"400 345 CURVE SMOOTH",
"400 355 OFFCURVE",
"395 368 OFFCURVE",
"385 386 CURVE",
"193 374 OFFCURVE",
"188 350 OFFCURVE",
"186 366 CURVE SMOOTH",
"177 435 OFFCURVE",
"176 520 OFFCURVE",
"181 589 CURVE SMOOTH",
"184 633 OFFCURVE",
"233 684 OFFCURVE",
"263 684 CURVE SMOOTH",
"276 684 OFFCURVE",
"290 674 OFFCURVE",
"308 653 CURVE SMOOTH",
"316 644 OFFCURVE",
"322 633 OFFCURVE",
"334 633 CURVE SMOOTH",
"346 633 OFFCURVE",
"347 640 OFFCURVE",
"347 661 CURVE SMOOTH",
"347 693 OFFCURVE",
"330 721 OFFCURVE",
"295 743 CURVE SMOOTH",
"263 765 OFFCURVE",
"231 762 OFFCURVE",
"201 738 CURVE SMOOTH",
"159 703 OFFCURVE",
"128 659 OFFCURVE",
"123 600 CURVE SMOOTH",
"118 555 OFFCURVE",
"115 535 OFFCURVE",
"115 490 CURVE SMOOTH",
"115 465 OFFCURVE",
"116 415 OFFCURVE",
"119 389 CURVE SMOOTH",
"122 360 OFFCURVE",
"116 352 OFFCURVE",
"93 344 CURVE SMOOTH",
"39 326 OFFCURVE",
"7 324 OFFCURVE",
"17 292 CURVE SMOOTH",
"24 267 OFFCURVE",
"40 254 OFFCURVE",
"63 262 CURVE SMOOTH",
"86 269 OFFCURVE",
"108 277 OFFCURVE",
"134 286 CURVE",
"152 230 OFFCURVE",
"169 67 OFFCURVE",
"186 19 CURVE SMOOTH",
"192 1 OFFCURVE",
"196 -33 OFFCURVE",
"196 -51 CURVE SMOOTH",
"196 -76 OFFCURVE",
"188 -94 OFFCURVE",
"188 -108 CURVE SMOOTH",
"188 -134 OFFCURVE",
"194 -178 OFFCURVE",
"221 -158 CURVE SMOOTH"
);
}
);
userData = {
assembly = "NPUSHB[ ]	/* 41 values pushed */
68 4 2 0 3 38 19 2 1 0 2 76 0 2 3 2 133 0 3 0 3 133 0 0 1 0 133 0 1 1 118 66 64 59 57 31 29 33 4 8 23 
CALL[ ]	/* CallFunction */";
};
width = 430;
}
);
leftMetricsKey = f;
note = f;
rightKerningGroup = f;
unicode = 0066;
},
{
glyphname = g;
lastChange = "2022-01-21 08:04:09 +0000";
layers = (
{
layerId = "D6A4831D-747C-4592-93C0-305F4CD57904";
paths = (
{
closed = 1;
nodes = (
"313 -367 OFFCURVE",
"362 -305 OFFCURVE",
"368 -261 CURVE SMOOTH",
"375 -217 OFFCURVE",
"383 -173 OFFCURVE",
"384 -128 CURVE SMOOTH",
"387 3 OFFCURVE",
"341 195 OFFCURVE",
"331 265 CURVE",
"330 281 OFFCURVE",
"325 293 OFFCURVE",
"343 299 CURVE SMOOTH",
"360 304 OFFCURVE",
"366 316 OFFCURVE",
"360 342 CURVE SMOOTH",
"350 392 OFFCURVE",
"308 421 OFFCURVE",
"256 434 CURVE SMOOTH",
"219 443 OFFCURVE",
"182 431 OFFCURVE",
"154 405 CURVE SMOOTH",
"113 369 OFFCURVE",
"79 328 OFFCURVE",
"61 276 CURVE SMOOTH",
"49 244 OFFCURVE",
"40 211 OFFCURVE",
"40 178 CURVE SMOOTH",
"40 124 OFFCURVE",
"63 71 OFFCURVE",
"116 59 CURVE SMOOTH",
"152 53 OFFCURVE",
"181 64 OFFCURVE",
"208 100 CURVE SMOOTH",
"228 126 OFFCURVE",
"249 149 OFFCURVE",
"274 181 CURVE",
"280 164 OFFCURVE",
"284 156 OFFCURVE",
"285 147 CURVE SMOOTH",
"293 84 OFFCURVE",
"297 20 OFFCURVE",
"309 -43 CURVE SMOOTH",
"321 -108 OFFCURVE",
"317 -158 OFFCURVE",
"299 -247 CURVE SMOOTH",
"293 -277 OFFCURVE",
"278 -305 OFFCURVE",
"253 -305 CURVE",
"179 -255 OFFCURVE",
"162 -204 OFFCURVE",
"138 -204 CURVE SMOOTH",
"121 -205 OFFCURVE",
"119 -226 OFFCURVE",
"127 -240 CURVE SMOOTH",
"156 -298 OFFCURVE",
"201 -367 OFFCURVE",
"269 -367 CURVE SMOOTH"
);
},
{
closed = 1;
nodes = (
"113 131 OFFCURVE",
"109 150 OFFCURVE",
"109 169 CURVE SMOOTH",
"109 251 OFFCURVE",
"150 313 OFFCURVE",
"206 365 CURVE SMOOTH",
"223 379 OFFCURVE",
"243 390 OFFCURVE",
"262 371 CURVE",
"258 336 OFFCURVE",
"257 300 OFFCURVE",
"249 266 CURVE SMOOTH",
"234 198 OFFCURVE",
"193 147 OFFCURVE",
"132 113 CURVE"
);
}
);
userData = {
assembly = "NPUSHB[ ]	/* 11 values pushed */
98 92 49 25 20 3 6 1 3 1 76 
MPPEM[ ]	/* MeasurePixelPerEm */
PUSHB[ ]	/* 1 value pushed */
26 
LT[ ]	/* LessThan */
IF[ ]	/* If */
NPUSHB[ ]	/* 26 values pushed */
0 3 2 1 2 3 1 128 0 1 0 0 1 0 101 0 4 4 33 77 0 2 2 33 2 78 
ELSE[ ]	/* Else */
NPUSHB[ ]	/* 28 values pushed */
0 2 4 3 4 2 3 128 0 3 1 4 3 1 126 0 1 0 0 1 0 101 0 4 4 33 4 78 
EIF[ ]	/* EndIf */
NPUSHB[ ]	/* 12 values pushed */
72 70 67 65 61 59 34 32 45 5 8 23 
CALL[ ]	/* CallFunction */";
};
width = 434;
}
);
leftMetricsKey = "=o";
note = g;
rightMetricsKey = d;
unicode = 0067;
},
{
glyphname = h;
lastChange = "2021-12-04 02:54:17 +0000";
layers = (
{
layerId = "D6A4831D-747C-4592-93C0-305F4CD57904";
paths = (
{
closed = 1;
nodes = (
"377 -32 OFFCURVE",
"447 16 CURVE",
"422 110 OFFCURVE",
"399 198 OFFCURVE",
"375 283 CURVE SMOOTH",
"368 305 OFFCURVE",
"359 327 OFFCURVE",
"348 348 CURVE SMOOTH",
"335 367 OFFCURVE",
"318 377 OFFCURVE",
"300 377 CURVE SMOOTH",
"265 377 OFFCURVE",
"253 335 OFFCURVE",
"215 269 CURVE SMOOTH",
"196 232 OFFCURVE",
"183 198 OFFCURVE",
"138 159 CURVE",
"136 223 OFFCURVE",
"131 280 OFFCURVE",
"131 337 CURVE SMOOTH",
"131 372 OFFCURVE",
"131 459 OFFCURVE",
"131 459 CURVE SMOOTH",
"131 522 OFFCURVE",
"135 553 OFFCURVE",
"109 597 CURVE SMOOTH",
"100 611 OFFCURVE",
"87 625 OFFCURVE",
"67 614 CURVE SMOOTH",
"34 598 OFFCURVE",
"60 533 OFFCURVE",
"60 483 CURVE SMOOTH",
"63 377 OFFCURVE",
"63 272 OFFCURVE",
"69 168 CURVE SMOOTH",
"70 128 OFFCURVE",
"90 53 OFFCURVE",
"129 53 CURVE SMOOTH",
"140 53 OFFCURVE",
"153 60 OFFCURVE",
"167 73 CURVE SMOOTH",
"210 114 OFFCURVE",
"240 188 OFFCURVE",
"300 289 CURVE",
"327 184 OFFCURVE"
);
}
);
userData = {
assembly = "NPUSHB[ ]	/* 10 values pushed */
2 1 2 0 10 1 1 3 2 76 
MPPEM[ ]	/* MeasurePixelPerEm */
PUSHB[ ]	/* 1 value pushed */
49 
LT[ ]	/* LessThan */
IF[ ]	/* If */
NPUSHB[ ]	/* 24 values pushed */
0 1 3 1 134 0 0 0 2 3 0 2 105 0 4 4 32 77 0 3 3 31 3 78 
ELSE[ ]	/* Else */
NPUSHB[ ]	/* 26 values pushed */
0 3 2 1 2 3 1 128 0 1 1 132 0 0 0 2 3 0 2 105 0 4 4 32 4 78 
EIF[ ]	/* EndIf */
PUSHB[ ]	/* 8 values pushed */
46 22 25 26 35 5 8 27 
CALL[ ]	/* CallFunction */";
};
width = 497;
}
);
leftKerningGroup = b;
leftMetricsKey = "=n";
note = h;
rightKerningGroup = b;
rightMetricsKey = "=n";
unicode = 0068;
},
{
glyphname = i;
lastChange = "2022-01-21 08:23:32 +0000";
layers = (
{
layerId = "D6A4831D-747C-4592-93C0-305F4CD57904";
paths = (
{
closed = 1;
nodes = (
"134 -9 OFFCURVE",
"143 6 OFFCURVE",
"143 30 CURVE SMOOTH",
"142 111 OFFCURVE",
"142 193 OFFCURVE",
"142 274 CURVE SMOOTH",
"142 286 OFFCURVE",
"146 297 OFFCURVE",
"146 307 CURVE SMOOTH",
"145 331 OFFCURVE",
"129 348 OFFCURVE",
"112 350 CURVE SMOOTH",
"92 352 OFFCURVE",
"74 338 OFFCURVE",
"72 313 CURVE",
"65 239 LINE",
"70 180 OFFCURVE",
"74 122 OFFCURVE",
"81 64 CURVE SMOOTH",
"84 35 OFFCURVE",
"102 -28 OFFCURVE",
"127 -13 CURVE SMOOTH"
);
},
{
closed = 1;
nodes = (
"182 392 OFFCURVE",
"191 402 OFFCURVE",
"191 417 CURVE SMOOTH",
"191 445 OFFCURVE",
"166 457 OFFCURVE",
"137 487 CURVE SMOOTH",
"129 497 OFFCURVE",
"121 501 OFFCURVE",
"114 501 CURVE SMOOTH",
"104 501 OFFCURVE",
"93 494 OFFCURVE",
"82 480 CURVE",
"100 443 OFFCURVE",
"130 421 OFFCURVE",
"157 398 CURVE SMOOTH",
"162 394 OFFCURVE",
"167 392 OFFCURVE",
"172 392 CURVE SMOOTH"
);
}
);
userData = {
assembly = "NPUSHB[ ]	/* 11 values pushed */
7 2 2 1 0 16 1 2 1 2 76 
MPPEM[ ]	/* MeasurePixelPerEm */
PUSHB[ ]	/* 1 value pushed */
41 
LT[ ]	/* LessThan */
IF[ ]	/* If */
NPUSHB[ ]	/* 16 values pushed */
0 0 1 0 133 0 1 1 2 97 0 2 2 40 2 78 
ELSE[ ]	/* Else */
NPUSHB[ ]	/* 21 values pushed */
0 0 1 0 133 0 1 2 2 1 89 0 1 1 2 97 0 2 1 2 81 
EIF[ ]	/* EndIf */
PUSHB[ ]	/* 6 values pushed */
40 42 41 3 8 25 
CALL[ ]	/* CallFunction */";
};
width = 226;
}
);
leftKerningGroup = i;
note = i;
rightKerningGroup = t;
unicode = 0069;
},
{
glyphname = j;
lastChange = "2021-12-23 11:30:03 +0000";
layers = (
{
layerId = "D6A4831D-747C-4592-93C0-305F4CD57904";
paths = (
{
closed = 1;
nodes = (
"200 -287 OFFCURVE",
"238 -231 OFFCURVE",
"254 -183 CURVE SMOOTH",
"275 -119 OFFCURVE",
"288 -54 OFFCURVE",
"288 12 CURVE SMOOTH",
"288 38 OFFCURVE",
"286 63 OFFCURVE",
"282 89 CURVE SMOOTH",
"267 183 OFFCURVE",
"254 331 OFFCURVE",
"237 369 CURVE SMOOTH",
"222 402 OFFCURVE",
"195 392 OFFCURVE",
"179 353 CURVE",
"180 308 OFFCURVE",
"187 259 OFFCURVE",
"198 210 CURVE SMOOTH",
"214 139 OFFCURVE",
"218 66 OFFCURVE",
"218 -7 CURVE SMOOTH",
"218 -71 OFFCURVE",
"203 -189 OFFCURVE",
"155 -220 CURVE SMOOTH",
"152 -222 OFFCURVE",
"148 -222 OFFCURVE",
"144 -223 CURVE",
"84 -218 OFFCURVE",
"69 -165 OFFCURVE",
"45 -127 CURVE",
"34 -123 OFFCURVE",
"20 -119 OFFCURVE",
"11 -131 CURVE SMOOTH",
"-24 -178 OFFCURVE",
"33 -233 OFFCURVE",
"83 -265 CURVE SMOOTH",
"103 -278 OFFCURVE",
"125 -287 OFFCURVE",
"154 -287 CURVE SMOOTH"
);
},
{
closed = 1;
nodes = (
"218 463 OFFCURVE",
"237 468 OFFCURVE",
"243 478 CURVE SMOOTH",
"249 488 OFFCURVE",
"254 510 OFFCURVE",
"248 517 CURVE SMOOTH",
"236 531 OFFCURVE",
"216 548 OFFCURVE",
"199 548 CURVE SMOOTH",
"170 546 OFFCURVE",
"154 531 OFFCURVE",
"144 511 CURVE SMOOTH",
"140 504 OFFCURVE",
"142 488 OFFCURVE",
"146 481 CURVE SMOOTH",
"153 469 OFFCURVE",
"176 463 OFFCURVE",
"198 463 CURVE SMOOTH"
);
}
);
userData = {
assembly = "NPUSHB[ ]	/* 63 values pushed */
8 1 0 1 28 1 4 2 55 1 5 4 3 76 0 1 0 1 133 0 0 2 0 133 0 2 4 2 133 0 4 5 4 133 0 5 3 3 5 89 0 5 5 3 97 0 3 5 3 81 70 68 61 59 52 50 34 33 40 33 6 8 24 
CALL[ ]	/* CallFunction */";
};
width = 338;
}
);
leftKerningGroup = j;
note = j;
rightKerningGroup = j;
rightMetricsKey = d;
unicode = 006A;
},
{
glyphname = k;
lastChange = "2022-01-30 03:28:10 +0000";
layers = (
{
layerId = "D6A4831D-747C-4592-93C0-305F4CD57904";
paths = (
{
closed = 1;
nodes = (
"480 -8 OFFCURVE",
"487 40 OFFCURVE",
"453 55 CURVE SMOOTH",
"443 60 OFFCURVE",
"333 76 OFFCURVE",
"269 87 CURVE SMOOTH",
"253 91 OFFCURVE",
"231 96 OFFCURVE",
"213 111 CURVE",
"220 117 OFFCURVE",
"237 123 OFFCURVE",
"244 127 CURVE SMOOTH",
"307 164 OFFCURVE",
"357 213 OFFCURVE",
"401 270 CURVE SMOOTH",
"426 302 OFFCURVE",
"440 338 OFFCURVE",
"445 379 CURVE SMOOTH",
"450 422 OFFCURVE",
"422 453 OFFCURVE",
"384 453 CURVE SMOOTH",
"361 453 OFFCURVE",
"319 435 OFFCURVE",
"302 420 CURVE SMOOTH",
"266 387 OFFCURVE",
"235 361 OFFCURVE",
"202 326 CURVE SMOOTH",
"180 302 OFFCURVE",
"139 230 OFFCURVE",
"143 267 CURVE SMOOTH",
"171 554 OFFCURVE",
"183 603 OFFCURVE",
"183 630 CURVE SMOOTH",
"183 655 OFFCURVE",
"164 669 OFFCURVE",
"145 666 CURVE SMOOTH",
"113 661 OFFCURVE",
"114 616 OFFCURVE",
"103 518 CURVE SMOOTH",
"52 82 LINE SMOOTH",
"51 73 OFFCURVE",
"50 66 OFFCURVE",
"50 60 CURVE SMOOTH",
"50 38 OFFCURVE",
"55 -4 OFFCURVE",
"94 22 CURVE",
"129 82 LINE",
"203 28 OFFCURVE",
"271 14 OFFCURVE",
"345 1 CURVE SMOOTH",
"376 -5 OFFCURVE",
"409 -4 OFFCURVE",
"439 -5 CURVE SMOOTH"
);
},
{
closed = 1;
nodes = (
"170 230 OFFCURVE",
"277 327 OFFCURVE",
"362 374 CURVE",
"363 370 OFFCURVE",
"363 367 OFFCURVE",
"363 363 CURVE SMOOTH",
"363 302 OFFCURVE",
"257 178 OFFCURVE",
"152 155 CURVE"
);
}
);
userData = {
assembly = "NPUSHB[ ]	/* 12 values pushed */
66 1 0 1 1 76 45 4 2 3 0 73 
MPPEM[ ]	/* MeasurePixelPerEm */
PUSHB[ ]	/* 1 value pushed */
21 
LT[ ]	/* LessThan */
IF[ ]	/* If */
NPUSHB[ ]	/* 11 values pushed */
0 0 1 0 134 0 1 1 36 1 78 
ELSE[ ]	/* Else */
NPUSHB[ ]	/* 9 values pushed */
0 1 0 1 133 0 0 0 118 
EIF[ ]	/* EndIf */
PUSHB[ ]	/* 6 values pushed */
64 62 40 2 8 23 
CALL[ ]	/* CallFunction */";
};
width = 505;
}
);
leftKerningGroup = k;
leftMetricsKey = "=n";
note = k;
rightKerningGroup = k;
rightMetricsKey = c;
unicode = 006B;
},
{
glyphname = l;
lastChange = "2022-01-30 03:26:26 +0000";
layers = (
{
layerId = "D6A4831D-747C-4592-93C0-305F4CD57904";
paths = (
{
closed = 1;
nodes = (
"172 -17 OFFCURVE",
"182 -1 OFFCURVE",
"187 9 CURVE SMOOTH",
"189 16 OFFCURVE",
"188 27 OFFCURVE",
"185 33 CURVE SMOOTH",
"164 70 OFFCURVE",
"168 112 OFFCURVE",
"165 153 CURVE SMOOTH",
"159 238 OFFCURVE",
"152 324 OFFCURVE",
"147 411 CURVE SMOOTH",
"141 596 LINE",
"135 635 OFFCURVE",
"129 675 OFFCURVE",
"120 711 CURVE SMOOTH",
"115 730 OFFCURVE",
"95 744 OFFCURVE",
"76 745 CURVE SMOOTH",
"56 745 OFFCURVE",
"40 734 OFFCURVE",
"40 707 CURVE SMOOTH",
"39 678 OFFCURVE",
"59 659 OFFCURVE",
"64 618 CURVE SMOOTH",
"75 490 OFFCURVE",
"85 360 OFFCURVE",
"95 230 CURVE SMOOTH",
"101 169 OFFCURVE",
"106 105 OFFCURVE",
"115 44 CURVE SMOOTH",
"119 23 OFFCURVE",
"136 -15 OFFCURVE",
"161 -17 CURVE SMOOTH"
);
}
);
userData = {
assembly = "NPUSHB[ ]	/* 11 values pushed */
25 1 0 2 39 35 2 1 0 2 76 
MPPEM[ ]	/* MeasurePixelPerEm */
PUSHB[ ]	/* 1 value pushed */
21 
LT[ ]	/* LessThan */
IF[ ]	/* If */
NPUSHB[ ]	/* 19 values pushed */
0 0 2 1 2 0 1 128 0 2 2 36 77 0 1 1 31 1 78 
ELSE[ ]	/* Else */
MPPEM[ ]	/* MeasurePixelPerEm */
PUSHB[ ]	/* 1 value pushed */
49 
LT[ ]	/* LessThan */
IF[ ]	/* If */
NPUSHB[ ]	/* 16 values pushed */
0 2 0 2 133 0 0 1 0 133 0 1 1 31 1 78 
ELSE[ ]	/* Else */
NPUSHB[ ]	/* 14 values pushed */
0 2 0 2 133 0 0 1 0 133 0 1 1 118 
EIF[ ]	/* EndIf */
EIF[ ]	/* EndIf */
PUSHB[ ]	/* 6 values pushed */
44 40 34 3 8 25 
CALL[ ]	/* CallFunction */";
};
width = 248;
}
);
leftKerningGroup = l;
note = l;
rightKerningGroup = l;
unicode = 006C;
},
{
glyphname = m;
lastChange = "2021-12-07 04:06:27 +0000";
layers = (
{
layerId = "D6A4831D-747C-4592-93C0-305F4CD57904";
paths = (
{
closed = 1;
nodes = (
"143 -19 OFFCURVE",
"160 0 OFFCURVE",
"172 20 CURVE SMOOTH",
"196 59 OFFCURVE",
"220 97 OFFCURVE",
"241 137 CURVE SMOOTH",
"267 187 OFFCURVE",
"291 238 OFFCURVE",
"317 289 CURVE",
"350 221 OFFCURVE",
"339 245 OFFCURVE",
"354 154 CURVE SMOOTH",
"362 125 OFFCURVE",
"366 95 OFFCURVE",
"378 68 CURVE SMOOTH",
"403 14 OFFCURVE",
"436 12 OFFCURVE",
"472 59 CURVE SMOOTH",
"511 109 OFFCURVE",
"537 163 OFFCURVE",
"556 223 CURVE SMOOTH",
"564 248 OFFCURVE",
"569 273 OFFCURVE",
"592 294 CURVE",
"604 264 OFFCURVE",
"615 240 OFFCURVE",
"623 215 CURVE SMOOTH",
"645 157 OFFCURVE",
"665 96 OFFCURVE",
"687 36 CURVE SMOOTH",
"691 26 OFFCURVE",
"706 12 OFFCURVE",
"715 13 CURVE",
"750 30 OFFCURVE",
"750 30 OFFCURVE",
"740 77 CURVE SMOOTH",
"735 98 OFFCURVE",
"729 116 OFFCURVE",
"725 136 CURVE SMOOTH",
"704 202 OFFCURVE",
"686 267 OFFCURVE",
"664 333 CURVE SMOOTH",
"654 362 OFFCURVE",
"640 394 OFFCURVE",
"600 394 CURVE SMOOTH",
"564 394 OFFCURVE",
"542 371 OFFCURVE",
"526 341 CURVE SMOOTH",
"540 365 OFFCURVE",
"466 196 OFFCURVE",
"439 141 CURVE",
"429 169 OFFCURVE",
"424 186 OFFCURVE",
"420 203 CURVE SMOOTH",
"416 220 OFFCURVE",
"403 312 OFFCURVE",
"390 346 CURVE SMOOTH",
"371 397 OFFCURVE",
"321 406 OFFCURVE",
"285 365 CURVE SMOOTH",
"271 350 OFFCURVE",
"259 330 OFFCURVE",
"249 312 CURVE SMOOTH",
"222 259 OFFCURVE",
"198 203 OFFCURVE",
"171 149 CURVE SMOOTH",
"164 133 OFFCURVE",
"141 102 OFFCURVE",
"132 87 CURVE",
"132 87 OFFCURVE",
"131 75 OFFCURVE",
"124 148 CURVE SMOOTH",
"122 281 OFFCURVE",
"131 289 OFFCURVE",
"113 403 CURVE SMOOTH",
"110 426 OFFCURVE",
"95 440 OFFCURVE",
"71 436 CURVE SMOOTH",
"47 431 OFFCURVE",
"50 411 OFFCURVE",
"50 391 CURVE SMOOTH",
"52 321 OFFCURVE",
"52 251 OFFCURVE",
"56 180 CURVE SMOOTH",
"59 134 OFFCURVE",
"63 87 OFFCURVE",
"70 41 CURVE SMOOTH",
"74 15 OFFCURVE",
"89 -7 OFFCURVE",
"115 -13 CURVE SMOOTH"
);
}
);
userData = {
assembly = "NPUSHB[ ]	/* 11 values pushed */
1 1 1 3 93 79 2 0 1 2 76 
MPPEM[ ]	/* MeasurePixelPerEm */
PUSHB[ ]	/* 1 value pushed */
24 
LT[ ]	/* LessThan */
IF[ ]	/* If */
NPUSHB[ ]	/* 40 values pushed */
0 3 5 1 5 3 1 128 0 6 6 33 77 0 2 2 33 77 0 1 1 4 97 0 4 4 33 77 0 5 5 0 97 7 1 0 0 34 0 78 
ELSE[ ]	/* Else */
MPPEM[ ]	/* MeasurePixelPerEm */
PUSHB[ ]	/* 1 value pushed */
39 
LT[ ]	/* LessThan */
IF[ ]	/* If */
NPUSHB[ ]	/* 43 values pushed */
0 2 4 5 4 2 5 128 0 3 5 1 5 3 1 128 0 6 6 33 77 0 1 1 4 97 0 4 4 33 77 0 5 5 0 97 7 1 0 0 34 0 78 
ELSE[ ]	/* Else */
MPPEM[ ]	/* MeasurePixelPerEm */
PUSHB[ ]	/* 1 value pushed */
46 
LT[ ]	/* LessThan */
IF[ ]	/* If */
NPUSHB[ ]	/* 43 values pushed */
0 6 4 6 133 0 2 4 5 4 2 5 128 0 3 5 1 5 3 1 128 0 1 1 4 97 0 4 4 33 77 0 5 5 0 97 7 1 0 0 34 0 78 
ELSE[ ]	/* Else */
NPUSHB[ ]	/* 47 values pushed */
0 6 4 6 133 0 2 4 5 4 2 5 128 0 3 5 1 5 3 1 128 0 1 1 4 97 0 4 4 33 77 0 5 5 0 97 0 0 0 34 77 0 7 7 34 7 78 
EIF[ ]	/* EndIf */
EIF[ ]	/* EndIf */
EIF[ ]	/* EndIf */
NPUSHB[ ]	/* 19 values pushed */
85 83 75 73 71 69 66 64 61 59 56 54 35 33 21 20 8 8 22 
CALL[ ]	/* CallFunction */";
};
width = 796;
}
);
leftKerningGroup = m;
leftMetricsKey = n;
note = m;
rightKerningGroup = m;
rightMetricsKey = n;
unicode = 006D;
},
{
glyphname = n;
lastChange = "2022-01-30 03:28:58 +0000";
layers = (
{
layerId = "D6A4831D-747C-4592-93C0-305F4CD57904";
paths = (
{
closed = 1;
nodes = (
"447 -49 OFFCURVE",
"456 -30 OFFCURVE",
"453 -2 CURVE SMOOTH",
"445 82 OFFCURVE",
"431 162 OFFCURVE",
"403 242 CURVE SMOOTH",
"395 261 OFFCURVE",
"386 281 OFFCURVE",
"372 297 CURVE SMOOTH",
"355 320 OFFCURVE",
"333 332 OFFCURVE",
"310 332 CURVE SMOOTH",
"293 332 OFFCURVE",
"277 326 OFFCURVE",
"260 313 CURVE SMOOTH",
"240 297 OFFCURVE",
"224 276 OFFCURVE",
"210 254 CURVE SMOOTH",
"193 226 OFFCURVE",
"182 196 OFFCURVE",
"167 167 CURVE SMOOTH",
"163 159 OFFCURVE",
"156 145 OFFCURVE",
"143 128 CURVE",
"138 152 OFFCURVE",
"134 173 OFFCURVE",
"132 186 CURVE SMOOTH",
"128 222 OFFCURVE",
"126 260 OFFCURVE",
"120 296 CURVE SMOOTH",
"117 316 OFFCURVE",
"99 329 OFFCURVE",
"81 329 CURVE SMOOTH",
"79 329 OFFCURVE",
"75 329 OFFCURVE",
"72 328 CURVE SMOOTH",
"54 322 OFFCURVE",
"48 307 OFFCURVE",
"50 289 CURVE SMOOTH",
"58 228 OFFCURVE",
"64 168 OFFCURVE",
"73 107 CURVE SMOOTH",
"76 87 OFFCURVE",
"80 65 OFFCURVE",
"85 44 CURVE SMOOTH",
"92 23 OFFCURVE",
"103 5 OFFCURVE",
"128 2 CURVE SMOOTH",
"149 -1 OFFCURVE",
"165 10 OFFCURVE",
"175 27 CURVE SMOOTH",
"191 51 OFFCURVE",
"204 77 OFFCURVE",
"216 104 CURVE SMOOTH",
"233 140 OFFCURVE",
"244 179 OFFCURVE",
"263 214 CURVE SMOOTH",
"288 260 OFFCURVE",
"321 294 OFFCURVE",
"343 201 CURVE SMOOTH",
"359 140 OFFCURVE",
"374 78 OFFCURVE",
"389 16 CURVE SMOOTH",
"395 -13 OFFCURVE",
"401 -58 OFFCURVE",
"428 -51 CURVE SMOOTH"
);
}
);
userData = {
assembly = "NPUSHB[ ]	/* 34 values pushed */
0 3 0 3 133 0 1 2 1 134 0 0 2 2 0 89 0 0 0 2 97 0 2 0 2 81 51 49 40 39 35 4 8 25 
CALL[ ]	/* CallFunction */";
};
width = 504;
}
);
leftKerningGroup = n;
leftMetricsKey = h;
note = n;
rightKerningGroup = n;
rightMetricsKey = h;
unicode = 006E;
},
{
glyphname = o;
lastChange = "2022-01-21 08:21:14 +0000";
layers = (
{
layerId = "D6A4831D-747C-4592-93C0-305F4CD57904";
paths = (
{
closed = 1;
nodes = (
"217 9 OFFCURVE",
"233 12 OFFCURVE",
"245 19 CURVE SMOOTH",
"328 64 OFFCURVE",
"372 139 OFFCURVE",
"387 235 CURVE",
"372 322 OFFCURVE",
"335 362 OFFCURVE",
"242 398 CURVE SMOOTH",
"215 410 OFFCURVE",
"179 410 OFFCURVE",
"156 387 CURVE SMOOTH",
"97 333 OFFCURVE",
"48 270 OFFCURVE",
"40 186 CURVE",
"40 124 OFFCURVE",
"56 102 OFFCURVE",
"100 47 CURVE SMOOTH",
"122 23 OFFCURVE",
"163 9 OFFCURVE",
"200 9 CURVE SMOOTH"
);
},
{
closed = 1;
nodes = (
"117 104 OFFCURVE",
"108 167 OFFCURVE",
"115 211 CURVE",
"136 259 OFFCURVE",
"130 292 OFFCURVE",
"177 327 CURVE SMOOTH",
"217 360 OFFCURVE",
"285 319 OFFCURVE",
"312 257 CURVE SMOOTH",
"315 247 OFFCURVE",
"314 202 OFFCURVE",
"312 191 CURVE SMOOTH",
"298 131 OFFCURVE",
"277 111 OFFCURVE",
"226 78 CURVE SMOOTH",
"209 70 OFFCURVE",
"187 72 OFFCURVE",
"169 78 CURVE SMOOTH"
);
}
);
userData = {
assembly = "PUSHB[ ]	/* 7 values pushed */
25 24 2 0 2 1 76 
MPPEM[ ]	/* MeasurePixelPerEm */
PUSHB[ ]	/* 1 value pushed */
49 
LT[ ]	/* LessThan */
IF[ ]	/* If */
NPUSHB[ ]	/* 16 values pushed */
0 0 2 0 134 0 2 2 1 97 0 1 1 33 2 78 
ELSE[ ]	/* Else */
NPUSHB[ ]	/* 21 values pushed */
0 0 2 0 134 0 1 2 2 1 89 0 1 1 2 97 0 2 1 2 81 
EIF[ ]	/* EndIf */
PUSHB[ ]	/* 7 values pushed */
43 42 42 32 3 8 24 
CALL[ ]	/* CallFunction */";
};
width = 427;
}
);
note = o;
rightKerningGroup = o;
unicode = 006F;
},
{
glyphname = p;
lastChange = "2022-01-20 23:04:40 +0000";
layers = (
{
layerId = "D6A4831D-747C-4592-93C0-305F4CD57904";
paths = (
{
closed = 1;
nodes = (
"137 -273 OFFCURVE",
"150 -260 OFFCURVE",
"150 -239 CURVE SMOOTH",
"151 -204 OFFCURVE",
"151 -167 OFFCURVE",
"151 -131 CURVE SMOOTH",
"151 -24 LINE SMOOTH",
"151 -4 OFFCURVE",
"152 18 OFFCURVE",
"151 39 CURVE SMOOTH",
"150 62 OFFCURVE",
"161 76 OFFCURVE",
"178 89 CURVE SMOOTH",
"196 101 OFFCURVE",
"214 111 OFFCURVE",
"231 124 CURVE SMOOTH",
"283 166 OFFCURVE",
"319 217 OFFCURVE",
"323 288 CURVE SMOOTH",
"326 342 OFFCURVE",
"296 396 OFFCURVE",
"246 413 CURVE SMOOTH",
"237 416 OFFCURVE",
"146 427 OFFCURVE",
"148 426 CURVE SMOOTH",
"132 432 OFFCURVE",
"137 451 OFFCURVE",
"134 464 CURVE SMOOTH",
"129 487 OFFCURVE",
"113 495 OFFCURVE",
"88 491 CURVE SMOOTH",
"72 489 OFFCURVE",
"65 477 OFFCURVE",
"66 455 CURVE SMOOTH",
"66 460 OFFCURVE",
"70 415 OFFCURVE",
"70 398 CURVE SMOOTH",
"70 358 OFFCURVE",
"50 336 OFFCURVE",
"50 311 CURVE SMOOTH",
"50 297 OFFCURVE",
"55 283 OFFCURVE",
"66 272 CURVE SMOOTH",
"78 258 OFFCURVE",
"81 241 OFFCURVE",
"80 224 CURVE SMOOTH",
"78 165 OFFCURVE",
"77 109 OFFCURVE",
"80 53 CURVE SMOOTH",
"79 61 OFFCURVE",
"88 -223 OFFCURVE",
"89 -232 CURVE SMOOTH",
"90 -250 OFFCURVE",
"96 -266 OFFCURVE",
"116 -277 CURVE"
);
},
{
closed = 1;
nodes = (
"149 165 OFFCURVE",
"147 184 OFFCURVE",
"147 204 CURVE SMOOTH",
"146 241 OFFCURVE",
"146 277 OFFCURVE",
"145 316 CURVE SMOOTH",
"145 348 OFFCURVE",
"154 356 OFFCURVE",
"188 356 CURVE SMOOTH",
"229 356 OFFCURVE",
"257 328 OFFCURVE",
"257 289 CURVE SMOOTH",
"257 284 OFFCURVE",
"257 277 OFFCURVE",
"256 272 CURVE SMOOTH",
"245 213 OFFCURVE",
"208 172 OFFCURVE",
"150 137 CURVE"
);
}
);
userData = {
assembly = "NPUSHB[ ]	/* 40 values pushed */
49 3 2 0 3 1 76 0 0 3 1 3 0 1 128 0 3 3 2 97 0 2 2 33 77 0 1 1 35 1 78 58 56 36 34 46 32 4 8 24 
CALL[ ]	/* CallFunction */";
};
width = 363;
}
);
leftKerningGroup = p;
leftMetricsKey = "=n";
note = p;
rightKerningGroup = p;
rightMetricsKey = "=o";
unicode = 0070;
},
{
glyphname = q;
lastChange = "2021-12-05 21:59:16 +0000";
layers = (
{
layerId = "D6A4831D-747C-4592-93C0-305F4CD57904";
paths = (
{
closed = 1;
nodes = (
"346 -256 OFFCURVE",
"361 -251 OFFCURVE",
"369 -236 CURVE SMOOTH",
"379 -219 OFFCURVE",
"391 -202 OFFCURVE",
"396 -183 CURVE SMOOTH",
"407 -139 OFFCURVE",
"415 -94 OFFCURVE",
"421 -49 CURVE SMOOTH",
"425 -27 OFFCURVE",
"435 -15 OFFCURVE",
"454 -9 CURVE SMOOTH",
"471 -3 OFFCURVE",
"488 0 OFFCURVE",
"502 10 CURVE SMOOTH",
"510 15 OFFCURVE",
"517 32 OFFCURVE",
"514 40 CURVE SMOOTH",
"512 48 OFFCURVE",
"497 55 OFFCURVE",
"487 57 CURVE SMOOTH",
"477 59 OFFCURVE",
"465 55 OFFCURVE",
"455 51 CURVE SMOOTH",
"428 41 OFFCURVE",
"420 35 OFFCURVE",
"416 59 CURVE SMOOTH",
"415 67 OFFCURVE",
"411 94 OFFCURVE",
"409 101 CURVE SMOOTH",
"393 163 OFFCURVE",
"344 211 OFFCURVE",
"280 204 CURVE SMOOTH",
"203 195 LINE",
"181 195 LINE",
"159 199 OFFCURVE",
"137 201 OFFCURVE",
"117 209 CURVE SMOOTH",
"93 218 OFFCURVE",
"90 261 OFFCURVE",
"113 272 CURVE SMOOTH",
"167 299 OFFCURVE",
"221 328 OFFCURVE",
"285 331 CURVE SMOOTH",
"338 334 OFFCURVE",
"375 308 OFFCURVE",
"412 275 CURVE SMOOTH",
"438 253 OFFCURVE",
"470 283 OFFCURVE",
"450 306 CURVE SMOOTH",
"433 327 OFFCURVE",
"413 351 OFFCURVE",
"389 362 CURVE SMOOTH",
"319 396 OFFCURVE",
"246 406 OFFCURVE",
"171 380 CURVE SMOOTH",
"147 371 OFFCURVE",
"123 364 OFFCURVE",
"101 352 CURVE SMOOTH",
"77 339 OFFCURVE",
"53 313 OFFCURVE",
"32 289 CURVE SMOOTH",
"15 269 OFFCURVE",
"12 250 OFFCURVE",
"18 224 CURVE SMOOTH",
"32 168 OFFCURVE",
"74 145 OFFCURVE",
"123 137 CURVE SMOOTH",
"166 131 OFFCURVE",
"210 134 OFFCURVE",
"254 138 CURVE SMOOTH",
"295 141 OFFCURVE",
"323 140 OFFCURVE",
"334 104 CURVE SMOOTH",
"356 35 OFFCURVE",
"369 30 OFFCURVE",
"292 12 CURVE SMOOTH",
"230 -2 OFFCURVE",
"168 -21 OFFCURVE",
"107 -41 CURVE SMOOTH",
"78 -50 OFFCURVE",
"73 -69 OFFCURVE",
"88 -95 CURVE SMOOTH",
"101 -120 OFFCURVE",
"116 -125 OFFCURVE",
"147 -114 CURVE SMOOTH",
"202 -95 OFFCURVE",
"256 -76 OFFCURVE",
"312 -58 CURVE SMOOTH",
"342 -49 OFFCURVE",
"345 -51 OFFCURVE",
"344 -82 CURVE SMOOTH",
"344 -106 OFFCURVE",
"340 -129 OFFCURVE",
"336 -152 CURVE SMOOTH",
"332 -171 OFFCURVE",
"323 -190 OFFCURVE",
"321 -210 CURVE SMOOTH",
"320 -222 OFFCURVE",
"326 -239 OFFCURVE",
"334 -246 CURVE SMOOTH"
);
}
);
userData = {
assembly = "NPUSHB[ ]	/* 110 values pushed */
93 1 1 10 77 1 0 9 68 1 3 7 30 1 5 2 63 1 6 5 45 40 2 4 6 6 76 0 1 10 9 10 1 9 128 0 9 0 10 9 0 126 0 3 7 2 7 3 2 128 0 2 5 7 2 5 126 0 5 6 7 5 6 126 0 6 4 7 6 4 126 0 4 4 132 0 0 0 7 3 0 7 105 0 10 10 8 97 0 8 8 33 10 78 103 101 99 97 43 42 39 23 46 34 38 40 36 11 8 31 
CALL[ ]	/* CallFunction */";
};
width = 545;
}
);
leftMetricsKey = f;
note = q;
rightKerningGroup = q;
rightMetricsKey = f;
unicode = 0071;
},
{
glyphname = r;
lastChange = "2022-01-24 06:54:36 +0000";
layers = (
{
layerId = "D6A4831D-747C-4592-93C0-305F4CD57904";
paths = (
{
closed = 1;
nodes = (
"138 0 OFFCURVE",
"152 32 OFFCURVE",
"152 60 CURVE SMOOTH",
"158 136 OFFCURVE",
"184 206 OFFCURVE",
"212 275 CURVE SMOOTH",
"224 303 OFFCURVE",
"240 335 OFFCURVE",
"263 354 CURVE SMOOTH",
"301 383 OFFCURVE",
"345 407 OFFCURVE",
"390 426 CURVE SMOOTH",
"407 433 OFFCURVE",
"414 441 OFFCURVE",
"414 452 CURVE SMOOTH",
"414 478 OFFCURVE",
"400 492 OFFCURVE",
"368 483 CURVE SMOOTH",
"273 455 OFFCURVE",
"199 402 OFFCURVE",
"155 309 CURVE SMOOTH",
"153 305 OFFCURVE",
"134 257 OFFCURVE",
"139 248 CURVE",
"134 255 OFFCURVE",
"135 318 OFFCURVE",
"135 326 CURVE SMOOTH",
"135 363 OFFCURVE",
"117 388 OFFCURVE",
"89 388 CURVE SMOOTH",
"55 388 OFFCURVE",
"65 361 OFFCURVE",
"65 341 CURVE SMOOTH",
"64 322 OFFCURVE",
"64 302 OFFCURVE",
"64 282 CURVE SMOOTH",
"67 166 OFFCURVE",
"62 176 OFFCURVE",
"62 141 CURVE SMOOTH",
"62 103 LINE SMOOTH",
"62 85 OFFCURVE",
"62 68 OFFCURVE",
"64 50 CURVE SMOOTH",
"68 20 OFFCURVE",
"86 1 OFFCURVE",
"119 1 CURVE SMOOTH"
);
}
);
userData = {
assembly = "NPUSHB[ ]	/* 32 values pushed */
35 2 2 1 0 1 76 0 0 2 1 2 0 1 128 0 2 2 1 97 0 1 1 34 1 78 38 45 25 3 8 25 
CALL[ ]	/* CallFunction */";
};
width = 412;
}
);
leftKerningGroup = r;
note = r;
rightKerningGroup = r;
unicode = 0072;
},
{
glyphname = s;
lastChange = "2022-01-21 08:00:24 +0000";
layers = (
{
layerId = "D6A4831D-747C-4592-93C0-305F4CD57904";
paths = (
{
closed = 1;
nodes = (
"93 -21 OFFCURVE",
"77 -23 OFFCURVE",
"61 -23 CURVE SMOOTH",
"36 -20 OFFCURVE",
"11 -4 OFFCURVE",
"16 16 CURVE SMOOTH",
"19 24 OFFCURVE",
"36 34 OFFCURVE",
"45 33 CURVE SMOOTH",
"96 27 OFFCURVE",
"146 35 OFFCURVE",
"195 47 CURVE SMOOTH",
"228 55 OFFCURVE",
"262 66 OFFCURVE",
"292 82 CURVE SMOOTH",
"336 105 OFFCURVE",
"337 133 OFFCURVE",
"299 166 CURVE SMOOTH",
"272 188 OFFCURVE",
"245 210 OFFCURVE",
"218 231 CURVE SMOOTH",
"173 265 OFFCURVE",
"146 309 OFFCURVE",
"132 363 CURVE SMOOTH",
"123 396 OFFCURVE",
"138 437 OFFCURVE",
"167 459 CURVE SMOOTH",
"234 511 OFFCURVE",
"310 513 OFFCURVE",
"376 461 CURVE SMOOTH",
"394 447 OFFCURVE",
"406 425 OFFCURVE",
"418 405 CURVE",
"425 387 OFFCURVE",
"411 368 OFFCURVE",
"388 383 CURVE SMOOTH",
"372 394 OFFCURVE",
"359 408 OFFCURVE",
"343 418 CURVE SMOOTH",
"296 445 OFFCURVE",
"231 431 OFFCURVE",
"204 390 CURVE SMOOTH",
"194 374 OFFCURVE",
"190 359 OFFCURVE",
"198 341 CURVE SMOOTH",
"244 239 OFFCURVE",
"275 266 OFFCURVE",
"350 185 CURVE SMOOTH",
"389 143 OFFCURVE",
"399 77 OFFCURVE",
"347 41 CURVE SMOOTH",
"294 3 OFFCURVE",
"232 -8 OFFCURVE",
"170 -18 CURVE SMOOTH",
"151 -22 OFFCURVE",
"138 -22 OFFCURVE",
"108 -20 CURVE"
);
}
);
userData = {
assembly = "NPUSHB[ ]	/* 42 values pushed */
29 1 3 2 1 76 0 2 0 3 0 2 3 105 1 1 0 0 4 97 5 1 4 4 31 4 78 0 0 0 49 0 48 35 33 25 23 34 33 6 8 24 
CALL[ ]	/* CallFunction */";
};
width = 440;
}
);
leftKerningGroup = s;
note = s;
rightKerningGroup = s;
unicode = 0073;
},
{
glyphname = t;
lastChange = "2022-01-24 08:05:10 +0000";
layers = (
{
layerId = "D6A4831D-747C-4592-93C0-305F4CD57904";
paths = (
{
closed = 1;
nodes = (
"494 -27 OFFCURVE",
"516 -24 OFFCURVE",
"540 -18 CURVE SMOOTH",
"558 -12 OFFCURVE",
"580 9 OFFCURVE",
"561 28 CURVE SMOOTH",
"534 49 OFFCURVE",
"508 26 OFFCURVE",
"462 26 CURVE SMOOTH",
"427 26 OFFCURVE",
"405 40 OFFCURVE",
"352 81 CURVE",
"296 148 OFFCURVE",
"251 301 OFFCURVE",
"261 382 CURVE SMOOTH",
"262 401 OFFCURVE",
"270 417 OFFCURVE",
"287 426 CURVE",
"348 438 OFFCURVE",
"371 442 OFFCURVE",
"404 442 CURVE SMOOTH",
"451 442 OFFCURVE",
"503 423 OFFCURVE",
"503 460 CURVE SMOOTH",
"507 501 OFFCURVE",
"428 496 OFFCURVE",
"367 496 CURVE SMOOTH",
"348 496 OFFCURVE",
"328 494 OFFCURVE",
"308 496 CURVE SMOOTH",
"299 497 OFFCURVE",
"278 496 OFFCURVE",
"278 510 CURVE",
"277 524 OFFCURVE",
"273 538 OFFCURVE",
"275 551 CURVE SMOOTH",
"276 564 OFFCURVE",
"293 665 OFFCURVE",
"293 664 CURVE SMOOTH",
"293 686 OFFCURVE",
"277 704 OFFCURVE",
"258 704 CURVE SMOOTH",
"249 704 OFFCURVE",
"240 700 OFFCURVE",
"231 691 CURVE",
"208 643 OFFCURVE",
"212 590 OFFCURVE",
"197 538 CURVE SMOOTH",
"194 524 OFFCURVE",
"199 511 OFFCURVE",
"181 496 CURVE",
"156 482 OFFCURVE",
"112 486 OFFCURVE",
"78 477 CURVE SMOOTH",
"57 472 OFFCURVE",
"36 467 OFFCURVE",
"17 459 CURVE SMOOTH",
"-12 447 OFFCURVE",
"-4 413 OFFCURVE",
"39 413 CURVE SMOOTH",
"70 413 OFFCURVE",
"100 423 OFFCURVE",
"133 423 CURVE SMOOTH",
"150 423 OFFCURVE",
"168 421 OFFCURVE",
"186 412 CURVE",
"189 341 LINE SMOOTH",
"191 292 OFFCURVE",
"200 244 OFFCURVE",
"215 195 CURVE SMOOTH",
"235 130 OFFCURVE",
"269 73 OFFCURVE",
"319 27 CURVE SMOOTH",
"359 -10 OFFCURVE",
"409 -27 OFFCURVE",
"471 -27 CURVE SMOOTH"
);
}
);
userData = {
assembly = "NPUSHB[ ]	/* 15 values pushed */
24 14 2 0 2 2 1 3 4 50 1 6 3 3 76 
MPPEM[ ]	/* MeasurePixelPerEm */
PUSHB[ ]	/* 1 value pushed */
21 
LT[ ]	/* LessThan */
IF[ ]	/* If */
NPUSHB[ ]	/* 45 values pushed */
1 1 0 2 4 2 0 4 128 0 4 3 2 4 3 126 0 6 3 5 3 6 5 128 0 2 2 36 77 0 3 3 33 77 0 5 5 7 98 0 7 7 31 7 78 
ELSE[ ]	/* Else */
MPPEM[ ]	/* MeasurePixelPerEm */
PUSHB[ ]	/* 1 value pushed */
39 
LT[ ]	/* LessThan */
IF[ ]	/* If */
NPUSHB[ ]	/* 40 values pushed */
0 2 0 2 133 1 1 0 4 0 133 0 4 3 4 133 0 6 3 5 3 6 5 128 0 3 3 33 77 0 5 5 7 98 0 7 7 31 7 78 
ELSE[ ]	/* Else */
MPPEM[ ]	/* MeasurePixelPerEm */
PUSHB[ ]	/* 1 value pushed */
41 
LT[ ]	/* LessThan */
IF[ ]	/* If */
NPUSHB[ ]	/* 37 values pushed */
0 2 0 2 133 1 1 0 4 0 133 0 4 3 4 133 0 3 6 3 133 0 6 5 6 133 0 5 5 7 98 0 7 7 31 7 78 
ELSE[ ]	/* Else */
NPUSHB[ ]	/* 42 values pushed */
0 2 0 2 133 1 1 0 4 0 133 0 4 3 4 133 0 3 6 3 133 0 6 5 6 133 0 5 7 7 5 89 0 5 5 7 98 0 7 5 7 82 
EIF[ ]	/* EndIf */
EIF[ ]	/* EndIf */
EIF[ ]	/* EndIf */
NPUSHB[ ]	/* 14 values pushed */
71 69 62 60 58 56 50 28 41 33 19 8 8 27 
CALL[ ]	/* CallFunction */";
};
width = 588;
}
);
leftKerningGroup = t;
note = t;
rightKerningGroup = t;
unicode = 0074;
},
{
glyphname = u;
lastChange = "2021-12-21 21:55:25 +0000";
layers = (
{
layerId = "D6A4831D-747C-4592-93C0-305F4CD57904";
paths = (
{
closed = 1;
nodes = (
"416 0 OFFCURVE",
"421 15 OFFCURVE",
"421 28 CURVE SMOOTH",
"417 104 OFFCURVE",
"412 179 OFFCURVE",
"406 253 CURVE",
"403 270 OFFCURVE",
"402 263 OFFCURVE",
"406 289 CURVE SMOOTH",
"409 311 OFFCURVE",
"398 325 OFFCURVE",
"382 335 CURVE SMOOTH",
"372 340 OFFCURVE",
"356 339 OFFCURVE",
"341 337 CURVE",
"330 334 OFFCURVE",
"333 322 OFFCURVE",
"332 311 CURVE SMOOTH",
"330 214 OFFCURVE",
"269 151 OFFCURVE",
"199 95 CURVE SMOOTH",
"191 89 OFFCURVE",
"184 86 OFFCURVE",
"177 86 CURVE SMOOTH",
"169 86 OFFCURVE",
"160 92 OFFCURVE",
"152 104 CURVE SMOOTH",
"142 118 OFFCURVE",
"132 135 OFFCURVE",
"127 152 CURVE SMOOTH",
"116 189 OFFCURVE",
"109 226 OFFCURVE",
"109 264 CURVE SMOOTH",
"109 288 OFFCURVE",
"112 313 OFFCURVE",
"120 338 CURVE",
"127 353 OFFCURVE",
"111 382 OFFCURVE",
"86 382 CURVE SMOOTH",
"69 382 OFFCURVE",
"54 368 OFFCURVE",
"48 346 CURVE SMOOTH",
"42 323 OFFCURVE",
"40 299 OFFCURVE",
"40 276 CURVE SMOOTH",
"40 219 OFFCURVE",
"51 137 OFFCURVE",
"81 90 CURVE SMOOTH",
"102 53 OFFCURVE",
"137 32 OFFCURVE",
"175 32 CURVE SMOOTH",
"217 32 OFFCURVE",
"256 63 OFFCURVE",
"299 94 CURVE SMOOTH",
"315 107 OFFCURVE",
"331 134 OFFCURVE",
"347 149 CURVE",
"350 128 OFFCURVE",
"351 94 OFFCURVE",
"356 73 CURVE SMOOTH",
"362 52 OFFCURVE",
"371 32 OFFCURVE",
"380 13 CURVE SMOOTH",
"384 4 OFFCURVE",
"392 0 OFFCURVE",
"399 0 CURVE SMOOTH"
);
}
);
userData = {
assembly = "NPUSHB[ ]	/* 41 values pushed */
16 1 0 1 43 1 2 0 2 76 35 1 2 73 0 3 1 3 133 0 0 0 2 0 2 101 0 1 1 33 1 78 60 58 49 47 40 42 4 8 24 
CALL[ ]	/* CallFunction */";
};
width = 451;
}
);
leftKerningGroup = u;
leftMetricsKey = o;
note = u;
rightKerningGroup = u;
rightMetricsKey = f;
unicode = 0075;
},
{
glyphname = v;
lastChange = "2022-01-20 07:14:30 +0000";
layers = (
{
layerId = "D6A4831D-747C-4592-93C0-305F4CD57904";
paths = (
{
closed = 1;
nodes = (
"239 -21 OFFCURVE",
"253 -12 OFFCURVE",
"264 5 CURVE SMOOTH",
"285 44 OFFCURVE",
"293 101 OFFCURVE",
"305 145 CURVE SMOOTH",
"324 225 OFFCURVE",
"349 295 OFFCURVE",
"395 379 CURVE SMOOTH",
"406 399 LINE",
"406 407 OFFCURVE",
"403 413 OFFCURVE",
"398 420 CURVE SMOOTH",
"363 455 OFFCURVE",
"323 407 OFFCURVE",
"309 368 CURVE SMOOTH",
"293 331 OFFCURVE",
"282 291 OFFCURVE",
"269 252 CURVE SMOOTH",
"256 214 OFFCURVE",
"249 173 OFFCURVE",
"214 133 CURVE",
"202 154 OFFCURVE",
"192 169 OFFCURVE",
"184 185 CURVE SMOOTH",
"156 241 OFFCURVE",
"129 299 OFFCURVE",
"99 357 CURVE SMOOTH",
"88 381 OFFCURVE",
"57 400 OFFCURVE",
"38 395 CURVE SMOOTH",
"8 387 OFFCURVE",
"6 333 OFFCURVE",
"25 313 CURVE SMOOTH",
"68 273 OFFCURVE",
"84 219 OFFCURVE",
"109 170 CURVE SMOOTH",
"134 124 OFFCURVE",
"160 55 OFFCURVE",
"184 7 CURVE SMOOTH",
"192 -11 OFFCURVE",
"209 -21 OFFCURVE",
"224 -21 CURVE SMOOTH"
);
}
);
userData = {
assembly = "PUSHB[ ]	/* 6 values pushed */
16 1 1 2 1 76 
MPPEM[ ]	/* MeasurePixelPerEm */
PUSHB[ ]	/* 1 value pushed */
24 
LT[ ]	/* LessThan */
IF[ ]	/* If */
NPUSHB[ ]	/* 19 values pushed */
0 2 0 1 0 2 1 128 0 0 0 33 77 0 1 1 31 1 78 
ELSE[ ]	/* Else */
NPUSHB[ ]	/* 18 values pushed */
0 2 0 1 0 2 1 128 0 1 1 132 0 0 0 33 0 78 
EIF[ ]	/* EndIf */
PUSHB[ ]	/* 6 values pushed */
43 43 42 3 8 25 
CALL[ ]	/* CallFunction */";
};
width = 426;
}
);
leftKerningGroup = v;
leftMetricsKey = "15`";
note = v;
rightKerningGroup = v;
unicode = 0076;
},
{
glyphname = w;
lastChange = "2022-01-30 03:37:37 +0000";
layers = (
{
layerId = "D6A4831D-747C-4592-93C0-305F4CD57904";
paths = (
{
closed = 1;
nodes = (
"238 14 OFFCURVE",
"250 39 OFFCURVE",
"260 64 CURVE SMOOTH",
"274 99 OFFCURVE",
"286 135 OFFCURVE",
"296 172 CURVE SMOOTH",
"300 185 OFFCURVE",
"303 189 OFFCURVE",
"312 178 CURVE SMOOTH",
"330 155 OFFCURVE",
"390 48 OFFCURVE",
"414 25 CURVE SMOOTH",
"465 -22 OFFCURVE",
"503 24 OFFCURVE",
"534 85 CURVE SMOOTH",
"569 154 OFFCURVE",
"600 224 OFFCURVE",
"621 299 CURVE SMOOTH",
"629 328 OFFCURVE",
"624 359 OFFCURVE",
"604 363 CURVE SMOOTH",
"574 369 OFFCURVE",
"568 345 OFFCURVE",
"559 324 CURVE SMOOTH",
"530 256 OFFCURVE",
"500 187 OFFCURVE",
"467 121 CURVE SMOOTH",
"448 80 OFFCURVE",
"429 80 OFFCURVE",
"404 131 CURVE SMOOTH",
"380 186 OFFCURVE",
"356 241 OFFCURVE",
"333 296 CURVE SMOOTH",
"321 325 OFFCURVE",
"296 341 OFFCURVE",
"270 331 CURVE SMOOTH",
"240 321 OFFCURVE",
"246 294 OFFCURVE",
"244 278 CURVE",
"245 221 OFFCURVE",
"219 130 OFFCURVE",
"194 95 CURVE SMOOTH",
"190 90 OFFCURVE",
"186 86 OFFCURVE",
"182 82 CURVE",
"178 88 OFFCURVE",
"172 94 OFFCURVE",
"171 101 CURVE",
"155 164 OFFCURVE",
"142 227 OFFCURVE",
"124 290 CURVE SMOOTH",
"116 320 OFFCURVE",
"102 349 OFFCURVE",
"88 377 CURVE SMOOTH",
"80 393 OFFCURVE",
"38 401 OFFCURVE",
"24 391 CURVE SMOOTH",
"1 375 OFFCURVE",
"21 361 OFFCURVE",
"27 346 CURVE SMOOTH",
"43 303 OFFCURVE",
"61 261 OFFCURVE",
"74 218 CURVE SMOOTH",
"92 160 OFFCURVE",
"105 101 OFFCURVE",
"120 43 CURVE SMOOTH",
"124 28 OFFCURVE",
"129 12 OFFCURVE",
"137 -1 CURVE SMOOTH",
"159 -44 OFFCURVE",
"196 -47 OFFCURVE",
"223 -8 CURVE SMOOTH"
);
}
);
userData = {
assembly = "NPUSHB[ ]	/* 41 values pushed */
1 1 3 2 1 76 0 1 2 1 133 0 2 3 2 133 0 3 3 4 97 0 4 4 34 77 0 0 0 31 0 78 73 71 40 47 43 36 5 8 26 
CALL[ ]	/* CallFunction */";
};
width = 655;
}
);
leftKerningGroup = w;
leftMetricsKey = v;
note = w;
rightKerningGroup = w;
unicode = 0077;
},
{
glyphname = x;
lastChange = "2022-01-20 23:04:40 +0000";
layers = (
{
layerId = "D6A4831D-747C-4592-93C0-305F4CD57904";
paths = (
{
closed = 1;
nodes = (
"515 5 LINE",
"470 46 OFFCURVE",
"437 77 OFFCURVE",
"395 114 CURVE SMOOTH",
"384 123 OFFCURVE",
"277 210 OFFCURVE",
"265 220 CURVE",
"291 247 OFFCURVE",
"317 273 OFFCURVE",
"340 298 CURVE SMOOTH",
"367 327 OFFCURVE",
"383 344 OFFCURVE",
"406 362 CURVE SMOOTH",
"440 386 OFFCURVE",
"454 422 OFFCURVE",
"447 431 CURVE",
"445 435 OFFCURVE",
"432 481 OFFCURVE",
"379 431 CURVE SMOOTH",
"326 381 OFFCURVE",
"272 330 OFFCURVE",
"216 278 CURVE",
"187 312 OFFCURVE",
"156 349 OFFCURVE",
"119 394 CURVE",
"108 406 OFFCURVE",
"70 431 OFFCURVE",
"53 404 CURVE",
"49 399 OFFCURVE",
"41 388 OFFCURVE",
"61 364 CURVE SMOOTH",
"96 321 OFFCURVE",
"137 273 OFFCURVE",
"175 228 CURVE",
"127 159 OFFCURVE",
"78 94 OFFCURVE",
"16 43 CURVE",
"-2 11 OFFCURVE",
"71 -9 OFFCURVE",
"103 19 CURVE SMOOTH",
"113 27 OFFCURVE",
"123 38 OFFCURVE",
"130 48 CURVE SMOOTH",
"160 89 OFFCURVE",
"191 129 OFFCURVE",
"227 162 CURVE",
"246 154 OFFCURVE",
"288 118 OFFCURVE",
"299 106 CURVE SMOOTH",
"314 87 OFFCURVE",
"335 73 OFFCURVE",
"355 59 CURVE SMOOTH",
"400 27 OFFCURVE",
"470 -36 OFFCURVE",
"489 -15 CURVE"
);
}
);
userData = {
assembly = "NPUSHB[ ]	/* 33 values pushed */
70 52 12 2 4 2 1 1 76 0 1 1 2 97 0 2 2 34 77 0 0 0 40 0 78 75 74 48 46 38 3 8 23 
CALL[ ]	/* CallFunction */";
};
width = 535;
}
);
leftKerningGroup = x;
leftMetricsKey = v;
note = x;
rightKerningGroup = x;
rightMetricsKey = v;
unicode = 0078;
},
{
glyphname = y;
lastChange = "2022-01-23 22:43:09 +0000";
layers = (
{
layerId = "D6A4831D-747C-4592-93C0-305F4CD57904";
paths = (
{
closed = 1;
nodes = (
"253 -327 OFFCURVE",
"275 -312 OFFCURVE",
"278 -296 CURVE SMOOTH",
"284 -271 OFFCURVE",
"288 -247 OFFCURVE",
"292 -222 CURVE SMOOTH",
"302 -160 OFFCURVE",
"298 -160 OFFCURVE",
"312 -99 CURVE SMOOTH",
"345 38 OFFCURVE",
"372 177 OFFCURVE",
"413 312 CURVE SMOOTH",
"427 358 OFFCURVE",
"425 405 OFFCURVE",
"416 448 CURVE",
"393 470 OFFCURVE",
"370 471 OFFCURVE",
"363 445 CURVE SMOOTH",
"356 418 OFFCURVE",
"350 390 OFFCURVE",
"346 362 CURVE SMOOTH",
"342 340 OFFCURVE",
"335 319 OFFCURVE",
"323 301 CURVE SMOOTH",
"313 285 OFFCURVE",
"300 271 OFFCURVE",
"277 273 CURVE",
"253 281 OFFCURVE",
"232 295 OFFCURVE",
"214 313 CURVE SMOOTH",
"183 344 OFFCURVE",
"155 378 OFFCURVE",
"135 418 CURVE SMOOTH",
"124 440 OFFCURVE",
"109 461 OFFCURVE",
"94 480 CURVE SMOOTH",
"84 493 OFFCURVE",
"68 498 OFFCURVE",
"49 495 CURVE",
"25 479 OFFCURVE",
"16 460 OFFCURVE",
"36 429 CURVE",
"46 420 OFFCURVE",
"62 409 OFFCURVE",
"74 395 CURVE SMOOTH",
"87 381 OFFCURVE",
"96 364 OFFCURVE",
"107 350 CURVE SMOOTH",
"158 284 OFFCURVE",
"209 217 OFFCURVE",
"312 209 CURVE",
"310 169 OFFCURVE",
"300 136 OFFCURVE",
"294 108 CURVE SMOOTH",
"274 0 OFFCURVE",
"261 -45 OFFCURVE",
"243 -153 CURVE SMOOTH",
"236 -193 OFFCURVE",
"230 -234 OFFCURVE",
"219 -273 CURVE SMOOTH",
"215 -285 OFFCURVE",
"219 -314 OFFCURVE",
"235 -323 CURVE"
);
}
);
userData = {
assembly = "NPUSHB[ ]	/* 14 values pushed */
18 1 3 1 8 1 0 2 57 1 4 0 3 76 
MPPEM[ ]	/* MeasurePixelPerEm */
PUSHB[ ]	/* 1 value pushed */
39 
LT[ ]	/* LessThan */
IF[ ]	/* If */
NPUSHB[ ]	/* 29 values pushed */
0 1 3 1 133 0 2 3 0 3 2 0 128 0 3 3 33 77 0 0 0 4 97 0 4 4 35 4 78 
ELSE[ ]	/* Else */
NPUSHB[ ]	/* 31 values pushed */
0 1 3 1 133 0 3 2 3 133 0 2 0 2 133 0 0 4 4 0 89 0 0 0 4 97 0 4 0 4 81 
EIF[ ]	/* EndIf */
NPUSHB[ ]	/* 12 values pushed */
52 50 38 36 32 30 25 23 18 5 8 23 
CALL[ ]	/* CallFunction */";
};
width = 473;
}
);
leftKerningGroup = y;
note = y;
rightKerningGroup = y;
rightMetricsKey = n;
unicode = 0079;
},
{
glyphname = z;
lastChange = "2021-12-06 02:05:17 +0000";
layers = (
{
layerId = "D6A4831D-747C-4592-93C0-305F4CD57904";
paths = (
{
closed = 1;
nodes = (
"145 -28 OFFCURVE",
"288 3 OFFCURVE",
"323 10 CURVE SMOOTH",
"364 17 OFFCURVE",
"405 26 OFFCURVE",
"445 37 CURVE SMOOTH",
"453 40 OFFCURVE",
"464 65 OFFCURVE",
"464 73 CURVE SMOOTH",
"464 87 OFFCURVE",
"452 88 OFFCURVE",
"439 87 CURVE SMOOTH",
"359 76 OFFCURVE",
"277 65 OFFCURVE",
"254 63 CURVE SMOOTH",
"201 58 OFFCURVE",
"195 58 OFFCURVE",
"142 52 CURVE SMOOTH",
"125 49 OFFCURVE",
"128 49 OFFCURVE",
"103 49 CURVE",
"113 63 OFFCURVE",
"127 79 OFFCURVE",
"138 93 CURVE SMOOTH",
"181 141 OFFCURVE",
"234 177 OFFCURVE",
"289 212 CURVE SMOOTH",
"329 237 OFFCURVE",
"368 264 OFFCURVE",
"393 306 CURVE SMOOTH",
"409 331 OFFCURVE",
"406 367 OFFCURVE",
"390 384 CURVE SMOOTH",
"376 398 OFFCURVE",
"341 411 OFFCURVE",
"323 420 CURVE SMOOTH",
"283 440 OFFCURVE",
"241 445 OFFCURVE",
"198 445 CURVE SMOOTH",
"151 445 OFFCURVE",
"110 444 OFFCURVE",
"88 430 CURVE SMOOTH",
"68 418 OFFCURVE",
"66 391 OFFCURVE",
"86 379 CURVE SMOOTH",
"109 369 OFFCURVE",
"133 374 OFFCURVE",
"181 376 CURVE SMOOTH",
"224 375 OFFCURVE",
"266 378 OFFCURVE",
"309 353 CURVE SMOOTH",
"321 346 OFFCURVE",
"328 341 OFFCURVE",
"328 335 CURVE SMOOTH",
"328 323 OFFCURVE",
"300 298 OFFCURVE",
"284 286 CURVE SMOOTH",
"244 258 OFFCURVE",
"208 232 OFFCURVE",
"169 202 CURVE SMOOTH",
"118 165 OFFCURVE",
"69 125 OFFCURVE",
"37 69 CURVE SMOOTH",
"32 60 OFFCURVE",
"30 52 OFFCURVE",
"30 42 CURVE SMOOTH",
"30 21 OFFCURVE",
"41 -12 OFFCURVE",
"62 -18 CURVE SMOOTH",
"83 -23 OFFCURVE",
"105 -28 OFFCURVE",
"127 -28 CURVE SMOOTH"
);
}
);
userData = {
assembly = "NPUSHB[ ]	/* 45 values pushed */
39 1 3 2 58 50 32 3 0 3 2 76 0 3 2 0 2 3 0 128 0 2 2 33 77 0 0 0 1 98 0 1 1 34 1 78 47 46 43 41 46 33 4 8 24 
CALL[ ]	/* CallFunction */";
};
width = 494;
}
);
leftKerningGroup = z;
leftMetricsKey = "=|f";
note = z;
rightKerningGroup = z;
rightMetricsKey = f;
unicode = 007A;
},
{
glyphname = braceleft;
lastChange = "2021-04-26 20:42:46 +0000";
layers = (
{
layerId = "D6A4831D-747C-4592-93C0-305F4CD57904";
paths = (
{
closed = 1;
nodes = (
"297 -188 OFFCURVE",
"310 -184 OFFCURVE",
"314 -176 CURVE SMOOTH",
"316 -171 OFFCURVE",
"308 -156 OFFCURVE",
"300 -151 CURVE",
"250 -104 OFFCURVE",
"238 3 OFFCURVE",
"238 4 CURVE SMOOTH",
"238 24 LINE SMOOTH",
"238 54 OFFCURVE",
"236 55 OFFCURVE",
"230 86 CURVE SMOOTH",
"222 125 OFFCURVE",
"214 165 OFFCURVE",
"201 203 CURVE SMOOTH",
"190 234 OFFCURVE",
"174 264 OFFCURVE",
"159 293 CURVE SMOOTH",
"146 317 OFFCURVE",
"146 317 OFFCURVE",
"158 326 CURVE SMOOTH",
"191 350 OFFCURVE",
"197 386 OFFCURVE",
"205 427 CURVE",
"205 433 OFFCURVE",
"206 444 OFFCURVE",
"204 454 CURVE",
"198 511 OFFCURVE",
"188 537 OFFCURVE",
"181 594 CURVE SMOOTH",
"178 619 OFFCURVE",
"174 645 OFFCURVE",
"175 669 CURVE SMOOTH",
"178 719 OFFCURVE",
"210 749 OFFCURVE",
"261 750 CURVE SMOOTH",
"266 750 OFFCURVE",
"274 749 OFFCURVE",
"278 752 CURVE SMOOTH",
"285 756 OFFCURVE",
"292 762 OFFCURVE",
"295 768 CURVE",
"295 772 OFFCURVE",
"288 782 OFFCURVE",
"283 784 CURVE SMOOTH",
"265 790 OFFCURVE",
"246 798 OFFCURVE",
"227 795 CURVE SMOOTH",
"143 784 OFFCURVE",
"104 725 OFFCURVE",
"110 648 CURVE SMOOTH",
"115 597 OFFCURVE",
"127 546 OFFCURVE",
"135 496 CURVE SMOOTH",
"142 452 OFFCURVE",
"150 438 OFFCURVE",
"135 395 CURVE SMOOTH",
"129 375 OFFCURVE",
"122 359 OFFCURVE",
"96 355 CURVE SMOOTH",
"62 348 OFFCURVE",
"53 316 OFFCURVE",
"81 293 CURVE SMOOTH",
"124 255 OFFCURVE",
"138 203 OFFCURVE",
"154 153 CURVE SMOOTH",
"172 98 OFFCURVE",
"178 69 OFFCURVE",
"178 10 CURVE SMOOTH",
"179 -70 OFFCURVE",
"194 -117 OFFCURVE",
"238 -160 CURVE SMOOTH",
"251 -171 OFFCURVE",
"266 -181 OFFCURVE",
"285 -194 CURVE"
);
}
);
userData = {
assembly = "NPUSHB[ ]	/* 12 values pushed */
47 35 29 3 1 0 1 76 72 1 1 73 
MPPEM[ ]	/* MeasurePixelPerEm */
PUSHB[ ]	/* 1 value pushed */
44 
LT[ ]	/* LessThan */
IF[ ]	/* If */
NPUSHB[ ]	/* 11 values pushed */
0 0 1 0 133 0 1 1 34 1 78 
ELSE[ ]	/* Else */
NPUSHB[ ]	/* 9 values pushed */
0 0 1 0 133 0 1 1 118 
EIF[ ]	/* EndIf */
PUSHB[ ]	/* 7 values pushed */
75 74 26 24 2 8 22 
CALL[ ]	/* CallFunction */";
};
width = 387;
}
);
note = braceleft;
unicode = 007B;
},
{
glyphname = braceright;
lastChange = "2021-04-26 20:42:17 +0000";
layers = (
{
layerId = "D6A4831D-747C-4592-93C0-305F4CD57904";
paths = (
{
closed = 1;
nodes = (
"200 -178 OFFCURVE",
"225 -172 OFFCURVE",
"242 -155 CURVE SMOOTH",
"274 -120 OFFCURVE",
"293 -79 OFFCURVE",
"284 -29 CURVE SMOOTH",
"280 -2 OFFCURVE",
"276 26 OFFCURVE",
"275 53 CURVE SMOOTH",
"275 78 LINE SMOOTH",
"275 107 OFFCURVE",
"274 138 OFFCURVE",
"276 168 CURVE SMOOTH",
"280 204 OFFCURVE",
"279 243 OFFCURVE",
"316 268 CURVE SMOOTH",
"330 276 OFFCURVE",
"326 298 OFFCURVE",
"311 308 CURVE SMOOTH",
"304 314 OFFCURVE",
"295 317 OFFCURVE",
"288 319 CURVE SMOOTH",
"265 324 OFFCURVE",
"251 339 OFFCURVE",
"248 360 CURVE SMOOTH",
"244 386 OFFCURVE",
"241 414 OFFCURVE",
"244 441 CURVE SMOOTH",
"251 520 OFFCURVE",
"269 540 OFFCURVE",
"291 616 CURVE SMOOTH",
"304 667 OFFCURVE",
"314 718 OFFCURVE",
"268 758 CURVE SMOOTH",
"245 776 OFFCURVE",
"216 790 OFFCURVE",
"187 798 CURVE SMOOTH",
"170 803 OFFCURVE",
"147 796 OFFCURVE",
"129 790 CURVE SMOOTH",
"119 786 OFFCURVE",
"105 771 OFFCURVE",
"106 762 CURVE SMOOTH",
"108 745 OFFCURVE",
"125 746 OFFCURVE",
"140 746 CURVE SMOOTH",
"146 746 LINE SMOOTH",
"219 748 OFFCURVE",
"247 716 OFFCURVE",
"232 654 CURVE SMOOTH",
"220 608 OFFCURVE",
"205 562 OFFCURVE",
"190 516 CURVE SMOOTH",
"168 452 OFFCURVE",
"169 438 OFFCURVE",
"179 369 CURVE SMOOTH",
"183 340 OFFCURVE",
"192 310 OFFCURVE",
"218 292 CURVE SMOOTH",
"230 282 OFFCURVE",
"233 275 OFFCURVE",
"228 260 CURVE SMOOTH",
"221 239 OFFCURVE",
"212 218 OFFCURVE",
"211 196 CURVE SMOOTH",
"206 88 OFFCURVE",
"209 106 OFFCURVE",
"221 0 CURVE SMOOTH",
"225 -33 OFFCURVE",
"228 -67 OFFCURVE",
"212 -99 CURVE SMOOTH",
"204 -113 OFFCURVE",
"199 -121 OFFCURVE",
"181 -112 CURVE SMOOTH",
"156 -98 OFFCURVE",
"145 -108 OFFCURVE",
"146 -137 CURVE SMOOTH",
"148 -155 OFFCURVE",
"158 -166 OFFCURVE",
"175 -171 CURVE SMOOTH"
);
}
);
userData = {
assembly = "NPUSHB[ ]	/* 15 values pushed */
25 18 5 3 0 74 0 0 0 118 75 74 1 8 22 
CALL[ ]	/* CallFunction */";
};
width = 398;
}
);
note = braceright;
unicode = 007D;
},
{
glyphname = asciitilde;
lastChange = "2021-12-07 04:16:05 +0000";
layers = (
{
layerId = "D6A4831D-747C-4592-93C0-305F4CD57904";
paths = (
{
closed = 1;
nodes = (
"148 379 OFFCURVE",
"87 343 QCURVE SMOOTH",
"46 320 OFFCURVE",
"50 280 QCURVE",
"74 254 OFFCURVE",
"101 271 OFFCURVE",
"116 281 QCURVE",
"121 283 OFFCURVE",
"145 299 OFFCURVE",
"190 319 OFFCURVE",
"246 319 QCURVE SMOOTH",
"265 319 OFFCURVE",
"305 302 OFFCURVE",
"360 275 QCURVE SMOOTH",
"407 252 OFFCURVE",
"446 257 QCURVE SMOOTH",
"492 262 OFFCURVE",
"576 299 OFFCURVE",
"576 337 QCURVE",
"571 355 OFFCURVE",
"552 353 QCURVE SMOOTH",
"532 351 OFFCURVE",
"466 316 OFFCURVE",
"426 313 QCURVE",
"395 313 OFFCURVE",
"355 339 OFFCURVE",
"320 357 QCURVE SMOOTH",
"283 376 OFFCURVE",
"238 387 OFFCURVE",
"208 384 QCURVE SMOOTH"
);
}
);
userData = {
assembly = "PUSHB[ ]	/* 2 values pushed */
6 100 
WCVTP[ ]	/* WriteCVTInPixels */
NPUSHB[ ]	/* 55 values pushed */
33 1 3 4 1 76 0 4 2 3 2 4 3 128 0 1 0 5 0 1 5 128 0 3 0 5 3 89 0 2 0 0 1 2 0 105 0 3 3 5 97 0 5 3 5 81 36 39 37 36 35 20 6 8 28 
CALL[ ]	/* CallFunction */
PUSHB[ ]	/* 2 values pushed */
6 0 
WCVTP[ ]	/* WriteCVTInPixels */";
};
width = 626;
}
);
leftMetricsKey = h;
note = asciitilde;
rightMetricsKey = h;
unicode = 007E;
},
{
glyphname = exclamdown;
lastChange = "2021-11-28 12:09:39 +0000";
layers = (
{
layerId = "D6A4831D-747C-4592-93C0-305F4CD57904";
paths = (
{
closed = 1;
nodes = (
"95 251 OFFCURVE",
"93 234 OFFCURVE",
"107 395 CURVE SMOOTH",
"108 419 OFFCURVE",
"131 436 OFFCURVE",
"150 435 CURVE SMOOTH",
"168 430 OFFCURVE",
"189 409 OFFCURVE",
"188 386 CURVE SMOOTH",
"181 323 OFFCURVE",
"173 260 OFFCURVE",
"168 198 CURVE SMOOTH",
"162 135 OFFCURVE",
"159 71 OFFCURVE",
"153 7 CURVE SMOOTH",
"150 -45 OFFCURVE",
"142 -96 OFFCURVE",
"135 -148 CURVE SMOOTH",
"134 -167 OFFCURVE",
"121 -176 OFFCURVE",
"107 -175 CURVE SMOOTH",
"91 -170 OFFCURVE",
"75 -158 OFFCURVE",
"75 -140 CURVE SMOOTH",
"77 -91 OFFCURVE",
"82 -40 OFFCURVE",
"84 7 CURVE"
);
},
{
closed = 1;
nodes = (
"156 600 OFFCURVE",
"178 578 OFFCURVE",
"180 547 CURVE SMOOTH",
"180 523 OFFCURVE",
"169 510 OFFCURVE",
"150 502 CURVE SMOOTH",
"132 497 OFFCURVE",
"86 550 OFFCURVE",
"90 573 CURVE SMOOTH",
"93 583 OFFCURVE",
"109 592 OFFCURVE",
"112 599 CURVE"
);
}
);
userData = {
assembly = "NPUSHB[ ]	/* 11 values pushed */
19 1 0 1 1 76 31 24 2 0 73 
MPPEM[ ]	/* MeasurePixelPerEm */
PUSHB[ ]	/* 1 value pushed */
24 
LT[ ]	/* LessThan */
IF[ ]	/* If */
NPUSHB[ ]	/* 11 values pushed */
0 0 0 1 97 0 1 1 33 0 78 
ELSE[ ]	/* Else */
NPUSHB[ ]	/* 16 values pushed */
0 1 0 0 1 89 0 1 1 0 97 0 0 1 0 81 
EIF[ ]	/* EndIf */
PUSHB[ ]	/* 5 values pushed */
42 33 2 8 24 
CALL[ ]	/* CallFunction */";
};
width = 301;
}
);
leftKerningGroup = i;
note = exclamdown;
rightKerningGroup = i;
unicode = 00A1;
},
{
glyphname = cent;
lastChange = "2021-12-07 04:49:55 +0000";
layers = (
{
layerId = "D6A4831D-747C-4592-93C0-305F4CD57904";
paths = (
{
closed = 1;
nodes = (
"246 2 OFFCURVE",
"260 79 OFFCURVE",
"261 125 QCURVE",
"286 129 LINE SMOOTH",
"358 141 OFFCURVE",
"409 199 QCURVE SMOOTH",
"416 207 OFFCURVE",
"416 221 QCURVE SMOOTH",
"416 227 OFFCURVE",
"414 233 QCURVE SMOOTH",
"411 241 OFFCURVE",
"391 252 OFFCURVE",
"383 252 QCURVE SMOOTH",
"376 252 OFFCURVE",
"347 224 OFFCURVE",
"342 221 QCURVE",
"293 181 OFFCURVE",
"264 183 QCURVE",
"260 387 LINE",
"260 440 LINE",
"261 439 LINE SMOOTH",
"281 419 OFFCURVE",
"331 419 QCURVE SMOOTH",
"347 419 OFFCURVE",
"347 422 OFFCURVE",
"347 441 QCURVE SMOOTH",
"347 463 OFFCURVE",
"325 478 QCURVE SMOOTH",
"305 490 OFFCURVE",
"266 503 QCURVE SMOOTH",
"260 505 LINE",
"250 597 LINE SMOOTH",
"236 599 OFFCURVE",
"216 587 QCURVE",
"198 568 OFFCURVE",
"194 515 QCURVE SMOOTH",
"193 503 LINE",
"176 495 OFFCURVE",
"152 475 QCURVE SMOOTH",
"113 438 OFFCURVE",
"74 344 OFFCURVE",
"62 284 QCURVE SMOOTH",
"60 269 OFFCURVE",
"60 262 QCURVE SMOOTH",
"60 228 OFFCURVE",
"98 169 OFFCURVE",
"134 146 QCURVE SMOOTH",
"169 131 OFFCURVE",
"201 125 QCURVE",
"200 72 OFFCURVE",
"210 10 QCURVE",
"226 -4 LINE"
);
},
{
closed = 1;
nodes = (
"184 193 OFFCURVE",
"163 210 QCURVE SMOOTH",
"140 236 OFFCURVE",
"119 283 OFFCURVE",
"123 298 QCURVE SMOOTH",
"133 341 OFFCURVE",
"175 407 OFFCURVE",
"192 431 QCURVE",
"200 283 OFFCURVE",
"200 186 QCURVE"
);
}
);
userData = {
assembly = "NPUSHB[ ]	/* 35 values pushed */
61 46 34 33 28 20 6 1 0 1 76 70 49 15 12 1 5 1 73 0 0 1 0 133 0 1 1 118 57 55 32 31 2 8 22 
CALL[ ]	/* CallFunction */";
};
width = 470;
}
);
note = cent;
unicode = 00A2;
},
{
glyphname = sterling;
lastChange = "2022-01-21 01:53:47 +0000";
layers = (
{
layerId = "D6A4831D-747C-4592-93C0-305F4CD57904";
paths = (
{
closed = 1;
nodes = (
"239 -38 OFFCURVE",
"246 12 OFFCURVE",
"281 12 CURVE",
"365 19 OFFCURVE",
"448 23 OFFCURVE",
"532 23 CURVE SMOOTH",
"575 23 OFFCURVE",
"618 17 OFFCURVE",
"660 13 CURVE",
"670 37 OFFCURVE",
"652 63 OFFCURVE",
"636 67 CURVE SMOOTH",
"606 76 OFFCURVE",
"574 81 OFFCURVE",
"543 81 CURVE SMOOTH",
"483 81 LINE SMOOTH",
"424 81 OFFCURVE",
"366 81 OFFCURVE",
"307 83 CURVE SMOOTH",
"287 83 OFFCURVE",
"252 100 OFFCURVE",
"251 113 CURVE SMOOTH",
"248 136 OFFCURVE",
"247 159 OFFCURVE",
"247 181 CURVE SMOOTH",
"247 214 OFFCURVE",
"249 246 OFFCURVE",
"249 278 CURVE",
"316 278 LINE SMOOTH",
"348 278 OFFCURVE",
"376 278 OFFCURVE",
"404 280 CURVE SMOOTH",
"461 283 OFFCURVE",
"471 327 OFFCURVE",
"424 342 CURVE SMOOTH",
"394 353 OFFCURVE",
"361 352 OFFCURVE",
"330 354 CURVE",
"305 358 OFFCURVE",
"280 356 OFFCURVE",
"250 359 CURVE",
"256 433 OFFCURVE",
"258 507 OFFCURVE",
"264 572 CURVE SMOOTH",
"268 623 OFFCURVE",
"331 615 OFFCURVE",
"361 588 CURVE SMOOTH",
"426 529 LINE",
"472 568 OFFCURVE",
"390 654 OFFCURVE",
"338 687 CURVE SMOOTH",
"320 699 OFFCURVE",
"268 704 OFFCURVE",
"253 704 CURVE SMOOTH",
"224 704 OFFCURVE",
"204 682 OFFCURVE",
"200 637 CURVE SMOOTH",
"193 558 OFFCURVE",
"190 480 OFFCURVE",
"189 400 CURVE SMOOTH",
"189 369 OFFCURVE",
"197 351 OFFCURVE",
"156 352 CURVE SMOOTH",
"140 352 OFFCURVE",
"76 363 OFFCURVE",
"60 364 CURVE",
"71 285 OFFCURVE",
"135 293 OFFCURVE",
"181 275 CURVE",
"177 266 OFFCURVE",
"188 188 OFFCURVE",
"188 176 CURVE SMOOTH",
"188 143 OFFCURVE",
"176 112 OFFCURVE",
"126 90 CURVE",
"140 56 OFFCURVE",
"149 21 OFFCURVE",
"167 -10 CURVE SMOOTH",
"178 -29 OFFCURVE",
"191 -38 OFFCURVE",
"204 -38 CURVE SMOOTH"
);
}
);
userData = {
assembly = "NPUSHB[ ]	/* 14 values pushed */
50 1 6 5 66 1 3 6 91 1 0 7 3 76 
MPPEM[ ]	/* MeasurePixelPerEm */
PUSHB[ ]	/* 1 value pushed */
21 
LT[ ]	/* LessThan */
IF[ ]	/* If */
NPUSHB[ ]	/* 39 values pushed */
0 6 5 3 5 6 3 128 0 4 0 5 6 4 5 105 0 2 2 3 97 0 3 3 33 77 0 7 7 0 98 1 8 2 0 0 34 0 78 
ELSE[ ]	/* Else */
MPPEM[ ]	/* MeasurePixelPerEm */
PUSHB[ ]	/* 1 value pushed */
34 
LT[ ]	/* LessThan */
IF[ ]	/* If */
NPUSHB[ ]	/* 36 values pushed */
0 6 5 3 5 6 3 128 0 4 0 5 6 4 5 105 0 7 1 8 2 0 7 0 102 0 2 2 3 97 0 3 3 33 2 78 
ELSE[ ]	/* Else */
MPPEM[ ]	/* MeasurePixelPerEm */
PUSHB[ ]	/* 1 value pushed */
44 
LT[ ]	/* LessThan */
IF[ ]	/* If */
NPUSHB[ ]	/* 41 values pushed */
0 6 5 3 5 6 3 128 0 1 0 1 134 0 4 0 5 6 4 5 105 0 7 8 1 0 1 7 0 104 0 2 2 3 97 0 3 3 33 2 78 
ELSE[ ]	/* Else */
NPUSHB[ ]	/* 46 values pushed */
0 6 5 3 5 6 3 128 0 1 0 1 134 0 4 0 5 6 4 5 105 0 3 0 2 7 3 2 105 0 7 0 0 7 89 0 7 7 0 96 8 1 0 7 0 80 
EIF[ ]	/* EndIf */
EIF[ ]	/* EndIf */
EIF[ ]	/* EndIf */
NPUSHB[ ]	/* 23 values pushed */
4 0 89 86 71 68 59 55 43 41 32 30 18 17 7 6 0 93 4 93 9 8 22 
CALL[ ]	/* CallFunction */";
};
width = 703;
}
);
leftMetricsKey = E;
note = sterling;
rightMetricsKey = E;
unicode = 00A3;
},
{
glyphname = currency;
lastChange = "2021-12-06 03:49:29 +0000";
layers = (
{
layerId = "D6A4831D-747C-4592-93C0-305F4CD57904";
paths = (
{
closed = 1;
nodes = (
"135 82 OFFCURVE",
"151 80 OFFCURVE",
"163 87 CURVE SMOOTH",
"174 93 OFFCURVE",
"180 109 OFFCURVE",
"188 121 CURVE SMOOTH",
"203 144 LINE",
"237 127 OFFCURVE",
"284 123 OFFCURVE",
"311 138 CURVE SMOOTH",
"338 152 OFFCURVE",
"359 170 OFFCURVE",
"378 190 CURVE",
"401 167 OFFCURVE",
"423 145 OFFCURVE",
"445 122 CURVE SMOOTH",
"464 103 OFFCURVE",
"481 76 OFFCURVE",
"508 96 CURVE SMOOTH",
"539 119 OFFCURVE",
"504 140 OFFCURVE",
"495 161 CURVE SMOOTH",
"493 166 OFFCURVE",
"486 170 OFFCURVE",
"482 175 CURVE SMOOTH",
"417 249 LINE",
"430 277 OFFCURVE",
"439 307 OFFCURVE",
"444 341 CURVE",
"439 355 OFFCURVE",
"436 373 OFFCURVE",
"429 388 CURVE SMOOTH",
"422 402 OFFCURVE",
"414 414 OFFCURVE",
"405 425 CURVE",
"417 441 OFFCURVE",
"428 457 OFFCURVE",
"438 473 CURVE SMOOTH",
"447 489 OFFCURVE",
"447 511 OFFCURVE",
"451 530 CURVE",
"445 533 OFFCURVE",
"438 536 OFFCURVE",
"432 540 CURVE",
"366 462 LINE",
"348 474 OFFCURVE",
"329 485 OFFCURVE",
"308 493 CURVE SMOOTH",
"279 505 OFFCURVE",
"249 504 OFFCURVE",
"227 484 CURVE SMOOTH",
"208 466 LINE",
"178 494 OFFCURVE",
"147 522 OFFCURVE",
"114 545 CURVE SMOOTH",
"97 556 OFFCURVE",
"65 544 OFFCURVE",
"40 542 CURVE",
"50 526 OFFCURVE",
"57 505 OFFCURVE",
"71 493 CURVE SMOOTH",
"102 465 OFFCURVE",
"132 438 OFFCURVE",
"163 412 CURVE",
"139 378 OFFCURVE",
"122 339 OFFCURVE",
"118 295 CURVE SMOOTH",
"113 253 OFFCURVE",
"134 218 OFFCURVE",
"158 186 CURVE",
"118 120 LINE SMOOTH",
"112 111 OFFCURVE",
"119 93 OFFCURVE",
"120 80 CURVE"
);
},
{
closed = 1;
nodes = (
"245 206 LINE SMOOTH",
"224 217 OFFCURVE",
"210 233 OFFCURVE",
"200 252 CURVE SMOOTH",
"189 271 OFFCURVE",
"183 294 OFFCURVE",
"177 318 CURVE",
"185 337 OFFCURVE",
"194 357 OFFCURVE",
"205 375 CURVE SMOOTH",
"217 395 OFFCURVE",
"231 413 OFFCURVE",
"249 428 CURVE SMOOTH",
"253 432 LINE SMOOTH",
"270 445 OFFCURVE",
"294 443 OFFCURVE",
"310 428 CURVE SMOOTH",
"315 423 OFFCURVE",
"319 418 OFFCURVE",
"324 413 CURVE SMOOTH",
"337 399 OFFCURVE",
"350 384 OFFCURVE",
"362 368 CURVE SMOOTH",
"371 357 LINE SMOOTH",
"376 350 OFFCURVE",
"378 336 OFFCURVE",
"376 326 CURVE SMOOTH",
"374 318 OFFCURVE",
"371 310 OFFCURVE",
"369 303 CURVE SMOOTH",
"361 278 OFFCURVE",
"349 255 OFFCURVE",
"332 235 CURVE SMOOTH",
"322 224 OFFCURVE",
"310 213 OFFCURVE",
"296 204 CURVE SMOOTH",
"284 197 OFFCURVE",
"261 197 OFFCURVE",
"248 204 CURVE SMOOTH"
);
}
);
userData = {
assembly = "NPUSHB[ ]	/* 23 values pushed */
66 1 5 3 100 96 92 81 76 56 50 8 4 9 6 4 44 29 2 1 6 3 76 
MPPEM[ ]	/* MeasurePixelPerEm */
PUSHB[ ]	/* 1 value pushed */
21 
LT[ ]	/* LessThan */
IF[ ]	/* If */
NPUSHB[ ]	/* 40 values pushed */
0 3 5 3 133 0 5 4 5 133 0 6 4 1 4 6 1 128 0 0 1 2 1 0 2 128 0 4 0 1 0 4 1 105 0 2 2 34 2 78 
ELSE[ ]	/* Else */
NPUSHB[ ]	/* 46 values pushed */
0 3 5 3 133 0 5 4 5 133 0 6 4 1 4 6 1 128 0 0 1 2 1 0 2 128 0 2 2 132 0 4 6 1 4 89 0 4 4 1 97 0 1 4 1 81 
EIF[ ]	/* EndIf */
NPUSHB[ ]	/* 14 values pushed */
116 114 89 87 79 77 72 70 38 39 47 7 8 25 
CALL[ ]	/* CallFunction */";
};
width = 561;
}
);
leftMetricsKey = o;
note = currency;
rightMetricsKey = o;
unicode = 00A4;
},
{
glyphname = yen;
lastChange = "2021-12-23 11:40:51 +0000";
layers = (
{
components = (
{
name = guion;
},
{
name = endash;
transform = "{0.7674, 0, 0, -1, 3, 574}";
}
);
layerId = "D6A4831D-747C-4592-93C0-305F4CD57904";
paths = (
{
closed = 1;
nodes = (
"37 641 OFFCURVE",
"49 609 OFFCURVE",
"62 598 CURVE SMOOTH",
"125 544 OFFCURVE",
"189 483 OFFCURVE",
"258 429 CURVE",
"262 292 LINE SMOOTH",
"262 289 OFFCURVE",
"254 220 OFFCURVE",
"264 80 CURVE SMOOTH",
"266 48 OFFCURVE",
"274 26 OFFCURVE",
"303 26 CURVE SMOOTH",
"330 26 OFFCURVE",
"340 42 OFFCURVE",
"339 78 CURVE SMOOTH",
"334 227 LINE",
"337 416 LINE",
"352 439 OFFCURVE",
"372 461 OFFCURVE",
"389 477 CURVE SMOOTH",
"424 509 OFFCURVE",
"463 537 OFFCURVE",
"500 568 CURVE SMOOTH",
"515 581 OFFCURVE",
"528 597 OFFCURVE",
"542 611 CURVE",
"526 623 OFFCURVE",
"511 641 OFFCURVE",
"493 645 CURVE SMOOTH",
"478 649 OFFCURVE",
"455 642 OFFCURVE",
"442 631 CURVE SMOOTH",
"406 600 OFFCURVE",
"372 567 OFFCURVE",
"340 532 CURVE SMOOTH",
"298 488 OFFCURVE",
"295 487 OFFCURVE",
"250 528 CURVE SMOOTH",
"204 572 OFFCURVE",
"157 614 OFFCURVE",
"110 657 CURVE SMOOTH",
"86 678 OFFCURVE",
"59 674 OFFCURVE",
"44 652 CURVE SMOOTH"
);
}
);
userData = {
assembly = "MPPEM[ ]	/* MeasurePixelPerEm */
PUSHB[ ]	/* 1 value pushed */
29 
LT[ ]	/* LessThan */
IF[ ]	/* If */
NPUSHB[ ]	/* 26 values pushed */
154 138 104 3 9 10 175 89 2 7 9 65 1 1 7 58 1 6 0 47 43 2 4 2 5 76 
ELSE[ ]	/* Else */
MPPEM[ ]	/* MeasurePixelPerEm */
PUSHB[ ]	/* 1 value pushed */
39 
LT[ ]	/* LessThan */
IF[ ]	/* If */
NPUSHB[ ]	/* 26 values pushed */
154 138 104 3 9 10 175 89 2 13 9 65 1 1 7 58 1 5 0 47 43 2 4 2 5 76 
ELSE[ ]	/* Else */
MPPEM[ ]	/* MeasurePixelPerEm */
PUSHB[ ]	/* 1 value pushed */
46 
LT[ ]	/* LessThan */
IF[ ]	/* If */
NPUSHB[ ]	/* 26 values pushed */
154 138 104 3 9 10 175 89 2 12 9 65 1 1 7 58 1 5 0 47 43 2 4 2 5 76 
ELSE[ ]	/* Else */
NPUSHB[ ]	/* 26 values pushed */
154 138 104 3 9 10 175 89 2 12 9 65 1 1 8 58 1 5 0 47 43 2 4 2 5 76 
EIF[ ]	/* EndIf */
EIF[ ]	/* EndIf */
EIF[ ]	/* EndIf */
MPPEM[ ]	/* MeasurePixelPerEm */
PUSHB[ ]	/* 1 value pushed */
11 
LT[ ]	/* LessThan */
IF[ ]	/* If */
NPUSHB[ ]	/* 50 values pushed */
0 1 7 0 7 1 0 128 0 6 0 2 7 6 114 11 1 9 15 14 13 12 8 5 7 1 9 7 106 0 0 5 3 2 2 4 0 2 105 0 10 10 30 77 0 4 4 40 4 78 
ELSE[ ]	/* Else */
MPPEM[ ]	/* MeasurePixelPerEm */
PUSHB[ ]	/* 1 value pushed */
21 
LT[ ]	/* LessThan */
IF[ ]	/* If */
NPUSHB[ ]	/* 51 values pushed */
0 1 7 0 7 1 0 128 0 6 0 2 0 6 2 128 11 1 9 15 14 13 12 8 5 7 1 9 7 106 0 0 5 3 2 2 4 0 2 105 0 10 10 30 77 0 4 4 40 4 78 
ELSE[ ]	/* Else */
MPPEM[ ]	/* MeasurePixelPerEm */
PUSHB[ ]	/* 1 value pushed */
29 
LT[ ]	/* LessThan */
IF[ ]	/* If */
NPUSHB[ ]	/* 51 values pushed */
0 10 9 10 133 0 1 7 0 7 1 0 128 0 6 0 2 0 6 2 128 11 1 9 15 14 13 12 8 5 7 1 9 7 106 0 0 5 3 2 2 4 0 2 105 0 4 4 40 4 78 
ELSE[ ]	/* Else */
MPPEM[ ]	/* MeasurePixelPerEm */
PUSHB[ ]	/* 1 value pushed */
39 
LT[ ]	/* LessThan */
IF[ ]	/* If */
NPUSHB[ ]	/* 57 values pushed */
0 10 9 10 133 0 13 9 7 7 13 114 0 1 7 0 7 1 0 128 6 1 5 0 2 0 5 2 128 11 1 9 15 14 12 8 4 7 1 9 7 106 0 0 3 1 2 4 0 2 105 0 4 4 40 4 78 
ELSE[ ]	/* Else */
MPPEM[ ]	/* MeasurePixelPerEm */
PUSHB[ ]	/* 1 value pushed */
46 
LT[ ]	/* LessThan */
IF[ ]	/* If */
NPUSHB[ ]	/* 57 values pushed */
0 10 9 10 133 13 1 12 9 7 7 12 114 0 1 7 0 7 1 0 128 6 1 5 0 2 0 5 2 128 11 1 9 15 14 8 3 7 1 9 7 106 0 0 3 1 2 4 0 2 105 0 4 4 40 4 78 
ELSE[ ]	/* Else */
MPPEM[ ]	/* MeasurePixelPerEm */
PUSHB[ ]	/* 1 value pushed */
49 
LT[ ]	/* LessThan */
IF[ ]	/* If */
NPUSHB[ ]	/* 62 values pushed */
0 10 9 10 133 0 7 12 8 8 7 114 0 1 8 0 8 1 0 128 6 1 5 0 2 0 5 2 128 15 14 13 3 12 7 9 12 90 11 1 9 0 8 1 9 8 106 0 0 3 1 2 4 0 2 105 0 4 4 40 4 78 
ELSE[ ]	/* Else */
NPUSHB[ ]	/* 69 values pushed */
0 10 9 10 133 0 7 12 8 8 7 114 0 1 8 0 8 1 0 128 6 1 5 0 2 0 5 2 128 0 4 2 4 134 15 14 13 3 12 7 9 12 90 11 1 9 0 8 1 9 8 106 0 0 5 2 0 89 0 0 0 2 97 3 1 2 0 2 81 
EIF[ ]	/* EndIf */
EIF[ ]	/* EndIf */
EIF[ ]	/* EndIf */
EIF[ ]	/* EndIf */
EIF[ ]	/* EndIf */
EIF[ ]	/* EndIf */
NPUSHB[ ]	/* 30 values pushed */
0 0 0 186 0 185 183 182 180 179 172 169 148 147 100 95 86 83 81 79 18 26 28 17 42 34 38 16 8 29 
CALL[ ]	/* CallFunction */";
};
width = 577;
}
);
note = yen;
unicode = 00A5;
},
